<?xml version="1.0" standalone="no"?>
<!DOCTYPE svg PUBLIC "-//W3C//DTD SVG 1.1//EN" "http://www.w3.org/Graphics/SVG/1.1/DTD/svg11.dtd" >
<svg>
<metadata>
Created by FontForge 20120731 at Wed Aug 19 15:24:13 2020
 By www
Copyright (c) 2012 Swiss Typefaces Sa`rl. All rights reserved.
</metadata>
<defs>
<font id="EuclidFlexMedium" horiz-adv-x="802" >
  <font-face 
    font-family="Euclid Flex Medium"
    font-weight="500"
    font-stretch="normal"
    units-per-em="1000"
    panose-1="2 11 6 0 3 0 0 0 0 0"
    ascent="806"
    descent="-194"
    x-height="500"
    cap-height="710"
    bbox="-205 -1029.75 1445 958"
    underline-thickness="90"
    underline-position="0"
    unicode-range="U+0020-FB02"
  />
<missing-glyph horiz-adv-x="500" 
d="M0 0v710h500v-710h-500zM239 355l-220 327v-654zM260 355l221 -327v654zM250 339l-216 -320h432zM34 691l216 -321l216 321h-432z" />
    <glyph glyph-name="f_t" unicode="ft" horiz-adv-x="654" 
d="M20 402v98h79q-34 36 -34 86q0 54 39 89t102 35h105v-98h-75q-31 0 -48.5 -14t-17.5 -40q0 -25 15.5 -40.5t37.5 -17.5h140v96l110 54v-150h152l-24 -98h-128v-227q0 -40 15 -57t56 -17h69v-101h-97q-72 0 -112.5 40.5t-40.5 111.5v250h-155v-402h-110v402h-78z" />
    <glyph glyph-name="t_f" unicode="tf" horiz-adv-x="634" 
d="M204 402v-227q0 -40 15 -57t56 -17h39v-101h-67q-72 0 -112.5 40.5t-40.5 111.5v250h-77l-20 98h97v96l110 58v-154h170q-34 36 -34 86q0 54 39 89t102 35h132v-98h-102q-31 0 -48.5 -14t-17.5 -40q0 -25 15.5 -40.5t37.5 -17.5h115v-98h-130v-402h-110v402h-169z" />
    <glyph glyph-name="t_t" unicode="tt" horiz-adv-x="664" 
d="M21 402l-24 98h97v96l110 54v-150h169v96l110 54v-150h152l-24 -98h-128v-227q0 -40 15 -57t56 -17h69v-101h-97q-72 0 -112.5 40.5t-40.5 111.5v250h-169v-227q0 -40 15 -57t56 -17h55v-101h-83q-72 0 -112.5 40.5t-40.5 111.5v250h-73z" />
    <glyph glyph-name=".notdef" horiz-adv-x="500" 
d="M0 0v710h500v-710h-500zM239 355l-220 327v-654zM260 355l221 -327v654zM250 339l-216 -320h432zM34 691l216 -321l216 321h-432z" />
    <glyph glyph-name=".null" horiz-adv-x="0" 
 />
    <glyph glyph-name="nonmarkingreturn" horiz-adv-x="333" 
 />
    <glyph glyph-name="space" unicode=" " horiz-adv-x="230" 
 />
    <glyph glyph-name="exclam" unicode="!" horiz-adv-x="298" 
d="M116 233l-22 192v285h111v-285l-21 -192h-68zM149 -8q-35 0 -60.5 25.5t-25.5 61.5q0 44 36 70h101q36 -27 36 -70q0 -36 -25.5 -61.5t-61.5 -25.5z" />
    <glyph glyph-name="quotedbl" unicode="&#x22;" horiz-adv-x="428" 
d="M65 446v264h96v-264h-96zM267 446v264h96v-264h-96z" />
    <glyph glyph-name="numbersign" unicode="#" horiz-adv-x="740" 
d="M339 0l60 193h-162l-60 -193h-97l60 193h-103v88h130l48 152h-106v88h133l59 189h97l-59 -189h163l59 189h97l-59 -189h104v-88h-132l-47 -152h107v-88h-135l-60 -193h-97zM312 433l-48 -152h163l47 152h-162z" />
    <glyph glyph-name="dollar" unicode="$" horiz-adv-x="527" 
d="M217 -88v83q-129 17 -189 118l80 66q59 -85 152 -85q53 0 83 25.5t30 64.5q0 37 -24.5 60t-82.5 51l-56 28q-79 37 -116.5 87.5t-37.5 119.5q0 71 46 120.5t115 62.5v85h94v-84q82 -14 145 -86l-73 -72q-28 32 -55 46t-63 14q-44 0 -72 -23.5t-28 -59.5q0 -35 24 -58.5
t81 -49.5l55 -27q77 -36 117.5 -85t40.5 -119q0 -79 -46 -132t-126 -66v-84h-94z" />
    <glyph glyph-name="percent" unicode="%" horiz-adv-x="430" 
d="M212 69q27 0 44.5 18t17.5 44q0 27 -17.5 45.5t-44.5 18.5t-44.5 -18.5t-17.5 -45.5q0 -26 17.5 -44t44.5 -18zM212 -5q-59 0 -99.5 39.5t-40.5 96.5q0 59 40.5 99t99.5 40q58 0 99 -40t41 -99q0 -57 -41 -96.5t-99 -39.5zM67 310v88h296v-88h-296zM212 515q27 0 44.5 18
t17.5 45q0 26 -17.5 44t-44.5 18t-44.5 -18t-17.5 -44q0 -27 17.5 -45t44.5 -18zM212 440q-59 0 -99.5 40t-40.5 98t40.5 97.5t99.5 39.5q58 0 99 -40t41 -97q0 -58 -41 -98t-99 -40z" />
    <glyph glyph-name="ampersand" unicode="&#x26;" horiz-adv-x="612" 
d="M250 -8q-96 0 -161 65.5t-65 159.5t65 159.5t161 65.5q3 0 8.5 -0.5t8.5 -0.5l-136 269h376v-98h-207l312 -612h-121l-55 107q-54 -115 -186 -115zM250 95q50 0 84 35t34 87t-34 87t-84 35q-51 0 -85 -35t-34 -87t34 -87t85 -35z" />
    <glyph glyph-name="quotesingle" unicode="'" horiz-adv-x="226" 
d="M65 446v264h96v-264h-96z" />
    <glyph glyph-name="parenleft" unicode="(" horiz-adv-x="257" 
d="M163 -151q-56 110 -82.5 216t-26.5 235t26.5 235t82.5 216l84 -37q-97 -212 -97 -414t97 -414z" />
    <glyph glyph-name="parenright" unicode=")" horiz-adv-x="257" 
d="M94 -151l-84 37q97 212 97 414t-97 414l84 37q56 -110 82.5 -216t26.5 -235t-26.5 -235t-82.5 -216z" />
    <glyph glyph-name="asterisk" unicode="*" horiz-adv-x="462" 
d="M313 341l-81 111l-82 -110l-65 45l81 111l-131 44l24 77l133 -44v135h79v-135l132 43l24 -75l-130 -44l81 -112z" />
    <glyph glyph-name="plus" unicode="+" horiz-adv-x="615" 
d="M89 233v88h174v170h89v-170h174v-88h-174v-174h-89v174h-174z" />
    <glyph glyph-name="comma" unicode="," horiz-adv-x="268" 
d="M78 -146l44 146h-58v141h141v-141l-59 -146h-68z" />
    <glyph glyph-name="hyphen" unicode="-" horiz-adv-x="345" 
d="M44 222v109h258v-109h-258z" />
    <glyph glyph-name="period" unicode="." horiz-adv-x="283" 
d="M142 -8q-36 0 -61.5 25.5t-25.5 61.5q0 35 25.5 60.5t61.5 25.5t61 -25.5t25 -60.5q0 -36 -25 -61.5t-61 -25.5z" />
    <glyph glyph-name="slash" unicode="/" horiz-adv-x="440" 
d="M0 0l339 710h101l-339 -710h-101z" />
    <glyph glyph-name="zero" unicode="0" horiz-adv-x="815" 
d="M407 94q109 0 181.5 75.5t72.5 185.5t-72.5 185.5t-181.5 75.5t-181 -75.5t-72 -185.5t72 -185.5t181 -75.5zM407 -8q-151 0 -257.5 105.5t-106.5 257.5t106.5 257.5t257.5 105.5q152 0 258.5 -105.5t106.5 -257.5t-106.5 -257.5t-258.5 -105.5z" />
    <glyph glyph-name="one" unicode="1" horiz-adv-x="288" 
d="M89 0v608l110 110v-718h-110z" />
    <glyph glyph-name="two" unicode="2" horiz-adv-x="564" 
d="M21 0l252 287q-93 0 -153 62.5t-60 149.5q0 93 64.5 156t160.5 63q95 0 160 -63.5t65 -155.5q0 -106 -89 -207l-166 -189h254v-103h-488zM285 382q51 0 83 33t32 84q0 50 -32 83.5t-83 33.5q-52 0 -83.5 -33.5t-31.5 -83.5q0 -51 31.5 -84t83.5 -33z" />
    <glyph glyph-name="three" unicode="3" horiz-adv-x="517" 
d="M233 -8q-64 0 -119.5 27t-88.5 75l81 68q42 -68 123 -68q60 0 99 36.5t39 98.5q-1 62 -39.5 100t-102.5 38h-67l130 239h-233v104h400l-140 -258q77 -23 120 -82t43 -141q0 -106 -67.5 -171.5t-177.5 -65.5z" />
    <glyph glyph-name="four" unicode="4" horiz-adv-x="588" 
d="M376 0v183h-396l505 535v-432h83v-103h-83v-183h-109zM214 286h162v171z" />
    <glyph glyph-name="five" unicode="5" horiz-adv-x="543" 
d="M259 -8q-65 0 -123 27.5t-89 74.5l82 70q18 -30 51.5 -50t74.5 -20q58 0 95 37.5t37 93.5q0 58 -36.5 96t-97.5 38q-68 0 -105 -56l-72 32v375h369v-103h-259v-162q35 16 72 16q110 0 175.5 -66t65.5 -170q0 -103 -66.5 -168t-173.5 -65z" />
    <glyph glyph-name="six" unicode="6" horiz-adv-x="531" 
d="M265 -8q-102 0 -170.5 67t-68.5 165q0 58 43 133l204 353h122l-150 -258q15 3 30 3q91 0 160 -65.5t69 -165.5q0 -98 -68.5 -165t-170.5 -67zM265 94q57 0 92.5 37.5t35.5 92.5q0 54 -35.5 92t-92.5 38q-56 0 -92 -38t-36 -92q0 -55 35.5 -92.5t92.5 -37.5z" />
    <glyph glyph-name="seven" unicode="7" horiz-adv-x="510" 
d="M54 0l286 607h-309v103h474l-333 -710h-118z" />
    <glyph glyph-name="eight" unicode="8" horiz-adv-x="573" 
d="M286 -8q-102 0 -171.5 66t-69.5 163q0 61 29 110t79 78q-52 47 -52 124q0 78 53.5 131.5t131.5 53.5q79 0 133 -53.5t54 -131.5q0 -75 -53 -125q50 -29 79 -78t29 -109q0 -97 -69.5 -163t-172.5 -66zM286 94q58 0 94.5 36.5t36.5 90.5t-36.5 91t-94.5 37q-57 0 -93 -37
t-36 -91t36 -90.5t93 -36.5zM286 450q36 0 59 23.5t23 59.5t-23 59.5t-59 23.5t-58 -23.5t-22 -59.5t22 -59.5t58 -23.5z" />
    <glyph glyph-name="nine" unicode="9" horiz-adv-x="531" 
d="M135 0l150 258q-15 -3 -30 -3q-91 0 -160 65.5t-69 165.5q0 98 68.5 165t170.5 67t170.5 -67t68.5 -165q0 -58 -43 -133l-204 -353h-122zM265 356q56 0 92 38t36 92q0 55 -35.5 92.5t-92.5 37.5t-92.5 -37.5t-35.5 -92.5q0 -54 35.5 -92t92.5 -38z" />
    <glyph glyph-name="colon" unicode=":" horiz-adv-x="283" 
d="M142 335q-36 0 -61.5 25.5t-25.5 61.5q0 35 25.5 60.5t61.5 25.5t61 -25.5t25 -60.5q0 -36 -25 -61.5t-61 -25.5zM142 -8q-36 0 -61.5 25.5t-25.5 61.5q0 35 25.5 60.5t61.5 25.5t61 -25.5t25 -60.5q0 -36 -25 -61.5t-61 -25.5z" />
    <glyph glyph-name="semicolon" unicode=";" horiz-adv-x="283" 
d="M86 -146l44 146h-58v141h141v-141l-59 -146h-68zM142 335q-36 0 -61.5 25.5t-25.5 61.5q0 35 25.5 60.5t61.5 25.5t61 -25.5t25 -60.5q0 -36 -25 -61.5t-61 -25.5z" />
    <glyph glyph-name="less" unicode="&#x3c;" horiz-adv-x="463" 
d="M336 -8l-289 282l289 282l64 -65l-224 -217l224 -218z" />
    <glyph glyph-name="equal" unicode="=" horiz-adv-x="620" 
d="M89 127v88h442v-88h-442zM89 339v88h442v-88h-442z" />
    <glyph glyph-name="greater" unicode="&#x3e;" horiz-adv-x="463" 
d="M127 -8l-64 64l224 218l-224 217l64 65l289 -282z" />
    <glyph glyph-name="question" unicode="?" horiz-adv-x="480" 
d="M182 280v102h57q51 0 83 33.5t32 83.5t-32 83.5t-83 33.5q-52 0 -83.5 -33.5t-31.5 -83.5h-110q0 93 64.5 156t160.5 63q95 0 160 -63.5t65 -155.5t-65 -155.5t-160 -63.5h-57zM234 -8q-35 0 -60.5 25.5t-25.5 61.5q0 44 36 70h101q36 -27 36 -70q0 -36 -25.5 -61.5
t-61.5 -25.5z" />
    <glyph glyph-name="at" unicode="@" horiz-adv-x="807" 
d="M364 165q-77 0 -121.5 49t-44.5 123q0 92 61 155.5t156 63.5q62 0 103 -38l6 28h80l-49 -229q-16 -79 44 -79q42 0 69 43t27 127q0 113 -77.5 176t-193.5 63q-129 0 -218.5 -85t-89.5 -225q0 -121 73 -196t198 -75q105 0 184 41l25 -71q-97 -44 -209 -44
q-158 0 -253.5 98.5t-95.5 246.5q0 167 114 274t273 107q150 0 247 -85.5t97 -226.5q0 -122 -53.5 -182.5t-130.5 -60.5q-33 0 -59.5 14t-38.5 37q-51 -49 -123 -49zM378 241q55 0 90 43l33 153q-29 43 -84 43t-94 -38.5t-39 -97.5q0 -49 25.5 -76t68.5 -27z" />
    <glyph glyph-name="A" unicode="A" horiz-adv-x="714" 
d="M10 0l347 718l347 -718h-125l-74 158h-297l-74 -158h-124zM357 474l-99 -210h197z" />
    <glyph glyph-name="B" unicode="B" horiz-adv-x="620" 
d="M79 0v710h251q94 0 151.5 -56.5t57.5 -137.5q0 -91 -66 -138q52 -22 83 -66.5t31 -107.5q0 -92 -66 -148t-170 -56h-272zM195 108h156q58 0 88.5 28t30.5 73q0 46 -30.5 74.5t-88.5 28.5h-156v-204zM195 411h120q51 0 79 27t28 69q0 41 -28 68.5t-79 27.5h-120v-192z" />
    <glyph glyph-name="C" unicode="C" horiz-adv-x="681" 
d="M401 -8q-151 0 -257 105t-106 258t106 258t257 105q153 0 251 -103l-75 -82q-70 75 -176 75q-105 0 -175 -73t-70 -180t70 -180t175 -73q106 0 176 75l75 -82q-98 -103 -251 -103z" />
    <glyph glyph-name="D" unicode="D" horiz-adv-x="714" 
d="M195 108h109q113 0 183.5 70t70.5 177t-70.5 177t-183.5 70h-109v-494zM79 0v710h225q159 0 265.5 -102t106.5 -253t-106.5 -253t-265.5 -102h-225z" />
    <glyph glyph-name="E" unicode="E" horiz-adv-x="544" 
d="M79 0v710h421v-114h-305v-180h245v-112h-245v-190h305v-114h-421z" />
    <glyph glyph-name="F" unicode="F" horiz-adv-x="514" 
d="M79 0v710h412v-114h-296v-180h231v-112h-231v-304h-116z" />
    <glyph glyph-name="G" unicode="G" horiz-adv-x="730" 
d="M401 -8q-151 0 -257 105t-106 258t106 258t257 105q161 0 259 -103l-75 -82q-33 35 -82 55t-102 20q-105 0 -175 -73t-70 -180t70 -180t175 -73q84 0 145 38v164h-195l51 112h260v-333q-105 -91 -261 -91z" />
    <glyph glyph-name="H" unicode="H" horiz-adv-x="742" 
d="M79 0v710h116v-294h352v294h116v-710h-116v304h-352v-304h-116z" />
    <glyph glyph-name="I" unicode="I" horiz-adv-x="274" 
d="M79 0v710h116v-710h-116z" />
    <glyph glyph-name="J" unicode="J" horiz-adv-x="530" 
d="M234 -8q-92 0 -155 56.5t-63 160.5h117q0 -51 28.5 -78.5t72.5 -28.5q44 0 73 27.5t29 79.5v501h116v-503q0 -103 -63 -159t-155 -56z" />
    <glyph glyph-name="K" unicode="K" horiz-adv-x="662" 
d="M79 0v710h116v-357l299 357h138l-301 -359l331 -351h-150l-317 335v-335h-116z" />
    <glyph glyph-name="L" unicode="L" horiz-adv-x="505" 
d="M79 0v710h116v-595h299v-115h-415z" />
    <glyph glyph-name="M" unicode="M" horiz-adv-x="856" 
d="M79 0v718l349 -372l349 372v-718h-116v436l-233 -252l-233 252v-436h-116z" />
    <glyph glyph-name="N" unicode="N" horiz-adv-x="759" 
d="M680 -8l-485 461v-453h-116v718l485 -461v453h116v-718z" />
    <glyph glyph-name="O" unicode="O" 
d="M401 102q105 0 175 73t70 180t-70 180t-175 73t-175 -73t-70 -180t70 -180t175 -73zM401 -8q-151 0 -257 105t-106 258t106 258t257 105q152 0 257.5 -105t105.5 -258t-105.5 -258t-257.5 -105z" />
    <glyph glyph-name="P" unicode="P" horiz-adv-x="559" 
d="M79 0v710h212q110 0 179 -63t69 -163q0 -99 -69 -162.5t-179 -63.5h-96v-258h-116zM195 366h91q63 0 99 32t36 86t-36 86t-99 32h-91v-236z" />
    <glyph glyph-name="Q" unicode="Q" 
d="M752 -8l-110 89q-102 -89 -241 -89q-151 0 -257 105t-106 258t106 258t257 105q152 0 257.5 -105t105.5 -258q0 -103 -53 -191l110 -90zM401 102q87 0 152 52l-101 83l69 82l99 -81q26 57 26 117q0 107 -70 180t-175 73t-175 -73t-70 -180t70 -180t175 -73z" />
    <glyph glyph-name="R" unicode="R" horiz-adv-x="622" 
d="M476 0l-214 302h-67v-302h-116v710h230q99 0 162.5 -57.5t63.5 -146.5q0 -69 -39 -120.5t-107 -72.5l226 -313h-139zM195 403h103q59 0 89 26.5t30 72.5q0 47 -30 74t-89 27h-103v-200z" />
    <glyph glyph-name="S" unicode="S" horiz-adv-x="518" 
d="M259 -8q-79 0 -142 32.5t-97 88.5l88 74q27 -37 66.5 -61t83.5 -24q52 0 80.5 22t28.5 60q0 39 -24.5 65t-78.5 50l-56 24q-160 70 -160 207q0 83 63 135.5t148 52.5q124 0 199 -90l-80 -83q-28 34 -55.5 48.5t-64.5 14.5q-38 0 -66 -21t-28 -56q0 -34 24.5 -60t78.5 -49
l55 -25q163 -71 163 -203q0 -90 -62 -146t-164 -56z" />
    <glyph glyph-name="T" unicode="T" horiz-adv-x="523" 
d="M203 0v596h-183v114h483v-114h-184v-596h-116z" />
    <glyph glyph-name="U" unicode="U" horiz-adv-x="711" 
d="M356 -8q-127 0 -206.5 77t-79.5 207v434h116v-437q0 -81 46.5 -126t123.5 -45t123 45t46 126v437h116v-434q0 -130 -79 -207t-206 -77z" />
    <glyph glyph-name="V" unicode="V" horiz-adv-x="662" 
d="M331 -8l-329 718h128l201 -454l202 454h127z" />
    <glyph glyph-name="W" unicode="W" horiz-adv-x="893" 
d="M255 -8l-244 718h119l140 -409l176 417l176 -417l140 409h120l-245 -718l-191 460z" />
    <glyph glyph-name="X" unicode="X" horiz-adv-x="672" 
d="M14 0l244 360l-230 350h134l174 -263l174 263h134l-229 -350l243 -360h-133l-188 276l-188 -276h-135z" />
    <glyph glyph-name="Y" unicode="Y" horiz-adv-x="641" 
d="M262 0v299l-261 411h136l183 -293l183 293h137l-262 -411v-299h-116z" />
    <glyph glyph-name="Z" unicode="Z" horiz-adv-x="613" 
d="M17 0l371 596h-329v114h528l-371 -596h364v-114h-563z" />
    <glyph glyph-name="bracketleft" unicode="[" horiz-adv-x="281" 
d="M65 -148v896h204v-85h-107v-726h107v-85h-204z" />
    <glyph glyph-name="backslash" unicode="\" horiz-adv-x="440" 
d="M339 0l-339 710h101l339 -710h-101z" />
    <glyph glyph-name="bracketright" unicode="]" horiz-adv-x="281" 
d="M216 748v-896h-204v85h107v726h-107v85h204z" />
    <glyph glyph-name="asciicircum" unicode="^" horiz-adv-x="598" 
d="M25 311l274 403l274 -403h-105l-169 247l-170 -247h-104z" />
    <glyph glyph-name="underscore" unicode="_" horiz-adv-x="428" 
d="M0 -88v88h428v-88h-428z" />
    <glyph glyph-name="grave" unicode="`" horiz-adv-x="328" 
d="M186 545l-132 165h133l84 -165h-85z" />
    <glyph glyph-name="a" unicode="a" horiz-adv-x="611" 
d="M431 0v36q-55 -44 -134 -44q-111 0 -184 74t-73 184t73 184t184 74q78 0 134 -45v37h110v-500h-110zM298 97q41 0 77 18.5t56 49.5v170q-20 31 -56 49.5t-77 18.5q-63 0 -104 -43.5t-41 -109.5t41 -109.5t104 -43.5z" />
    <glyph glyph-name="b" unicode="b" horiz-adv-x="611" 
d="M70 0v710h110v-247q55 45 134 45q111 0 184 -74t73 -184t-73 -184t-184 -74q-81 0 -134 44v-36h-110zM313 403q-42 0 -77.5 -18.5t-55.5 -49.5v-170q20 -31 55.5 -49.5t77.5 -18.5q63 0 104 43.5t41 109.5t-41 109.5t-104 43.5z" />
    <glyph glyph-name="c" unicode="c" horiz-adv-x="524" 
d="M298 -8q-111 0 -184.5 74t-73.5 184t73.5 184t184.5 74q115 0 191 -83l-75 -77q-46 53 -116 53q-63 0 -104 -42.5t-41 -108.5t41 -108.5t104 -42.5q70 0 116 53l75 -77q-76 -83 -191 -83z" />
    <glyph glyph-name="d" unicode="d" horiz-adv-x="611" 
d="M431 0v36q-55 -44 -134 -44q-111 0 -184 74t-73 184t73 184t184 74q78 0 134 -45v247h110v-710h-110zM298 97q41 0 77 18.5t56 49.5v170q-20 31 -56 49.5t-77 18.5q-63 0 -104 -43.5t-41 -109.5t41 -109.5t104 -43.5z" />
    <glyph glyph-name="e" unicode="e" horiz-adv-x="574" 
d="M298 -8q-111 0 -184.5 74t-73.5 184t73.5 184t182.5 74q105 0 169.5 -69t69.5 -189v-30h-381q8 -53 48 -86t96 -33q79 0 130 57l74 -79q-34 -39 -87 -63t-117 -24zM288 407q-45 0 -81.5 -27.5t-49.5 -74.5h257q-20 102 -126 102z" />
    <glyph glyph-name="f" unicode="f" horiz-adv-x="359" 
d="M20 402v98h79q-34 36 -34 86q0 54 39 89t102 35h132v-98h-102q-31 0 -48.5 -14t-17.5 -40q0 -25 15.5 -40.5t37.5 -17.5h115v-98h-130v-402h-110v402h-78z" />
    <glyph glyph-name="g" unicode="g" horiz-adv-x="603" 
d="M289 -194q-122 0 -215 60l58 96q69 -51 157 -51q64 0 106 24.5t42 80.5q0 29 -11 51q-57 -47 -137 -47q-110 0 -179.5 69t-69.5 175t69.5 175t179.5 69q77 0 133 -45v37h110v-399q20 -50 20 -99q0 -99 -77 -147.5t-186 -48.5zM290 125q41 0 76.5 18t55.5 49v144
q-20 31 -55.5 49t-76.5 18q-58 0 -97.5 -39t-39.5 -100t39.5 -100t97.5 -39z" />
    <glyph glyph-name="h" unicode="h" horiz-adv-x="583" 
d="M70 0v710h110v-257q51 55 140 55q93 0 148 -59t55 -156v-293h-110v291q0 44 -31 78t-83 34q-89 0 -119 -88v-315h-110z" />
    <glyph glyph-name="i" unicode="i" horiz-adv-x="250" 
d="M70 597q-18 21 -18 48q0 30 21.5 51.5t51.5 21.5t51.5 -21.5t21.5 -51.5q0 -27 -18 -48h-110zM70 0v500h110v-500h-110z" />
    <glyph glyph-name="j" unicode="j" horiz-adv-x="250" 
d="M-35 -184v104h30q39 0 57 15.5t18 52.5v512h110v-518q0 -88 -44.5 -127t-135.5 -39h-35zM70 597q-18 21 -18 48q0 30 21.5 51.5t51.5 21.5t51.5 -21.5t21.5 -51.5q0 -27 -18 -48h-110z" />
    <glyph glyph-name="k" unicode="k" horiz-adv-x="535" 
d="M70 0v710h110v-436l200 226h130l-208 -237l233 -263h-135l-220 249v-249h-110z" />
    <glyph glyph-name="l" unicode="l" horiz-adv-x="250" 
d="M70 0v710h110v-710h-110z" />
    <glyph glyph-name="m" unicode="m" horiz-adv-x="883" 
d="M713 0v291q0 45 -26.5 78.5t-76.5 33.5q-78 0 -109 -87q1 -8 1 -23v-293h-110v291q0 45 -27 78.5t-77 33.5q-78 0 -108 -85v-318h-110v500h110v-47q49 55 129 55q103 0 156 -77q58 77 165 77q91 0 142 -58.5t51 -156.5v-293h-110z" />
    <glyph glyph-name="n" unicode="n" horiz-adv-x="583" 
d="M70 0v500h110v-47q51 55 140 55q93 0 148 -59t55 -156v-293h-110v291q0 44 -31 78t-83 34q-89 0 -119 -88v-315h-110z" />
    <glyph glyph-name="o" unicode="o" horiz-adv-x="598" 
d="M299 97q63 0 104.5 43.5t41.5 109.5t-41.5 109.5t-104.5 43.5q-64 0 -105 -43.5t-41 -109.5t41 -109.5t105 -43.5zM299 -8q-111 0 -185 74t-74 184t74 184t185 74t185 -74t74 -184t-74 -184t-185 -74z" />
    <glyph glyph-name="p" unicode="p" horiz-adv-x="611" 
d="M70 -184v684h110v-37q55 45 134 45q111 0 184 -74t73 -184t-73 -184t-184 -74q-81 0 -134 44v-220h-110zM313 403q-42 0 -77.5 -18.5t-55.5 -49.5v-170q20 -31 55.5 -49.5t77.5 -18.5q63 0 104 43.5t41 109.5t-41 109.5t-104 43.5z" />
    <glyph glyph-name="q" unicode="q" horiz-adv-x="611" 
d="M431 -184v220q-55 -44 -134 -44q-111 0 -184 74t-73 184t73 184t184 74q78 0 134 -45v37h110v-684h-110zM298 97q41 0 77 18.5t56 49.5v170q-20 31 -56 49.5t-77 18.5q-63 0 -104 -43.5t-41 -109.5t41 -109.5t104 -43.5z" />
    <glyph glyph-name="r" unicode="r" horiz-adv-x="367" 
d="M70 0v500h110v-49q47 56 129 56q19 0 36 -3v-115q-21 7 -55 7q-79 0 -110 -60v-336h-110z" />
    <glyph glyph-name="s" unicode="s" horiz-adv-x="416" 
d="M205 -8q-126 0 -186 102l84 60q37 -64 102 -64q28 0 46 13t18 33q0 21 -16 35.5t-51 27.5l-35 14q-122 47 -122 154q0 61 45.5 101t115.5 40q104 0 156 -87l-81 -56q-25 45 -73 45q-23 0 -39 -11t-16 -29q0 -19 14.5 -33t49.5 -28l36 -13q66 -26 98.5 -62.5t32.5 -92.5
q0 -66 -50 -107.5t-129 -41.5z" />
    <glyph glyph-name="t" unicode="t" horiz-adv-x="385" 
d="M21 402l-24 98h97v96l110 54v-150h152l-24 -98h-128v-227q0 -40 15 -57t56 -17h69v-101h-97q-72 0 -112.5 40.5t-40.5 111.5v250h-73z" />
    <glyph glyph-name="u" unicode="u" horiz-adv-x="580" 
d="M400 0v46q-50 -54 -140 -54q-93 0 -148 59t-55 156v293h110v-291q0 -44 31 -78t83 -34q88 0 119 85v318h110v-500h-110z" />
    <glyph glyph-name="v" unicode="v" horiz-adv-x="548" 
d="M274 -8l-274 508h124l150 -294l148 294h126z" />
    <glyph glyph-name="w" unicode="w" horiz-adv-x="723" 
d="M171 0l-158 500h115l99 -327l135 335l134 -335l99 327h115l-158 -500h-86l-104 260l-105 -260h-86z" />
    <glyph glyph-name="x" unicode="x" horiz-adv-x="543" 
d="M13 0l189 253l-179 247h127l121 -166l121 166h127l-179 -247l189 -253h-128l-130 178l-130 -178h-128z" />
    <glyph glyph-name="y" unicode="y" horiz-adv-x="510" 
d="M107 -184l90 210l-197 474h118l136 -345l137 345h118l-286 -684h-116z" />
    <glyph glyph-name="z" unicode="z" horiz-adv-x="507" 
d="M19 0l272 402h-240v98h430l-272 -402h258v-98h-448z" />
    <glyph glyph-name="braceleft" unicode="{" horiz-adv-x="303" 
d="M229 -148q-135 0 -135 143v198q0 33 -12 49t-45 16h-13v84h13q33 0 45 16t12 49v198q0 143 132 143h64v-85h-42q-33 0 -45.5 -15t-12.5 -52v-190q0 -83 -56 -106q30 -11 43 -36t13 -70v-190q0 -37 12.5 -52t45.5 -15h42v-85h-61z" />
    <glyph glyph-name="bar" unicode="|" horiz-adv-x="245" 
d="M74 -184v894h97v-894h-97z" />
    <glyph glyph-name="braceright" unicode="}" horiz-adv-x="303" 
d="M74 -148h-61v85h42q33 0 45.5 15t12.5 52v190q0 45 13 70t43 36q-56 23 -56 106v190q0 37 -12.5 52t-45.5 15h-42v85h64q132 0 132 -143v-198q0 -33 12 -49t45 -16h13v-84h-13q-33 0 -45 -16t-12 -49v-198q0 -143 -135 -143z" />
    <glyph glyph-name="asciitilde" unicode="~" horiz-adv-x="597" 
d="M89 199v108l108 73l198 -76l113 74v-103l-109 -76l-198 76z" />
    <glyph glyph-name="uni00A0" unicode="&#xa0;" horiz-adv-x="230" 
 />
    <glyph glyph-name="exclamdown" unicode="&#xa1;" horiz-adv-x="299" 
d="M94 -184v259l22 192h68l21 -192v-259h-111zM99 351q-36 25 -36 70q0 36 25.5 61.5t60.5 25.5q36 0 61.5 -25.5t25.5 -61.5q0 -44 -36 -70h-101z" />
    <glyph glyph-name="cent" unicode="&#xa2;" horiz-adv-x="539" 
d="M261 -88v84q-94 14 -154 85t-60 169t60 168.5t154 85.5v84h89v-84q86 -15 146 -79l-75 -77q-46 53 -116 53q-63 0 -104 -42.5t-41 -108.5t41 -108.5t104 -42.5q70 0 116 53l75 -77q-60 -64 -146 -79v-84h-89z" />
    <glyph glyph-name="sterling" unicode="&#xa3;" horiz-adv-x="618" 
d="M72 301v90h81q-39 47 -39 114q0 87 63 150t157 63q92 0 155.5 -62.5t65.5 -152.5h-112q0 48 -30.5 80.5t-78.5 32.5t-79 -31.5t-31 -79.5t31.5 -81t78.5 -33h81v-90h-147v-198h303v-103h-499v103h85v198h-85z" />
    <glyph glyph-name="currency" unicode="&#xa4;" horiz-adv-x="652" 
d="M106 94l-39 39l69 69q-49 63 -49 144t48 145l-68 69l39 38l67 -67q65 54 150 54q88 0 154 -56l69 69l39 -38l-71 -70q48 -64 48 -144t-49 -143l72 -70l-39 -39l-70 70q-67 -54 -153 -54q-84 0 -149 52zM323 206q61 0 101 40t40 100q0 62 -40 103t-101 41q-59 0 -97.5 -41
t-38.5 -103q0 -60 38.5 -100t97.5 -40z" />
    <glyph glyph-name="yen" unicode="&#xa5;" horiz-adv-x="655" 
d="M108 281v88h120l-217 341h128l188 -299l187 299h129l-217 -341h121v-88h-165v-74h165v-88h-165v-119h-109v119h-165v88h165v74h-165z" />
    <glyph glyph-name="brokenbar" unicode="&#xa6;" horiz-adv-x="245" 
d="M74 -184v384h97v-384h-97zM74 327v383h97v-383h-97z" />
    <glyph glyph-name="section" unicode="&#xa7;" horiz-adv-x="500" 
d="M240 -194q-118 0 -173 106l77 50q38 -73 98 -73q32 0 54.5 20t22.5 51q0 33 -22 59.5t-80 55.5q-3 1 -12.5 6t-15.5 7q-59 21 -93 67.5t-34 110.5q0 49 25 92t66 66l-16 13q-55 53 -55 132q0 67 47.5 108t117.5 41q56 0 98.5 -28t62.5 -77l-77 -44q-29 66 -86 66
q-27 0 -46.5 -18.5t-19.5 -47.5q0 -63 83 -109q20 -11 37 -17q62 -20 100.5 -64t38.5 -113q0 -51 -24.5 -93.5t-67.5 -68.5q5 -5 15 -13q54 -50 54 -130q0 -67 -49.5 -111t-125.5 -44zM250 166q39 0 65.5 29.5t26.5 70.5t-26 67.5t-66 26.5t-66.5 -27t-26.5 -67
q0 -41 27 -70.5t66 -29.5z" />
    <glyph glyph-name="dieresis" unicode="&#xa8;" horiz-adv-x="466" 
d="M118 562q-28 0 -48 19.5t-20 47.5t20 48t48 20t48 -20t20 -48t-20 -47.5t-48 -19.5zM348 562q-28 0 -47.5 19.5t-19.5 47.5t19.5 48t47.5 20t47.5 -20t19.5 -48t-19.5 -47.5t-47.5 -19.5z" />
    <glyph glyph-name="copyright" unicode="&#xa9;" 
d="M411 171q-79 0 -131.5 52.5t-52.5 131.5t52.5 131.5t131.5 52.5q96 0 148 -80l-60 -41q-29 50 -90 50q-44 0 -74 -31t-30 -82t30 -82t74 -31q60 0 90 50l60 -41q-53 -80 -148 -80zM401 72q118 0 198.5 81t80.5 202q0 122 -80.5 202.5t-198.5 80.5t-199 -81t-81 -202
t81 -202t199 -81zM401 -8q-151 0 -257 104.5t-106 258.5t106 258.5t257 104.5t257 -104.5t106 -258.5t-106 -258.5t-257 -104.5z" />
    <glyph glyph-name="ordfeminine" unicode="&#xaa;" horiz-adv-x="360" 
d="M241 410v20q-28 -25 -71 -25q-65 0 -107 45t-42 110t42 110t107 45q41 0 71 -25v20h81v-300h-81zM179 481q40 0 62 31v96q-23 31 -62 31q-34 0 -55 -22.5t-21 -56.5t21 -56.5t55 -22.5z" />
    <glyph glyph-name="guillemotleft" unicode="&#xab;" horiz-adv-x="520" 
d="M401 22l-156 228l156 228l75 -51l-121 -177l121 -177zM187 22l-156 228l156 228l75 -51l-121 -177l121 -177z" />
    <glyph glyph-name="logicalnot" unicode="&#xac;" horiz-adv-x="615" 
d="M437 49v184h-348v88h437v-272h-89z" />
    <glyph glyph-name="uni00AD" unicode="&#xad;" horiz-adv-x="345" 
d="M44 222v109h258v-109h-258z" />
    <glyph glyph-name="registered" unicode="&#xae;" 
d="M401 -8q-151 0 -257 104.5t-106 258.5t106 258.5t257 104.5t257 -104.5t106 -258.5t-106 -258.5t-257 -104.5zM401 72q118 0 198.5 81t80.5 202q0 122 -80.5 202.5t-198.5 80.5t-199 -81t-81 -202t81 -202t199 -81zM481 175l-104 141h-24v-141h-74v361h146q51 0 82.5 -32
t31.5 -78q0 -38 -21 -65.5t-59 -38.5l110 -147h-88zM352 381h65q24 0 36.5 12t12.5 31q0 18 -12.5 30t-36.5 12h-65v-85z" />
    <glyph glyph-name="macron" unicode="&#xaf;" horiz-adv-x="410" 
d="M52 601v76h306v-76h-306z" />
    <glyph glyph-name="degree" unicode="&#xb0;" horiz-adv-x="338" 
d="M169 537q23 0 39 16.5t16 38.5t-16 38.5t-39 16.5t-39 -16.5t-16 -38.5t16 -38.5t39 -16.5zM169 470q-50 0 -86 36t-36 86t36 86t86 36t86 -36t36 -86t-36 -86t-86 -36z" />
    <glyph glyph-name="plusminus" unicode="&#xb1;" horiz-adv-x="615" 
d="M89 283v88h174v129h89v-129h174v-88h-174v-133h-89v133h-174zM89 0v88h437v-88h-437z" />
    <glyph glyph-name="twosuperior" unicode="&#xb2;" horiz-adv-x="344" 
d="M5 410l139 166q-35 0 -72.5 36.5t-37.5 93.5q0 56 40.5 95.5t98.5 39.5q57 0 98 -39.5t41 -95.5q0 -52 -42 -102l-98 -118h139v-76h-306zM173 646q25 0 41 17.5t16 42.5t-16 42t-41 17q-26 0 -41.5 -17t-15.5 -42t15.5 -42.5t41.5 -17.5z" />
    <glyph glyph-name="threesuperior" unicode="&#xb3;" horiz-adv-x="311" 
d="M139 405q-83 0 -128 61l59 52q23 -37 65 -37q32 0 51.5 19t19.5 52q0 32 -19.5 51.5t-52.5 19.5h-42l69 137h-131v76h251l-75 -152q83 -36 83 -132q0 -66 -41.5 -106.5t-108.5 -40.5z" />
    <glyph glyph-name="acute" unicode="&#xb4;" horiz-adv-x="328" 
d="M55 545l85 165h133l-131 -165h-87z" />
    <glyph glyph-name="mu" unicode="&#xb5;" horiz-adv-x="593" 
d="M413 0v46q-50 -54 -140 -54q-50 0 -93 19v-195h-110v684h110v-291q0 -44 31 -78t83 -34q88 0 119 85v318h110v-500h-110z" />
    <glyph glyph-name="mu" unicode="&#x3bc;" horiz-adv-x="593" 
d="M413 0v46q-50 -54 -140 -54q-50 0 -93 19v-195h-110v684h110v-291q0 -44 31 -78t83 -34q88 0 119 85v318h110v-500h-110z" />
    <glyph glyph-name="paragraph" unicode="&#xb6;" horiz-adv-x="643" 
d="M363 612v-796h-96v444q-93 0 -159 66t-66 159t66 159t159 66h287v-894h-96v796h-95z" />
    <glyph glyph-name="periodcentered" unicode="&#xb7;" horiz-adv-x="283" 
d="M142 189q-36 0 -61.5 25.5t-25.5 61.5q0 35 25.5 60.5t61.5 25.5t61 -25.5t25 -60.5q0 -36 -25 -61.5t-61 -25.5z" />
    <glyph glyph-name="cedilla" unicode="&#xb8;" horiz-adv-x="267" 
d="M52 -132l58 132h82l-40 -132h-100z" />
    <glyph glyph-name="onesuperior" unicode="&#xb9;" horiz-adv-x="181" 
d="M50 410v350l81 83v-433h-81z" />
    <glyph glyph-name="ordmasculine" unicode="&#xba;" horiz-adv-x="352" 
d="M176 482q32 0 52.5 22t20.5 56t-20.5 56t-52.5 22t-52.5 -22t-20.5 -56t20.5 -56t52.5 -22zM176 405q-66 0 -111 45t-45 110t45 110t111 45q65 0 110.5 -45t45.5 -110t-45.5 -110t-110.5 -45z" />
    <glyph glyph-name="guillemotright" unicode="&#xbb;" horiz-adv-x="520" 
d="M492 250l-156 -228l-75 51l121 177l-121 177l75 51zM278 250l-156 -228l-75 51l121 177l-121 177l75 51z" />
    <glyph glyph-name="onequarter" unicode="&#xbc;" horiz-adv-x="751" 
d="M64 284v350l82 83v-433h-82zM31 0h90l500 710h-90zM596 0v101h-220l302 332v-260h43v-72h-43v-101h-82zM527 173h69v75z" />
    <glyph glyph-name="onehalf" unicode="&#xbd;" horiz-adv-x="798" 
d="M64 284v350l82 83v-433h-82zM31 0h90l500 710h-90zM431 0l139 166q-35 0 -72.5 36.5t-37.5 93.5q0 56 40.5 95.5t98.5 39.5q57 0 98 -39.5t41 -95.5q0 -52 -42 -102l-98 -118h139v-76h-306zM599 236q25 0 41 17.5t16 42.5t-16 42t-41 17q-26 0 -41.5 -17t-15.5 -42
t15.5 -42.5t41.5 -17.5z" />
    <glyph glyph-name="threequarters" unicode="&#xbe;" horiz-adv-x="866" 
d="M178 279q-83 0 -128 61l58 52q25 -37 66 -37q32 0 51.5 19t19.5 52q0 32 -19.5 51.5t-52.5 19.5h-42l68 137h-130v76h251l-76 -152q83 -35 83 -132q0 -66 -41 -106.5t-108 -40.5zM145 0h90l500 710h-90zM710 0v101h-220l302 332v-260h43v-72h-43v-101h-82zM641 173h69v75
z" />
    <glyph glyph-name="questiondown" unicode="&#xbf;" horiz-adv-x="480" 
d="M241 -194q-95 0 -160 63.5t-65 155.5t65 155.5t160 63.5h57v-102h-57q-51 0 -83 -33.5t-32 -83.5t32 -83.5t83 -33.5q52 0 83.5 33.5t31.5 83.5h110q0 -93 -64.5 -156t-160.5 -63zM195 351q-36 27 -36 70q0 36 25.5 61.5t61.5 25.5q35 0 60.5 -25.5t25.5 -61.5
q0 -44 -36 -70h-101z" />
    <glyph glyph-name="Agrave" unicode="&#xc0;" horiz-adv-x="714" 
d="M10 0l347 718l347 -718h-125l-74 158h-297l-74 -158h-124zM357 474l-99 -210h197zM323 768l-118 145h130l75 -145h-87z" />
    <glyph glyph-name="Aacute" unicode="&#xc1;" horiz-adv-x="714" 
d="M10 0l347 718l347 -718h-125l-74 158h-297l-74 -158h-124zM357 474l-99 -210h197zM316 768l74 145h130l-117 -145h-87z" />
    <glyph glyph-name="Acircumflex" unicode="&#xc2;" horiz-adv-x="714" 
d="M10 0l347 718l347 -718h-125l-74 158h-297l-74 -158h-124zM357 474l-99 -210h197zM219 760l-37 73l175 91l174 -91l-37 -73l-137 73z" />
    <glyph glyph-name="Atilde" unicode="&#xc3;" horiz-adv-x="714" 
d="M10 0l347 718l347 -718h-125l-74 158h-297l-74 -158h-124zM357 474l-99 -210h197zM175 777l4 23q8 47 40 75t70 28q31 0 72 -21.5t54 -21.5q35 0 46 43h78l-3 -22q-8 -47 -39 -75t-70 -28q-32 0 -73.5 21.5t-53.5 21.5q-36 0 -46 -44h-79z" />
    <glyph glyph-name="Adieresis" unicode="&#xc4;" horiz-adv-x="714" 
d="M10 0l347 718l347 -718h-125l-74 158h-297l-74 -158h-124zM357 474l-99 -210h197zM242 774q-27 0 -47.5 20t-20.5 48t20.5 48t47.5 20q28 0 48 -20t20 -48t-20 -48t-48 -20zM472 774q-28 0 -48 20t-20 48t20 48t48 20t48 -20t20 -48t-20 -48t-48 -20z" />
    <glyph glyph-name="Aring" unicode="&#xc5;" horiz-adv-x="714" 
d="M10 0l347 718l347 -718h-125l-74 158h-297l-74 -158h-124zM357 474l-99 -210h197zM357 807q20 0 33.5 13t13.5 34q0 20 -13.5 34t-33.5 14t-34 -14t-14 -34q0 -21 14 -34t34 -13zM357 750q-45 0 -76 30t-31 74t31 74t76 30q44 0 75.5 -30t31.5 -74t-31.5 -74t-75.5 -30z
" />
    <glyph glyph-name="AE" unicode="&#xc6;" horiz-adv-x="992" 
d="M10 0l289 598l-52 112h392l55 -114h-278l87 -180h228l54 -112h-228l92 -190h278l55 -114h-403l-74 158h-297l-74 -158h-124zM357 474l-99 -210h197z" />
    <glyph glyph-name="Ccedilla" unicode="&#xc7;" horiz-adv-x="681" 
d="M273 -132l57 131q-127 24 -209.5 123t-82.5 233q0 153 106 258t257 105q153 0 251 -103l-75 -82q-70 75 -176 75q-105 0 -175 -73t-70 -180t70 -180t175 -73q106 0 176 75l75 -82q-95 -100 -242 -103l-37 -124h-100z" />
    <glyph glyph-name="Egrave" unicode="&#xc8;" horiz-adv-x="544" 
d="M79 0v710h421v-114h-305v-180h245v-112h-245v-190h305v-114h-421zM276 768l-118 145h130l75 -145h-87z" />
    <glyph glyph-name="Eacute" unicode="&#xc9;" horiz-adv-x="544" 
d="M79 0v710h421v-114h-305v-180h245v-112h-245v-190h305v-114h-421zM216 768l74 145h130l-117 -145h-87z" />
    <glyph glyph-name="Ecircumflex" unicode="&#xca;" horiz-adv-x="544" 
d="M79 0v710h421v-114h-305v-180h245v-112h-245v-190h305v-114h-421zM152 760l-37 73l175 91l174 -91l-37 -73l-137 73z" />
    <glyph glyph-name="Edieresis" unicode="&#xcb;" horiz-adv-x="544" 
d="M79 0v710h421v-114h-305v-180h245v-112h-245v-190h305v-114h-421zM174 774q-27 0 -47.5 20t-20.5 48t20.5 48t47.5 20q28 0 48 -20t20 -48t-20 -48t-48 -20zM404 774q-28 0 -48 20t-20 48t20 48t48 20t48 -20t20 -48t-20 -48t-48 -20z" />
    <glyph glyph-name="Igrave" unicode="&#xcc;" horiz-adv-x="274" 
d="M79 0v710h116v-710h-116zM123 768l-118 145h130l75 -145h-87z" />
    <glyph glyph-name="Iacute" unicode="&#xcd;" horiz-adv-x="274" 
d="M79 0v710h116v-710h-116zM64 768l74 145h130l-117 -145h-87z" />
    <glyph glyph-name="Icircumflex" unicode="&#xce;" horiz-adv-x="274" 
d="M79 0v710h116v-710h-116zM-1 760l-37 73l175 91l174 -91l-37 -73l-137 73z" />
    <glyph glyph-name="Idieresis" unicode="&#xcf;" horiz-adv-x="274" 
d="M79 0v710h116v-710h-116zM22 774q-27 0 -47.5 20t-20.5 48t20.5 48t47.5 20q28 0 48 -20t20 -48t-20 -48t-48 -20zM252 774q-28 0 -48 20t-20 48t20 48t48 20t48 -20t20 -48t-20 -48t-48 -20z" />
    <glyph glyph-name="Eth" unicode="&#xd0;" horiz-adv-x="738" 
d="M-6 313v108h109v289h225q159 0 265.5 -102t106.5 -253t-106.5 -253t-265.5 -102h-225v313h-109zM219 108h109q113 0 183.5 70t70.5 177t-70.5 177t-183.5 70h-109v-181h130v-108h-130v-205z" />
    <glyph glyph-name="Ntilde" unicode="&#xd1;" horiz-adv-x="759" 
d="M680 -8l-485 461v-453h-116v718l485 -461v453h116v-718zM197 777l4 23q8 47 40 75t70 28q31 0 72 -21.5t54 -21.5q35 0 46 43h78l-3 -22q-8 -47 -39 -75t-70 -28q-32 0 -73.5 21.5t-53.5 21.5q-36 0 -46 -44h-79z" />
    <glyph glyph-name="Ograve" unicode="&#xd2;" 
d="M401 102q105 0 175 73t70 180t-70 180t-175 73t-175 -73t-70 -180t70 -180t175 -73zM401 -8q-151 0 -257 105t-106 258t106 258t257 105q152 0 257.5 -105t105.5 -258t-105.5 -258t-257.5 -105zM378 768l-118 145h130l75 -145h-87z" />
    <glyph glyph-name="Oacute" unicode="&#xd3;" 
d="M401 102q105 0 175 73t70 180t-70 180t-175 73t-175 -73t-70 -180t70 -180t175 -73zM401 -8q-151 0 -257 105t-106 258t106 258t257 105q152 0 257.5 -105t105.5 -258t-105.5 -258t-257.5 -105zM337 768l74 145h130l-117 -145h-87z" />
    <glyph glyph-name="Ocircumflex" unicode="&#xd4;" 
d="M401 102q105 0 175 73t70 180t-70 180t-175 73t-175 -73t-70 -180t70 -180t175 -73zM401 -8q-151 0 -257 105t-106 258t106 258t257 105q152 0 257.5 -105t105.5 -258t-105.5 -258t-257.5 -105zM263 760l-37 73l175 91l174 -91l-37 -73l-137 73z" />
    <glyph glyph-name="Otilde" unicode="&#xd5;" 
d="M401 102q105 0 175 73t70 180t-70 180t-175 73t-175 -73t-70 -180t70 -180t175 -73zM401 -8q-151 0 -257 105t-106 258t106 258t257 105q152 0 257.5 -105t105.5 -258t-105.5 -258t-257.5 -105zM219 777l4 23q8 47 40 75t70 28q31 0 72 -21.5t54 -21.5q35 0 46 43h78
l-3 -22q-8 -47 -39 -75t-70 -28q-32 0 -73.5 21.5t-53.5 21.5q-36 0 -46 -44h-79z" />
    <glyph glyph-name="Odieresis" unicode="&#xd6;" 
d="M401 102q105 0 175 73t70 180t-70 180t-175 73t-175 -73t-70 -180t70 -180t175 -73zM401 -8q-151 0 -257 105t-106 258t106 258t257 105q152 0 257.5 -105t105.5 -258t-105.5 -258t-257.5 -105zM286 774q-27 0 -47.5 20t-20.5 48t20.5 48t47.5 20q28 0 48 -20t20 -48
t-20 -48t-48 -20zM516 774q-28 0 -48 20t-20 48t20 48t48 20t48 -20t20 -48t-20 -48t-48 -20z" />
    <glyph glyph-name="multiply" unicode="&#xd7;" horiz-adv-x="572" 
d="M152 69l-63 62l135 134l-135 135l63 62l134 -135l135 135l62 -62l-135 -135l135 -134l-62 -62l-135 134z" />
    <glyph glyph-name="Oslash" unicode="&#xd8;" 
d="M119 -17l-67 66l68 73q-82 101 -82 233q0 153 106 258t257 105q118 0 211 -66l72 77l68 -65l-71 -76q83 -101 83 -233q0 -153 -105.5 -258t-257.5 -105q-118 0 -212 66zM401 102q105 0 175 73t70 180q0 83 -44 147l-336 -361q59 -39 135 -39zM156 355q0 -82 43 -147
l336 360q-61 40 -134 40q-105 0 -175 -73t-70 -180z" />
    <glyph glyph-name="Ugrave" unicode="&#xd9;" horiz-adv-x="711" 
d="M356 -8q-127 0 -206.5 77t-79.5 207v434h116v-437q0 -81 46.5 -126t123.5 -45t123 45t46 126v437h116v-434q0 -130 -79 -207t-206 -77zM331 768l-118 145h130l75 -145h-87z" />
    <glyph glyph-name="Uacute" unicode="&#xda;" horiz-adv-x="711" 
d="M356 -8q-127 0 -206.5 77t-79.5 207v434h116v-437q0 -81 46.5 -126t123.5 -45t123 45t46 126v437h116v-434q0 -130 -79 -207t-206 -77zM292 768l74 145h130l-117 -145h-87z" />
    <glyph glyph-name="Ucircumflex" unicode="&#xdb;" horiz-adv-x="711" 
d="M356 -8q-127 0 -206.5 77t-79.5 207v434h116v-437q0 -81 46.5 -126t123.5 -45t123 45t46 126v437h116v-434q0 -130 -79 -207t-206 -77zM217 760l-37 73l175 91l174 -91l-37 -73l-137 73z" />
    <glyph glyph-name="Udieresis" unicode="&#xdc;" horiz-adv-x="711" 
d="M356 -8q-127 0 -206.5 77t-79.5 207v434h116v-437q0 -81 46.5 -126t123.5 -45t123 45t46 126v437h116v-434q0 -130 -79 -207t-206 -77zM240 774q-27 0 -47.5 20t-20.5 48t20.5 48t47.5 20q28 0 48 -20t20 -48t-20 -48t-48 -20zM470 774q-28 0 -48 20t-20 48t20 48t48 20
t48 -20t20 -48t-20 -48t-48 -20z" />
    <glyph glyph-name="Yacute" unicode="&#xdd;" horiz-adv-x="641" 
d="M262 0v299l-261 411h136l183 -293l183 293h137l-262 -411v-299h-116zM268 768l74 145h130l-117 -145h-87z" />
    <glyph glyph-name="Thorn" unicode="&#xde;" horiz-adv-x="556" 
d="M79 0v710h116v-128h92q111 0 180 -63.5t69 -162.5q0 -100 -69 -163t-180 -63h-92v-130h-116zM195 238h91q63 0 99 32.5t36 85.5t-36 85t-99 32h-91v-235z" />
    <glyph glyph-name="germandbls" unicode="&#xdf;" horiz-adv-x="535" 
d="M65 0v558q0 71 40.5 111.5t112.5 40.5h62v-101h-34q-41 0 -56 -17t-15 -57v-35h341l-143 -234q65 -23 101.5 -79t36.5 -130q0 -105 -73 -173t-186 -68h-3v109h4q66 0 107 36.5t41 95.5q0 60 -39 98t-111 38h-34l126 209h-168v-402h-110z" />
    <glyph glyph-name="agrave" unicode="&#xe0;" horiz-adv-x="611" 
d="M431 0v36q-55 -44 -134 -44q-111 0 -184 74t-73 184t73 184t184 74q78 0 134 -45v37h110v-500h-110zM298 97q41 0 77 18.5t56 49.5v170q-20 31 -56 49.5t-77 18.5q-63 0 -104 -43.5t-41 -109.5t41 -109.5t104 -43.5zM285 545l-132 165h133l84 -165h-85z" />
    <glyph glyph-name="aacute" unicode="&#xe1;" horiz-adv-x="611" 
d="M431 0v36q-55 -44 -134 -44q-111 0 -184 74t-73 184t73 184t184 74q78 0 134 -45v37h110v-500h-110zM298 97q41 0 77 18.5t56 49.5v170q-20 31 -56 49.5t-77 18.5q-63 0 -104 -43.5t-41 -109.5t41 -109.5t104 -43.5zM240 545l85 165h133l-131 -165h-87z" />
    <glyph glyph-name="acircumflex" unicode="&#xe2;" horiz-adv-x="611" 
d="M431 0v36q-55 -44 -134 -44q-111 0 -184 74t-73 184t73 184t184 74q78 0 134 -45v37h110v-500h-110zM298 97q41 0 77 18.5t56 49.5v170q-20 31 -56 49.5t-77 18.5q-63 0 -104 -43.5t-41 -109.5t41 -109.5t104 -43.5zM187 543l-42 70l173 105l173 -105l-40 -70l-133 81z
" />
    <glyph glyph-name="atilde" unicode="&#xe3;" horiz-adv-x="611" 
d="M431 0v36q-55 -44 -134 -44q-111 0 -184 74t-73 184t73 184t184 74q78 0 134 -45v37h110v-500h-110zM298 97q41 0 77 18.5t56 49.5v170q-20 31 -56 49.5t-77 18.5q-63 0 -104 -43.5t-41 -109.5t41 -109.5t104 -43.5zM144 562l4 22q8 47 39 74.5t69 27.5q31 0 72 -21
t54 -21q35 0 46 43h77l-3 -22q-8 -46 -39 -74t-69 -28q-32 0 -73.5 21t-53.5 21q-36 0 -46 -43h-77z" />
    <glyph glyph-name="adieresis" unicode="&#xe4;" horiz-adv-x="611" 
d="M431 0v36q-55 -44 -134 -44q-111 0 -184 74t-73 184t73 184t184 74q78 0 134 -45v37h110v-500h-110zM298 97q41 0 77 18.5t56 49.5v170q-20 31 -56 49.5t-77 18.5q-63 0 -104 -43.5t-41 -109.5t41 -109.5t104 -43.5zM206 562q-28 0 -48 19.5t-20 47.5t20 48t48 20t48 -20
t20 -48t-20 -47.5t-48 -19.5zM436 562q-28 0 -47.5 19.5t-19.5 47.5t19.5 48t47.5 20t47.5 -20t19.5 -48t-19.5 -47.5t-47.5 -19.5z" />
    <glyph glyph-name="aring" unicode="&#xe5;" horiz-adv-x="611" 
d="M431 0v36q-55 -44 -134 -44q-111 0 -184 74t-73 184t73 184t184 74q78 0 134 -45v37h110v-500h-110zM298 97q41 0 77 18.5t56 49.5v170q-20 31 -56 49.5t-77 18.5q-63 0 -104 -43.5t-41 -109.5t41 -109.5t104 -43.5zM298 608q20 0 33.5 13.5t13.5 33.5t-13.5 33.5
t-33.5 13.5t-34 -13.5t-14 -33.5t14 -33.5t34 -13.5zM298 551q-45 0 -76 30t-31 74q0 43 31.5 73.5t75.5 30.5t75.5 -30.5t31.5 -73.5t-31.5 -73.5t-75.5 -30.5z" />
    <glyph glyph-name="ae" unicode="&#xe6;" horiz-adv-x="908" 
d="M631 -8q-123 0 -198 88q-82 -88 -203 -88q-91 0 -144.5 46t-53.5 125q0 71 55 112.5t144 41.5q76 0 139 -33v21q-5 100 -130 100q-74 0 -131 -41l-42 92q82 52 182 52q61 0 111.5 -21t74.5 -65q75 86 194 86q105 0 169.5 -69t69.5 -189v-30h-381q8 -53 48 -86t96 -33
q79 0 130 57l74 -79q-34 -39 -87 -63t-117 -24zM237 92q94 0 133 63v43q-51 36 -127 36q-45 0 -74 -18.5t-29 -54.5t28 -52.5t69 -16.5zM621 407q-45 0 -81.5 -27.5t-49.5 -74.5h257q-10 50 -43 76t-83 26z" />
    <glyph glyph-name="ccedilla" unicode="&#xe7;" horiz-adv-x="524" 
d="M184 -132l57 130q-90 18 -145.5 87.5t-55.5 164.5q0 110 73.5 184t184.5 74q115 0 191 -83l-75 -77q-46 53 -116 53q-63 0 -104 -42.5t-41 -108.5t41 -108.5t104 -42.5q70 0 116 53l75 -77q-69 -73 -167 -82l-38 -125h-100z" />
    <glyph glyph-name="egrave" unicode="&#xe8;" horiz-adv-x="574" 
d="M298 -8q-111 0 -184.5 74t-73.5 184t73.5 184t182.5 74q105 0 169.5 -69t69.5 -189v-30h-381q8 -53 48 -86t96 -33q79 0 130 57l74 -79q-34 -39 -87 -63t-117 -24zM288 407q-45 0 -81.5 -27.5t-49.5 -74.5h257q-20 102 -126 102zM276 545l-132 165h133l84 -165h-85z" />
    <glyph glyph-name="eacute" unicode="&#xe9;" horiz-adv-x="574" 
d="M298 -8q-111 0 -184.5 74t-73.5 184t73.5 184t182.5 74q105 0 169.5 -69t69.5 -189v-30h-381q8 -53 48 -86t96 -33q79 0 130 57l74 -79q-34 -39 -87 -63t-117 -24zM288 407q-45 0 -81.5 -27.5t-49.5 -74.5h257q-20 102 -126 102zM236 545l85 165h133l-131 -165h-87z" />
    <glyph glyph-name="ecircumflex" unicode="&#xea;" horiz-adv-x="574" 
d="M298 -8q-111 0 -184.5 74t-73.5 184t73.5 184t182.5 74q105 0 169.5 -69t69.5 -189v-30h-381q8 -53 48 -86t96 -33q79 0 130 57l74 -79q-34 -39 -87 -63t-117 -24zM288 407q-45 0 -81.5 -27.5t-49.5 -74.5h257q-20 102 -126 102zM165 543l-42 70l173 105l173 -105
l-40 -70l-133 81z" />
    <glyph glyph-name="edieresis" unicode="&#xeb;" horiz-adv-x="574" 
d="M298 -8q-111 0 -184.5 74t-73.5 184t73.5 184t182.5 74q105 0 169.5 -69t69.5 -189v-30h-381q8 -53 48 -86t96 -33q79 0 130 57l74 -79q-34 -39 -87 -63t-117 -24zM288 407q-45 0 -81.5 -27.5t-49.5 -74.5h257q-20 102 -126 102zM180 562q-28 0 -48 19.5t-20 47.5t20 48
t48 20t48 -20t20 -48t-20 -47.5t-48 -19.5zM410 562q-28 0 -47.5 19.5t-19.5 47.5t19.5 48t47.5 20t47.5 -20t19.5 -48t-19.5 -47.5t-47.5 -19.5z" />
    <glyph glyph-name="igrave" unicode="&#xec;" horiz-adv-x="250" 
d="M70 0v500h110v-500h-110zM114 545l-132 165h133l84 -165h-85z" />
    <glyph glyph-name="iacute" unicode="&#xed;" horiz-adv-x="250" 
d="M70 0v500h110v-500h-110zM51 545l85 165h133l-131 -165h-87z" />
    <glyph glyph-name="icircumflex" unicode="&#xee;" horiz-adv-x="250" 
d="M70 0v500h110v-500h-110zM-6 543l-42 70l173 105l173 -105l-40 -70l-133 81z" />
    <glyph glyph-name="idieresis" unicode="&#xef;" horiz-adv-x="250" 
d="M70 0v500h110v-500h-110zM9 562q-28 0 -48 19.5t-20 47.5t20 48t48 20t48 -20t20 -48t-20 -47.5t-48 -19.5zM239 562q-28 0 -47.5 19.5t-19.5 47.5t19.5 48t47.5 20t47.5 -20t19.5 -48t-19.5 -47.5t-47.5 -19.5z" />
    <glyph glyph-name="eth" unicode="&#xf0;" horiz-adv-x="598" 
d="M153 553v78h83l-53 79h122l53 -79h117v-78h-65l100 -150q48 -71 48 -153q0 -110 -74 -184t-185 -74t-185 74t-74 184t73.5 184t178.5 74q16 0 28 -3l-32 48h-135zM299 97q63 0 104.5 43.5t41.5 109.5t-41.5 109.5t-104.5 43.5q-64 0 -105 -43.5t-41 -109.5t41 -109.5
t105 -43.5z" />
    <glyph glyph-name="ntilde" unicode="&#xf1;" horiz-adv-x="583" 
d="M70 0v500h110v-47q51 55 140 55q93 0 148 -59t55 -156v-293h-110v291q0 44 -31 78t-83 34q-89 0 -119 -88v-315h-110zM116 562l4 22q8 47 39 74.5t69 27.5q31 0 72 -21t54 -21q35 0 46 43h77l-3 -22q-8 -46 -39 -74t-69 -28q-32 0 -73.5 21t-53.5 21q-36 0 -46 -43h-77z
" />
    <glyph glyph-name="ograve" unicode="&#xf2;" horiz-adv-x="598" 
d="M299 97q63 0 104.5 43.5t41.5 109.5t-41.5 109.5t-104.5 43.5q-64 0 -105 -43.5t-41 -109.5t41 -109.5t105 -43.5zM299 -8q-111 0 -185 74t-74 184t74 184t185 74t185 -74t74 -184t-74 -184t-185 -74zM287 545l-132 165h133l84 -165h-85z" />
    <glyph glyph-name="oacute" unicode="&#xf3;" horiz-adv-x="598" 
d="M299 97q63 0 104.5 43.5t41.5 109.5t-41.5 109.5t-104.5 43.5q-64 0 -105 -43.5t-41 -109.5t41 -109.5t105 -43.5zM299 -8q-111 0 -185 74t-74 184t74 184t185 74t185 -74t74 -184t-74 -184t-185 -74zM238 545l85 165h133l-131 -165h-87z" />
    <glyph glyph-name="ocircumflex" unicode="&#xf4;" horiz-adv-x="598" 
d="M299 97q63 0 104.5 43.5t41.5 109.5t-41.5 109.5t-104.5 43.5q-64 0 -105 -43.5t-41 -109.5t41 -109.5t105 -43.5zM299 -8q-111 0 -185 74t-74 184t74 184t185 74t185 -74t74 -184t-74 -184t-185 -74zM168 543l-42 70l173 105l173 -105l-40 -70l-133 81z" />
    <glyph glyph-name="otilde" unicode="&#xf5;" horiz-adv-x="598" 
d="M299 97q63 0 104.5 43.5t41.5 109.5t-41.5 109.5t-104.5 43.5q-64 0 -105 -43.5t-41 -109.5t41 -109.5t105 -43.5zM299 -8q-111 0 -185 74t-74 184t74 184t185 74t185 -74t74 -184t-74 -184t-185 -74zM119 562l4 22q8 47 39 74.5t69 27.5q31 0 72 -21t54 -21q35 0 46 43
h77l-3 -22q-8 -46 -39 -74t-69 -28q-32 0 -73.5 21t-53.5 21q-36 0 -46 -43h-77z" />
    <glyph glyph-name="odieresis" unicode="&#xf6;" horiz-adv-x="598" 
d="M299 97q63 0 104.5 43.5t41.5 109.5t-41.5 109.5t-104.5 43.5q-64 0 -105 -43.5t-41 -109.5t41 -109.5t105 -43.5zM299 -8q-111 0 -185 74t-74 184t74 184t185 74t185 -74t74 -184t-74 -184t-185 -74zM184 562q-28 0 -48 19.5t-20 47.5t20 48t48 20t48 -20t20 -48
t-20 -47.5t-48 -19.5zM414 562q-28 0 -47.5 19.5t-19.5 47.5t19.5 48t47.5 20t47.5 -20t19.5 -48t-19.5 -47.5t-47.5 -19.5z" />
    <glyph glyph-name="divide" unicode="&#xf7;" horiz-adv-x="615" 
d="M307 46q-29 0 -50 21t-21 50q0 30 21 50.5t50 20.5q30 0 51 -20.5t21 -50.5q0 -29 -21 -50t-51 -21zM89 233v88h437v-88h-437zM307 365q-29 0 -50 21t-21 51q0 29 21 50t50 21q30 0 51 -21t21 -50q0 -30 -21 -51t-51 -21z" />
    <glyph glyph-name="oslash" unicode="&#xf8;" horiz-adv-x="600" 
d="M91 -13l-51 52l52 53q-51 69 -51 158q0 110 74 184t185 74q89 0 156 -50l53 54l51 -51l-53 -53q52 -68 52 -158q0 -110 -74 -184t-185 -74q-88 0 -156 49zM154 250q0 -44 18 -78l207 208q-38 23 -79 23q-64 0 -105 -43.5t-41 -109.5zM300 97q63 0 104.5 43.5t41.5 109.5
q0 41 -19 77l-206 -208q35 -22 79 -22z" />
    <glyph glyph-name="ugrave" unicode="&#xf9;" horiz-adv-x="580" 
d="M400 0v46q-50 -54 -140 -54q-93 0 -148 59t-55 156v293h110v-291q0 -44 31 -78t83 -34q88 0 119 85v318h110v-500h-110zM260 545l-132 165h133l84 -165h-85z" />
    <glyph glyph-name="uacute" unicode="&#xfa;" horiz-adv-x="580" 
d="M400 0v46q-50 -54 -140 -54q-93 0 -148 59t-55 156v293h110v-291q0 -44 31 -78t83 -34q88 0 119 85v318h110v-500h-110zM218 545l85 165h133l-131 -165h-87z" />
    <glyph glyph-name="ucircumflex" unicode="&#xfb;" horiz-adv-x="580" 
d="M400 0v46q-50 -54 -140 -54q-93 0 -148 59t-55 156v293h110v-291q0 -44 31 -78t83 -34q88 0 119 85v318h110v-500h-110zM151 543l-42 70l173 105l173 -105l-40 -70l-133 81z" />
    <glyph glyph-name="udieresis" unicode="&#xfc;" horiz-adv-x="580" 
d="M400 0v46q-50 -54 -140 -54q-93 0 -148 59t-55 156v293h110v-291q0 -44 31 -78t83 -34q88 0 119 85v318h110v-500h-110zM166 562q-28 0 -48 19.5t-20 47.5t20 48t48 20t48 -20t20 -48t-20 -47.5t-48 -19.5zM396 562q-28 0 -47.5 19.5t-19.5 47.5t19.5 48t47.5 20
t47.5 -20t19.5 -48t-19.5 -47.5t-47.5 -19.5z" />
    <glyph glyph-name="yacute" unicode="&#xfd;" horiz-adv-x="509" 
d="M107 -184l90 210l-197 474h118l136 -345l137 345h118l-286 -684h-116zM201 545l85 165h133l-131 -165h-87z" />
    <glyph glyph-name="thorn" unicode="&#xfe;" horiz-adv-x="611" 
d="M70 -184v894h110v-247q55 45 134 45q111 0 184 -74t73 -184t-73 -184t-184 -74q-81 0 -134 44v-220h-110zM313 403q-42 0 -77.5 -18.5t-55.5 -49.5v-170q20 -31 55.5 -49.5t77.5 -18.5q63 0 104 43.5t41 109.5t-41 109.5t-104 43.5z" />
    <glyph glyph-name="ydieresis" unicode="&#xff;" horiz-adv-x="509" 
d="M107 -184l90 210l-197 474h118l136 -345l137 345h118l-286 -684h-116zM138 562q-28 0 -48 19.5t-20 47.5t20 48t48 20t48 -20t20 -48t-20 -47.5t-48 -19.5zM368 562q-28 0 -47.5 19.5t-19.5 47.5t19.5 48t47.5 20t47.5 -20t19.5 -48t-19.5 -47.5t-47.5 -19.5z" />
    <glyph glyph-name="Amacron" unicode="&#x100;" horiz-adv-x="714" 
d="M10 0l347 718l347 -718h-125l-74 158h-297l-74 -158h-124zM357 474l-99 -210h197zM204 799v76h306v-76h-306z" />
    <glyph glyph-name="amacron" unicode="&#x101;" horiz-adv-x="611" 
d="M431 0v36q-55 -44 -134 -44q-111 0 -184 74t-73 184t73 184t184 74q78 0 134 -45v37h110v-500h-110zM298 97q41 0 77 18.5t56 49.5v170q-20 31 -56 49.5t-77 18.5q-63 0 -104 -43.5t-41 -109.5t41 -109.5t104 -43.5zM167 601v76h306v-76h-306z" />
    <glyph glyph-name="Abreve" unicode="&#x102;" horiz-adv-x="714" 
d="M10 0l347 718l347 -718h-125l-74 158h-297l-74 -158h-124zM357 474l-99 -210h197zM356 763q-71 0 -117.5 45t-48.5 110h71q2 -36 28.5 -61t67.5 -25q40 0 67 25.5t28 60.5h72q-2 -66 -49 -110.5t-119 -44.5z" />
    <glyph glyph-name="abreve" unicode="&#x103;" horiz-adv-x="611" 
d="M431 0v36q-55 -44 -134 -44q-111 0 -184 74t-73 184t73 184t184 74q78 0 134 -45v37h110v-500h-110zM298 97q41 0 77 18.5t56 49.5v170q-20 31 -56 49.5t-77 18.5q-63 0 -104 -43.5t-41 -109.5t41 -109.5t104 -43.5zM308 556q-71 0 -117.5 44.5t-48.5 109.5h71
q2 -36 28.5 -61t67.5 -25q40 0 67 25.5t28 60.5h72q-2 -65 -49 -109.5t-119 -44.5z" />
    <glyph glyph-name="Aogonek" unicode="&#x104;" horiz-adv-x="714" 
d="M630 -189q-47 0 -79 27.5t-32 70.5q0 27 18 52t46 39h-4l-74 158h-297l-74 -158h-124l347 718l347 -718h-2q-77 -35 -77 -72q0 -17 11.5 -27.5t31.5 -10.5q18 0 36 9v-69q-32 -19 -74 -19zM357 474l-99 -210h197z" />
    <glyph glyph-name="aogonek" unicode="&#x105;" horiz-adv-x="612" 
d="M473 -182q-44 0 -75 26.5t-31 68.5q0 54 64 87v36q-55 -44 -134 -44q-111 0 -184 74t-73 184t73 184t184 74q78 0 134 -45v37h110v-500q-72 -33 -72 -68q0 -15 11 -25t31 -10q15 0 31 9v-69q-26 -19 -69 -19zM298 97q41 0 77 18.5t56 49.5v170q-20 31 -56 49.5t-77 18.5
q-63 0 -104 -43.5t-41 -109.5t41 -109.5t104 -43.5z" />
    <glyph glyph-name="Cacute" unicode="&#x106;" horiz-adv-x="681" 
d="M401 -8q-151 0 -257 105t-106 258t106 258t257 105q153 0 251 -103l-75 -82q-70 75 -176 75q-105 0 -175 -73t-70 -180t70 -180t175 -73q106 0 176 75l75 -82q-98 -103 -251 -103zM329 768l74 145h130l-117 -145h-87z" />
    <glyph glyph-name="cacute" unicode="&#x107;" horiz-adv-x="524" 
d="M298 -8q-111 0 -184.5 74t-73.5 184t73.5 184t184.5 74q115 0 191 -83l-75 -77q-46 53 -116 53q-63 0 -104 -42.5t-41 -108.5t41 -108.5t104 -42.5q70 0 116 53l75 -77q-76 -83 -191 -83zM238 545l85 165h133l-131 -165h-87z" />
    <glyph glyph-name="Ccircumflex" unicode="&#x108;" horiz-adv-x="681" 
d="M401 -8q-151 0 -257 105t-106 258t106 258t257 105q153 0 251 -103l-75 -82q-70 75 -176 75q-105 0 -175 -73t-70 -180t70 -180t175 -73q106 0 176 75l75 -82q-98 -103 -251 -103zM264 760l-37 73l175 91l174 -91l-37 -73l-137 73z" />
    <glyph glyph-name="ccircumflex" unicode="&#x109;" horiz-adv-x="524" 
d="M298 -8q-111 0 -184.5 74t-73.5 184t73.5 184t184.5 74q115 0 191 -83l-75 -77q-46 53 -116 53q-63 0 -104 -42.5t-41 -108.5t41 -108.5t104 -42.5q70 0 116 53l75 -77q-76 -83 -191 -83zM168 543l-42 70l173 105l173 -105l-40 -70l-133 81z" />
    <glyph glyph-name="Cdotaccent" unicode="&#x10a;" horiz-adv-x="681" 
d="M401 -8q-151 0 -257 105t-106 258t106 258t257 105q153 0 251 -103l-75 -82q-70 75 -176 75q-105 0 -175 -73t-70 -180t70 -180t175 -73q106 0 176 75l75 -82q-98 -103 -251 -103zM401 770q-29 0 -50.5 21t-21.5 51t21.5 51t50.5 21q30 0 51 -21t21 -51t-21 -51t-51 -21z
" />
    <glyph glyph-name="cdotaccent" unicode="&#x10b;" horiz-adv-x="524" 
d="M298 -8q-111 0 -184.5 74t-73.5 184t73.5 184t184.5 74q115 0 191 -83l-75 -77q-46 53 -116 53q-63 0 -104 -42.5t-41 -108.5t41 -108.5t104 -42.5q70 0 116 53l75 -77q-76 -83 -191 -83zM297 558q-29 0 -50 20.5t-21 50.5t21 50.5t50 20.5q30 0 51 -20.5t21 -50.5
t-21 -50.5t-51 -20.5z" />
    <glyph glyph-name="Ccaron" unicode="&#x10c;" horiz-adv-x="681" 
d="M401 -8q-151 0 -257 105t-106 258t106 258t257 105q153 0 251 -103l-75 -82q-70 75 -176 75q-105 0 -175 -73t-70 -180t70 -180t175 -73q106 0 176 75l75 -82q-98 -103 -251 -103zM401 759l-174 92l37 72l137 -73l138 73l37 -73z" />
    <glyph glyph-name="ccaron" unicode="&#x10d;" horiz-adv-x="524" 
d="M298 -8q-111 0 -184.5 74t-73.5 184t73.5 184t184.5 74q115 0 191 -83l-75 -77q-46 53 -116 53q-63 0 -104 -42.5t-41 -108.5t41 -108.5t104 -42.5q70 0 116 53l75 -77q-76 -83 -191 -83zM472 658l-173 -105l-173 105l42 70l131 -81l133 81z" />
    <glyph glyph-name="Dcaron" unicode="&#x10e;" horiz-adv-x="714" 
d="M195 108h109q113 0 183.5 70t70.5 177t-70.5 177t-183.5 70h-109v-494zM79 0v710h225q159 0 265.5 -102t106.5 -253t-106.5 -253t-265.5 -102h-225zM307 759l-174 92l37 72l137 -73l138 73l37 -73z" />
    <glyph glyph-name="dcaron" unicode="&#x10f;" horiz-adv-x="611" 
d="M431 0v36q-55 -44 -134 -44q-111 0 -184 74t-73 184t73 184t184 74q78 0 134 -45v247h110v-710h-110zM298 97q41 0 77 18.5t56 49.5v170q-20 31 -56 49.5t-77 18.5q-63 0 -104 -43.5t-41 -109.5t41 -109.5t104 -43.5zM586 547l23 163h109l-57 -163h-75z" />
    <glyph glyph-name="Dcroat" unicode="&#x110;" horiz-adv-x="738" 
d="M-6 313v108h109v289h225q159 0 265.5 -102t106.5 -253t-106.5 -253t-265.5 -102h-225v313h-109zM219 108h109q113 0 183.5 70t70.5 177t-70.5 177t-183.5 70h-109v-181h130v-108h-130v-205z" />
    <glyph glyph-name="dcroat" unicode="&#x111;" horiz-adv-x="611" 
d="M275 577v73h156v60h110v-60h66v-73h-66v-577h-110v36q-55 -44 -134 -44q-111 0 -184 74t-73 184t73 184t184 74q78 0 134 -45v114h-156zM298 97q41 0 77 18.5t56 49.5v170q-20 31 -56 49.5t-77 18.5q-63 0 -104 -43.5t-41 -109.5t41 -109.5t104 -43.5z" />
    <glyph glyph-name="Emacron" unicode="&#x112;" horiz-adv-x="544" 
d="M79 0v710h421v-114h-305v-180h245v-112h-245v-190h305v-114h-421zM136 799v76h306v-76h-306z" />
    <glyph glyph-name="emacron" unicode="&#x113;" horiz-adv-x="574" 
d="M298 -8q-111 0 -184.5 74t-73.5 184t73.5 184t182.5 74q105 0 169.5 -69t69.5 -189v-30h-381q8 -53 48 -86t96 -33q79 0 130 57l74 -79q-34 -39 -87 -63t-117 -24zM288 407q-45 0 -81.5 -27.5t-49.5 -74.5h257q-20 102 -126 102zM144 601v76h306v-76h-306z" />
    <glyph glyph-name="Ebreve" unicode="&#x114;" horiz-adv-x="544" 
d="M79 0v710h421v-114h-305v-180h245v-112h-245v-190h305v-114h-421zM288 763q-71 0 -117.5 45t-48.5 110h71q2 -36 28.5 -61t67.5 -25q40 0 67 25.5t28 60.5h72q-2 -66 -49 -110.5t-119 -44.5z" />
    <glyph glyph-name="ebreve" unicode="&#x115;" horiz-adv-x="574" 
d="M298 -8q-111 0 -184.5 74t-73.5 184t73.5 184t182.5 74q105 0 169.5 -69t69.5 -189v-30h-381q8 -53 48 -86t96 -33q79 0 130 57l74 -79q-34 -39 -87 -63t-117 -24zM288 407q-45 0 -81.5 -27.5t-49.5 -74.5h257q-20 102 -126 102zM296 556q-71 0 -117.5 44.5t-48.5 109.5
h71q2 -36 28.5 -61t67.5 -25q40 0 67 25.5t28 60.5h72q-2 -65 -49 -109.5t-119 -44.5z" />
    <glyph glyph-name="Edotaccent" unicode="&#x116;" horiz-adv-x="544" 
d="M79 0v710h421v-114h-305v-180h245v-112h-245v-190h305v-114h-421zM290 770q-29 0 -50.5 21t-21.5 51t21.5 51t50.5 21q30 0 51 -21t21 -51t-21 -51t-51 -21z" />
    <glyph glyph-name="edotaccent" unicode="&#x117;" horiz-adv-x="574" 
d="M298 -8q-111 0 -184.5 74t-73.5 184t73.5 184t182.5 74q105 0 169.5 -69t69.5 -189v-30h-381q8 -53 48 -86t96 -33q79 0 130 57l74 -79q-34 -39 -87 -63t-117 -24zM288 407q-45 0 -81.5 -27.5t-49.5 -74.5h257q-20 102 -126 102zM295 558q-29 0 -50 20.5t-21 50.5
t21 50.5t50 20.5q30 0 51 -20.5t21 -50.5t-21 -50.5t-51 -20.5z" />
    <glyph glyph-name="Eogonek" unicode="&#x118;" horiz-adv-x="544" 
d="M79 0v710h421v-114h-305v-180h245v-112h-245v-190h305v-114h-2q-77 -35 -77 -72q0 -17 11.5 -27.5t31.5 -10.5q18 0 36 9v-69q-32 -19 -74 -19q-47 0 -79 27.5t-32 70.5q0 27 18 52t46 39h-300z" />
    <glyph glyph-name="eogonek" unicode="&#x119;" horiz-adv-x="574" 
d="M299 -182q-44 0 -75 26.5t-31 68.5q0 51 57 83q-93 16 -151.5 86.5t-58.5 167.5q0 110 73.5 184t182.5 74q105 0 169.5 -69t69.5 -189v-30h-381q8 -53 48 -86t96 -33q79 0 130 57l74 -79q-50 -60 -135 -79q-72 -33 -72 -68q0 -15 11 -25t31 -10q15 0 31 9v-69
q-26 -19 -69 -19zM288 407q-45 0 -81.5 -27.5t-49.5 -74.5h257q-20 102 -126 102z" />
    <glyph glyph-name="Ecaron" unicode="&#x11a;" horiz-adv-x="544" 
d="M79 0v710h421v-114h-305v-180h245v-112h-245v-190h305v-114h-421zM289 759l-174 92l37 72l137 -73l138 73l37 -73z" />
    <glyph glyph-name="ecaron" unicode="&#x11b;" horiz-adv-x="574" 
d="M298 -8q-111 0 -184.5 74t-73.5 184t73.5 184t182.5 74q105 0 169.5 -69t69.5 -189v-30h-381q8 -53 48 -86t96 -33q79 0 130 57l74 -79q-34 -39 -87 -63t-117 -24zM288 407q-45 0 -81.5 -27.5t-49.5 -74.5h257q-20 102 -126 102zM469 658l-173 -105l-173 105l42 70
l131 -81l133 81z" />
    <glyph glyph-name="Gcircumflex" unicode="&#x11c;" horiz-adv-x="730" 
d="M401 -8q-151 0 -257 105t-106 258t106 258t257 105q161 0 259 -103l-75 -82q-33 35 -82 55t-102 20q-105 0 -175 -73t-70 -180t70 -180t175 -73q84 0 145 38v164h-195l51 112h260v-333q-105 -91 -261 -91zM263 760l-37 73l175 91l174 -91l-37 -73l-137 73z" />
    <glyph glyph-name="gcircumflex" unicode="&#x11d;" horiz-adv-x="603" 
d="M289 -194q-122 0 -215 60l58 96q69 -51 157 -51q64 0 106 24.5t42 80.5q0 29 -11 51q-57 -47 -137 -47q-110 0 -179.5 69t-69.5 175t69.5 175t179.5 69q77 0 133 -45v37h110v-399q20 -50 20 -99q0 -99 -77 -147.5t-186 -48.5zM290 125q41 0 76.5 18t55.5 49v144
q-20 31 -55.5 49t-76.5 18q-58 0 -97.5 -39t-39.5 -100t39.5 -100t97.5 -39zM165 543l-42 70l173 105l173 -105l-40 -70l-133 81z" />
    <glyph glyph-name="Gbreve" unicode="&#x11e;" horiz-adv-x="730" 
d="M401 -8q-151 0 -257 105t-106 258t106 258t257 105q161 0 259 -103l-75 -82q-33 35 -82 55t-102 20q-105 0 -175 -73t-70 -180t70 -180t175 -73q84 0 145 38v164h-195l51 112h260v-333q-105 -91 -261 -91zM400 763q-71 0 -117.5 45t-48.5 110h71q2 -36 28.5 -61t67.5 -25
q40 0 67 25.5t28 60.5h72q-2 -66 -49 -110.5t-119 -44.5z" />
    <glyph glyph-name="gbreve" unicode="&#x11f;" horiz-adv-x="603" 
d="M289 -194q-122 0 -215 60l58 96q69 -51 157 -51q64 0 106 24.5t42 80.5q0 29 -11 51q-57 -47 -137 -47q-110 0 -179.5 69t-69.5 175t69.5 175t179.5 69q77 0 133 -45v37h110v-399q20 -50 20 -99q0 -99 -77 -147.5t-186 -48.5zM290 125q41 0 76.5 18t55.5 49v144
q-20 31 -55.5 49t-76.5 18q-58 0 -97.5 -39t-39.5 -100t39.5 -100t97.5 -39zM295 556q-71 0 -117.5 44.5t-48.5 109.5h71q2 -36 28.5 -61t67.5 -25q40 0 67 25.5t28 60.5h72q-2 -65 -49 -109.5t-119 -44.5z" />
    <glyph glyph-name="Gdotaccent" unicode="&#x120;" horiz-adv-x="730" 
d="M401 -8q-151 0 -257 105t-106 258t106 258t257 105q161 0 259 -103l-75 -82q-33 35 -82 55t-102 20q-105 0 -175 -73t-70 -180t70 -180t175 -73q84 0 145 38v164h-195l51 112h260v-333q-105 -91 -261 -91zM401 770q-29 0 -50.5 21t-21.5 51t21.5 51t50.5 21q30 0 51 -21
t21 -51t-21 -51t-51 -21z" />
    <glyph glyph-name="gdotaccent" unicode="&#x121;" horiz-adv-x="603" 
d="M289 -194q-122 0 -215 60l58 96q69 -51 157 -51q64 0 106 24.5t42 80.5q0 29 -11 51q-57 -47 -137 -47q-110 0 -179.5 69t-69.5 175t69.5 175t179.5 69q77 0 133 -45v37h110v-399q20 -50 20 -99q0 -99 -77 -147.5t-186 -48.5zM290 125q41 0 76.5 18t55.5 49v144
q-20 31 -55.5 49t-76.5 18q-58 0 -97.5 -39t-39.5 -100t39.5 -100t97.5 -39zM296 558q-29 0 -50 20.5t-21 50.5t21 50.5t50 20.5q30 0 51 -20.5t21 -50.5t-21 -50.5t-51 -20.5z" />
    <glyph glyph-name="Gcommaaccent" unicode="&#x122;" horiz-adv-x="730" 
d="M401 -8q-151 0 -257 105t-106 258t106 258t257 105q161 0 259 -103l-75 -82q-33 35 -82 55t-102 20q-105 0 -175 -73t-70 -180t70 -180t175 -73q84 0 145 38v164h-195l51 112h260v-333q-105 -91 -261 -91zM285 -243l59 193h114l-100 -193h-73z" />
    <glyph glyph-name="gcommaaccent" unicode="&#x123;" horiz-adv-x="603" 
d="M289 -194q-122 0 -215 60l58 96q69 -51 157 -51q64 0 106 24.5t42 80.5q0 29 -11 51q-57 -47 -137 -47q-110 0 -179.5 69t-69.5 175t69.5 175t179.5 69q77 0 133 -45v37h110v-399q20 -50 20 -99q0 -99 -77 -147.5t-186 -48.5zM290 125q41 0 76.5 18t55.5 49v144
q-20 31 -55.5 49t-76.5 18q-58 0 -97.5 -39t-39.5 -100t39.5 -100t97.5 -39zM406 737l-59 -193h-114l100 193h73z" />
    <glyph glyph-name="Hcircumflex" unicode="&#x124;" horiz-adv-x="742" 
d="M79 0v710h116v-294h352v294h116v-710h-116v304h-352v-304h-116zM233 760l-37 73l175 91l174 -91l-37 -73l-137 73z" />
    <glyph glyph-name="hcircumflex" unicode="&#x125;" horiz-adv-x="583" 
d="M70 0v710h110v-257q51 55 140 55q93 0 148 -59t55 -156v-293h-110v291q0 44 -31 78t-83 34q-89 0 -119 -88v-315h-110zM159 760l-37 73l175 91l174 -91l-37 -73l-137 73z" />
    <glyph glyph-name="Hbar" unicode="&#x126;" horiz-adv-x="742" 
d="M14 516v94h65v100h116v-100h352v100h116v-100h65v-94h-65v-516h-116v304h-352v-304h-116v516h-65zM195 416h352v100h-352v-100z" />
    <glyph glyph-name="hbar" unicode="&#x127;" horiz-adv-x="583" 
d="M-7 577v73h77v60h110v-60h145v-73h-145v-124q51 55 140 55q93 0 148 -59t55 -156v-293h-110v291q0 44 -31 78t-83 34q-89 0 -119 -88v-315h-110v577h-77z" />
    <glyph glyph-name="Itilde" unicode="&#x128;" horiz-adv-x="274" 
d="M79 0v710h116v-710h-116zM-45 777l4 23q8 47 40 75t70 28q31 0 72 -21.5t54 -21.5q35 0 46 43h78l-3 -22q-8 -47 -39 -75t-70 -28q-32 0 -73.5 21.5t-53.5 21.5q-36 0 -46 -44h-79z" />
    <glyph glyph-name="itilde" unicode="&#x129;" horiz-adv-x="250" 
d="M70 0v500h110v-500h-110zM-55 562l4 22q8 47 39 74.5t69 27.5q31 0 72 -21t54 -21q35 0 46 43h77l-3 -22q-8 -46 -39 -74t-69 -28q-32 0 -73.5 21t-53.5 21q-36 0 -46 -43h-77z" />
    <glyph glyph-name="Imacron" unicode="&#x12a;" horiz-adv-x="274" 
d="M79 0v710h116v-710h-116zM-16 799v76h306v-76h-306z" />
    <glyph glyph-name="imacron" unicode="&#x12b;" horiz-adv-x="250" 
d="M70 0v500h110v-500h-110zM-28 601v76h306v-76h-306z" />
    <glyph glyph-name="Ibreve" unicode="&#x12c;" horiz-adv-x="274" 
d="M79 0v710h116v-710h-116zM136 763q-71 0 -117.5 45t-48.5 110h71q2 -36 28.5 -61t67.5 -25q40 0 67 25.5t28 60.5h72q-2 -66 -49 -110.5t-119 -44.5z" />
    <glyph glyph-name="ibreve" unicode="&#x12d;" horiz-adv-x="250" 
d="M70 0v500h110v-500h-110zM124 556q-71 0 -117.5 44.5t-48.5 109.5h71q2 -36 28.5 -61t67.5 -25q40 0 67 25.5t28 60.5h72q-2 -65 -49 -109.5t-119 -44.5z" />
    <glyph glyph-name="Iogonek" unicode="&#x12e;" horiz-adv-x="274" 
d="M125 -189q-47 0 -79 27.5t-32 70.5q0 27 18.5 52t46.5 39v710h116v-710q-75 -34 -75 -72q0 -17 11.5 -27.5t31.5 -10.5q18 0 36 9v-69q-32 -19 -74 -19z" />
    <glyph glyph-name="iogonek" unicode="&#x12f;" horiz-adv-x="250" 
d="M112 -182q-44 0 -75 26.5t-31 68.5q0 54 64 87v500h110v-500q-72 -33 -72 -68q0 -15 11 -25t31 -10q15 0 31 9v-69q-26 -19 -69 -19zM70 597q-18 21 -18 48q0 30 21.5 51.5t51.5 21.5t51.5 -21.5t21.5 -51.5q0 -27 -18 -48h-110z" />
    <glyph glyph-name="Idotaccent" unicode="&#x130;" horiz-adv-x="274" 
d="M79 0v710h116v-710h-116zM137 770q-29 0 -50.5 21t-21.5 51t21.5 51t50.5 21q30 0 51 -21t21 -51t-21 -51t-51 -21z" />
    <glyph glyph-name="dotlessi" unicode="&#x131;" horiz-adv-x="250" 
d="M70 0v500h110v-500h-110z" />
    <glyph glyph-name="Jcircumflex" unicode="&#x134;" horiz-adv-x="530" 
d="M234 -8q-92 0 -155 56.5t-63 160.5h117q0 -51 28.5 -78.5t72.5 -28.5q44 0 73 27.5t29 79.5v501h116v-503q0 -103 -63 -159t-155 -56zM256 760l-37 73l175 91l174 -91l-37 -73l-137 73z" />
    <glyph glyph-name="jcircumflex" unicode="&#x135;" horiz-adv-x="250" 
d="M-35 -184v104h30q39 0 57 15.5t18 52.5v512h110v-518q0 -88 -44.5 -127t-135.5 -39h-35zM-5 543l-42 70l173 105l173 -105l-40 -70l-133 81z" />
    <glyph glyph-name="Kcommaaccent" unicode="&#x136;" horiz-adv-x="662" 
d="M79 0v710h116v-357l299 357h138l-301 -359l331 -351h-150l-317 335v-335h-116zM234 -243l59 193h114l-100 -193h-73z" />
    <glyph glyph-name="kcommaaccent" unicode="&#x137;" horiz-adv-x="535" 
d="M70 0v710h110v-436l200 226h130l-208 -237l233 -263h-135l-220 249v-249h-110zM182 -243l59 193h114l-100 -193h-73z" />
    <glyph glyph-name="Lacute" unicode="&#x139;" horiz-adv-x="505" 
d="M79 0v710h116v-595h299v-115h-415zM94 768l74 145h130l-117 -145h-87z" />
    <glyph glyph-name="lacute" unicode="&#x13a;" horiz-adv-x="250" 
d="M70 0v710h110v-710h-110zM74 768l74 145h130l-117 -145h-87z" />
    <glyph glyph-name="Lcommaaccent" unicode="&#x13b;" horiz-adv-x="505" 
d="M79 0v710h116v-595h299v-115h-415zM170 -243l59 193h114l-100 -193h-73z" />
    <glyph glyph-name="lcommaaccent" unicode="&#x13c;" horiz-adv-x="250" 
d="M70 0v710h110v-710h-110zM9 -243l59 193h114l-100 -193h-73z" />
    <glyph glyph-name="Lcaron" unicode="&#x13d;" horiz-adv-x="505" 
d="M79 0v710h116v-595h299v-115h-415zM277 547l23 163h109l-57 -163h-75z" />
    <glyph glyph-name="lcaron" unicode="&#x13e;" horiz-adv-x="250" 
d="M70 0v710h110v-710h-110zM225 547l23 163h109l-57 -163h-75z" />
    <glyph glyph-name="Ldot" unicode="&#x13f;" horiz-adv-x="505" 
d="M79 0v710h116v-595h299v-115h-415zM390 342q-29 0 -50 20.5t-21 50.5t21 50.5t50 20.5q30 0 51 -20.5t21 -50.5t-21 -50.5t-51 -20.5z" />
    <glyph glyph-name="ldot" unicode="&#x140;" horiz-adv-x="371" 
d="M310 284q-29 0 -50 20.5t-21 50.5t21 50.5t50 20.5q30 0 51 -20.5t21 -50.5t-21 -50.5t-51 -20.5zM70 0v710h110v-710h-110z" />
    <glyph glyph-name="Lslash" unicode="&#x141;" horiz-adv-x="536" 
d="M33 193l-50 86l127 79v352h116v-279l144 90l51 -87l-195 -121v-198h299v-115h-415v241z" />
    <glyph glyph-name="lslash" unicode="&#x142;" horiz-adv-x="340" 
d="M37 238l-40 68l118 72v332h110v-265l79 49l40 -67l-119 -74v-353h-110v286z" />
    <glyph glyph-name="Nacute" unicode="&#x143;" horiz-adv-x="759" 
d="M680 -8l-485 461v-453h-116v718l485 -461v453h116v-718zM307 768l74 145h130l-117 -145h-87z" />
    <glyph glyph-name="nacute" unicode="&#x144;" horiz-adv-x="583" 
d="M70 0v500h110v-47q51 55 140 55q93 0 148 -59t55 -156v-293h-110v291q0 44 -31 78t-83 34q-89 0 -119 -88v-315h-110zM224 545l85 165h133l-131 -165h-87z" />
    <glyph glyph-name="Ncommaaccent" unicode="&#x145;" horiz-adv-x="759" 
d="M680 -8l-485 461v-453h-116v718l485 -461v453h116v-718zM293 -243l59 193h114l-100 -193h-73z" />
    <glyph glyph-name="ncommaaccent" unicode="&#x146;" horiz-adv-x="583" 
d="M70 0v500h110v-47q51 55 140 55q93 0 148 -59t55 -156v-293h-110v291q0 44 -31 78t-83 34q-89 0 -119 -88v-315h-110zM180 -243l59 193h114l-100 -193h-73z" />
    <glyph glyph-name="Ncaron" unicode="&#x147;" horiz-adv-x="759" 
d="M680 -8l-485 461v-453h-116v718l485 -461v453h116v-718zM379 759l-174 92l37 72l137 -73l138 73l37 -73z" />
    <glyph glyph-name="ncaron" unicode="&#x148;" horiz-adv-x="583" 
d="M70 0v500h110v-47q51 55 140 55q93 0 148 -59t55 -156v-293h-110v291q0 44 -31 78t-83 34q-89 0 -119 -88v-315h-110zM469 658l-173 -105l-173 105l42 70l131 -81l133 81z" />
    <glyph glyph-name="Eng" unicode="&#x14a;" horiz-adv-x="759" 
d="M462 -184v104h21q81 0 81 81v101l-369 351v-453h-116v718l485 -461v453h116v-749q0 -67 -39 -106t-107 -39h-72z" />
    <glyph glyph-name="eng" unicode="&#x14b;" horiz-adv-x="583" 
d="M70 0v500h110v-47q51 55 140 55q93 0 148 -59t55 -156v-311q0 -76 -45 -121t-121 -45h-49v104h34q71 0 71 71v300q0 44 -31 78t-83 34q-89 0 -119 -88v-315h-110z" />
    <glyph glyph-name="Omacron" unicode="&#x14c;" 
d="M401 102q105 0 175 73t70 180t-70 180t-175 73t-175 -73t-70 -180t70 -180t175 -73zM401 -8q-151 0 -257 105t-106 258t106 258t257 105q152 0 257.5 -105t105.5 -258t-105.5 -258t-257.5 -105zM248 799v76h306v-76h-306z" />
    <glyph glyph-name="omacron" unicode="&#x14d;" horiz-adv-x="598" 
d="M299 97q63 0 104.5 43.5t41.5 109.5t-41.5 109.5t-104.5 43.5q-64 0 -105 -43.5t-41 -109.5t41 -109.5t105 -43.5zM299 -8q-111 0 -185 74t-74 184t74 184t185 74t185 -74t74 -184t-74 -184t-185 -74zM146 601v76h306v-76h-306z" />
    <glyph glyph-name="Obreve" unicode="&#x14e;" 
d="M401 102q105 0 175 73t70 180t-70 180t-175 73t-175 -73t-70 -180t70 -180t175 -73zM401 -8q-151 0 -257 105t-106 258t106 258t257 105q152 0 257.5 -105t105.5 -258t-105.5 -258t-257.5 -105zM400 763q-71 0 -117.5 45t-48.5 110h71q2 -36 28.5 -61t67.5 -25
q40 0 67 25.5t28 60.5h72q-2 -66 -49 -110.5t-119 -44.5z" />
    <glyph glyph-name="obreve" unicode="&#x14f;" horiz-adv-x="598" 
d="M299 97q63 0 104.5 43.5t41.5 109.5t-41.5 109.5t-104.5 43.5q-64 0 -105 -43.5t-41 -109.5t41 -109.5t105 -43.5zM299 -8q-111 0 -185 74t-74 184t74 184t185 74t185 -74t74 -184t-74 -184t-185 -74zM298 556q-71 0 -117.5 44.5t-48.5 109.5h71q2 -36 28.5 -61t67.5 -25
q40 0 67 25.5t28 60.5h72q-2 -65 -49 -109.5t-119 -44.5z" />
    <glyph glyph-name="Ohungarumlaut" unicode="&#x150;" 
d="M401 102q105 0 175 73t70 180t-70 180t-175 73t-175 -73t-70 -180t70 -180t175 -73zM401 -8q-151 0 -257 105t-106 258t106 258t257 105q152 0 257.5 -105t105.5 -258t-105.5 -258t-257.5 -105zM244 768l74 145h121l-117 -145h-78zM444 768l75 145h120l-117 -145h-78z
" />
    <glyph glyph-name="ohungarumlaut" unicode="&#x151;" horiz-adv-x="598" 
d="M299 97q63 0 104.5 43.5t41.5 109.5t-41.5 109.5t-104.5 43.5q-64 0 -105 -43.5t-41 -109.5t41 -109.5t105 -43.5zM299 -8q-111 0 -185 74t-74 184t74 184t185 74t185 -74t74 -184t-74 -184t-185 -74zM165 545l85 165h117l-132 -165h-70zM343 545l85 165h116l-131 -165
h-70z" />
    <glyph glyph-name="OE" unicode="&#x152;" horiz-adv-x="1046" 
d="M401 -8q-151 0 -257 105t-106 258t106 258t257 105q94 0 178 -46v38h422v-114h-312v-18q55 -73 70 -162h205v-112h-204q-12 -94 -71 -173v-17h313v-114h-423v37q-82 -45 -178 -45zM401 102q105 0 175 73t70 180t-70 180t-175 73t-175 -73t-70 -180t70 -180t175 -73z" />
    <glyph glyph-name="oe" unicode="&#x153;" horiz-adv-x="980" 
d="M299 -8q-111 0 -185 74t-74 184t74 184t185 74q127 0 203 -94q75 94 200 94q105 0 169.5 -69t69.5 -189v-30h-382q8 -53 48.5 -86t96.5 -33q79 0 130 57l74 -79q-34 -39 -87 -63t-117 -24q-127 0 -202 94q-76 -94 -203 -94zM299 97q64 0 105.5 43.5t41.5 109.5
t-41.5 109.5t-105.5 43.5t-105 -43.5t-41 -109.5t41 -109.5t105 -43.5zM563 305h257q-20 102 -126 102q-45 0 -82 -27.5t-49 -74.5z" />
    <glyph glyph-name="Racute" unicode="&#x154;" horiz-adv-x="622" 
d="M476 0l-214 302h-67v-302h-116v710h230q99 0 162.5 -57.5t63.5 -146.5q0 -69 -39 -120.5t-107 -72.5l226 -313h-139zM195 403h103q59 0 89 26.5t30 72.5q0 47 -30 74t-89 27h-103v-200zM216 768l74 145h130l-117 -145h-87z" />
    <glyph glyph-name="racute" unicode="&#x155;" horiz-adv-x="367" 
d="M135 545l85 165h133l-131 -165h-87zM70 0v500h110v-49q47 56 129 56q19 0 36 -3v-115q-21 7 -55 7q-79 0 -110 -60v-336h-110z" />
    <glyph glyph-name="Rcommaaccent" unicode="&#x156;" horiz-adv-x="622" 
d="M476 0l-214 302h-67v-302h-116v710h230q99 0 162.5 -57.5t63.5 -146.5q0 -69 -39 -120.5t-107 -72.5l226 -313h-139zM195 403h103q59 0 89 26.5t30 72.5q0 47 -30 74t-89 27h-103v-200zM221 -243l59 193h114l-100 -193h-73z" />
    <glyph glyph-name="rcommaaccent" unicode="&#x157;" horiz-adv-x="367" 
d="M70 0v500h110v-49q47 56 129 56q19 0 36 -3v-115q-21 7 -55 7q-79 0 -110 -60v-336h-110zM11 -243l59 193h114l-100 -193h-73z" />
    <glyph glyph-name="Rcaron" unicode="&#x158;" horiz-adv-x="622" 
d="M476 0l-214 302h-67v-302h-116v710h230q99 0 162.5 -57.5t63.5 -146.5q0 -69 -39 -120.5t-107 -72.5l226 -313h-139zM195 403h103q59 0 89 26.5t30 72.5q0 47 -30 74t-89 27h-103v-200zM277 759l-174 92l37 72l137 -73l138 73l37 -73z" />
    <glyph glyph-name="rcaron" unicode="&#x159;" horiz-adv-x="367" 
d="M70 0v500h110v-49q47 56 129 56q19 0 36 -3v-115q-21 7 -55 7q-79 0 -110 -60v-336h-110zM380 658l-173 -105l-173 105l42 70l131 -81l133 81z" />
    <glyph glyph-name="Sacute" unicode="&#x15a;" horiz-adv-x="518" 
d="M259 -8q-79 0 -142 32.5t-97 88.5l88 74q27 -37 66.5 -61t83.5 -24q52 0 80.5 22t28.5 60q0 39 -24.5 65t-78.5 50l-56 24q-160 70 -160 207q0 83 63 135.5t148 52.5q124 0 199 -90l-80 -83q-28 34 -55.5 48.5t-64.5 14.5q-38 0 -66 -21t-28 -56q0 -34 24.5 -60t78.5 -49
l55 -25q163 -71 163 -203q0 -90 -62 -146t-164 -56zM211 768l74 145h130l-117 -145h-87z" />
    <glyph glyph-name="sacute" unicode="&#x15b;" horiz-adv-x="416" 
d="M206 -8q-126 0 -186 102l84 60q37 -64 102 -64q28 0 46 13t18 33q0 21 -16 35.5t-51 27.5l-35 14q-122 47 -122 154q0 61 45.5 101t115.5 40q104 0 156 -87l-81 -56q-25 45 -73 45q-23 0 -39 -11t-16 -29q0 -19 14.5 -33t49.5 -28l36 -13q66 -26 98.5 -62.5t32.5 -92.5
q0 -66 -50 -107.5t-129 -41.5zM160 545l85 165h133l-131 -165h-87z" />
    <glyph glyph-name="Scircumflex" unicode="&#x15c;" horiz-adv-x="518" 
d="M259 -8q-79 0 -142 32.5t-97 88.5l88 74q27 -37 66.5 -61t83.5 -24q52 0 80.5 22t28.5 60q0 39 -24.5 65t-78.5 50l-56 24q-160 70 -160 207q0 83 63 135.5t148 52.5q124 0 199 -90l-80 -83q-28 34 -55.5 48.5t-64.5 14.5q-38 0 -66 -21t-28 -56q0 -34 24.5 -60t78.5 -49
l55 -25q163 -71 163 -203q0 -90 -62 -146t-164 -56zM122 760l-37 73l175 91l174 -91l-37 -73l-137 73z" />
    <glyph glyph-name="scircumflex" unicode="&#x15d;" horiz-adv-x="416" 
d="M205 -8q-126 0 -186 102l84 60q37 -64 102 -64q28 0 46 13t18 33q0 21 -16 35.5t-51 27.5l-35 14q-122 47 -122 154q0 61 45.5 101t115.5 40q104 0 156 -87l-81 -56q-25 45 -73 45q-23 0 -39 -11t-16 -29q0 -19 14.5 -33t49.5 -28l36 -13q66 -26 98.5 -62.5t32.5 -92.5
q0 -66 -50 -107.5t-129 -41.5zM76 543l-42 70l173 105l173 -105l-40 -70l-133 81z" />
    <glyph glyph-name="Scedilla" unicode="&#x15e;" horiz-adv-x="518" 
d="M172 -132l55 126q-69 6 -123 37.5t-84 81.5l88 74q27 -37 66.5 -61t83.5 -24q52 0 80.5 22t28.5 60q0 39 -24.5 65t-78.5 50l-56 24q-160 70 -160 207q0 83 63 135.5t148 52.5q124 0 199 -90l-80 -83q-28 34 -55.5 48.5t-64.5 14.5q-38 0 -66 -21t-28 -56q0 -34 24.5 -60
t78.5 -49l55 -25q163 -71 163 -203q0 -78 -47 -131t-127 -66l-39 -129h-100z" />
    <glyph glyph-name="scedilla" unicode="&#x15f;" horiz-adv-x="416" 
d="M101 -132l56 129q-92 16 -138 97l84 60q37 -64 102 -64q28 0 46 13t18 33q0 21 -16 35.5t-51 27.5l-35 14q-122 47 -122 154q0 61 45.5 101t115.5 40q104 0 156 -87l-81 -56q-25 45 -73 45q-23 0 -39 -11t-16 -29q0 -19 14.5 -33t49.5 -28l36 -13q66 -26 98.5 -62.5
t32.5 -92.5q0 -58 -39.5 -98t-105.5 -48l-38 -127h-100z" />
    <glyph glyph-name="Scaron" unicode="&#x160;" horiz-adv-x="518" 
d="M259 -8q-79 0 -142 32.5t-97 88.5l88 74q27 -37 66.5 -61t83.5 -24q52 0 80.5 22t28.5 60q0 39 -24.5 65t-78.5 50l-56 24q-160 70 -160 207q0 83 63 135.5t148 52.5q124 0 199 -90l-80 -83q-28 34 -55.5 48.5t-64.5 14.5q-38 0 -66 -21t-28 -56q0 -34 24.5 -60t78.5 -49
l55 -25q163 -71 163 -203q0 -90 -62 -146t-164 -56zM260 759l-174 92l37 72l137 -73l138 73l37 -73z" />
    <glyph glyph-name="scaron" unicode="&#x161;" horiz-adv-x="416" 
d="M205 -8q-126 0 -186 102l84 60q37 -64 102 -64q28 0 46 13t18 33q0 21 -16 35.5t-51 27.5l-35 14q-122 47 -122 154q0 61 45.5 101t115.5 40q104 0 156 -87l-81 -56q-25 45 -73 45q-23 0 -39 -11t-16 -29q0 -19 14.5 -33t49.5 -28l36 -13q66 -26 98.5 -62.5t32.5 -92.5
q0 -66 -50 -107.5t-129 -41.5zM380 658l-173 -105l-173 105l42 70l131 -81l133 81z" />
    <glyph glyph-name="uni0162" unicode="&#x162;" horiz-adv-x="523" 
d="M203 0v596h-183v114h483v-114h-184v-596h-116zM145 -243l59 193h114l-100 -193h-73z" />
    <glyph glyph-name="uni0163" unicode="&#x163;" horiz-adv-x="385" 
d="M21 402l-24 98h97v96l110 54v-150h152l-24 -98h-128v-227q0 -40 15 -57t56 -17h69v-101h-97q-72 0 -112.5 40.5t-40.5 111.5v250h-73zM107 -243l59 193h114l-100 -193h-73z" />
    <glyph glyph-name="Tcaron" unicode="&#x164;" horiz-adv-x="523" 
d="M203 0v596h-183v114h483v-114h-184v-596h-116zM261 759l-174 92l37 72l137 -73l138 73l37 -73z" />
    <glyph glyph-name="tcaron" unicode="&#x165;" horiz-adv-x="385" 
d="M21 402l-24 98h97v96l110 54v-150h152l-24 -98h-128v-227q0 -40 15 -57t56 -17h69v-101h-97q-72 0 -112.5 40.5t-40.5 111.5v250h-73zM261 547l23 163h109l-57 -163h-75z" />
    <glyph glyph-name="Tbar" unicode="&#x166;" horiz-adv-x="523" 
d="M51 329v94h152v173h-183v114h483v-114h-184v-173h152v-94h-152v-329h-116v329h-152z" />
    <glyph glyph-name="tbar" unicode="&#x167;" horiz-adv-x="385" 
d="M21 402l-24 98h97v96l110 54v-150h152l-24 -98h-128v-74h123v-83h-123v-70q0 -40 15 -57t56 -17h69v-101h-97q-72 0 -112.5 40.5t-40.5 111.5v93h-87v83h87v74h-73z" />
    <glyph glyph-name="Utilde" unicode="&#x168;" horiz-adv-x="711" 
d="M356 -8q-127 0 -206.5 77t-79.5 207v434h116v-437q0 -81 46.5 -126t123.5 -45t123 45t46 126v437h116v-434q0 -130 -79 -207t-206 -77zM173 777l4 23q8 47 40 75t70 28q31 0 72 -21.5t54 -21.5q35 0 46 43h78l-3 -22q-8 -47 -39 -75t-70 -28q-32 0 -73.5 21.5t-53.5 21.5
q-36 0 -46 -44h-79z" />
    <glyph glyph-name="utilde" unicode="&#x169;" horiz-adv-x="580" 
d="M400 0v46q-50 -54 -140 -54q-93 0 -148 59t-55 156v293h110v-291q0 -44 31 -78t83 -34q88 0 119 85v318h110v-500h-110zM113 562l4 22q8 47 39 74.5t69 27.5q31 0 72 -21t54 -21q35 0 46 43h77l-3 -22q-8 -46 -39 -74t-69 -28q-32 0 -73.5 21t-53.5 21q-36 0 -46 -43h-77
z" />
    <glyph glyph-name="Umacron" unicode="&#x16a;" horiz-adv-x="711" 
d="M356 -8q-127 0 -206.5 77t-79.5 207v434h116v-437q0 -81 46.5 -126t123.5 -45t123 45t46 126v437h116v-434q0 -130 -79 -207t-206 -77zM202 799v76h306v-76h-306z" />
    <glyph glyph-name="umacron" unicode="&#x16b;" horiz-adv-x="580" 
d="M400 0v46q-50 -54 -140 -54q-93 0 -148 59t-55 156v293h110v-291q0 -44 31 -78t83 -34q88 0 119 85v318h110v-500h-110zM130 601v76h306v-76h-306z" />
    <glyph glyph-name="Ubreve" unicode="&#x16c;" horiz-adv-x="711" 
d="M356 -8q-127 0 -206.5 77t-79.5 207v434h116v-437q0 -81 46.5 -126t123.5 -45t123 45t46 126v437h116v-434q0 -130 -79 -207t-206 -77zM354 763q-71 0 -117.5 45t-48.5 110h71q2 -36 28.5 -61t67.5 -25q40 0 67 25.5t28 60.5h72q-2 -66 -49 -110.5t-119 -44.5z" />
    <glyph glyph-name="ubreve" unicode="&#x16d;" horiz-adv-x="580" 
d="M400 0v46q-50 -54 -140 -54q-93 0 -148 59t-55 156v293h110v-291q0 -44 31 -78t83 -34q88 0 119 85v318h110v-500h-110zM282 556q-71 0 -117.5 44.5t-48.5 109.5h71q2 -36 28.5 -61t67.5 -25q40 0 67 25.5t28 60.5h72q-2 -65 -49 -109.5t-119 -44.5z" />
    <glyph glyph-name="Uring" unicode="&#x16e;" horiz-adv-x="711" 
d="M356 -8q-127 0 -206.5 77t-79.5 207v434h116v-437q0 -81 46.5 -126t123.5 -45t123 45t46 126v437h116v-434q0 -130 -79 -207t-206 -77zM355 807q20 0 33.5 13t13.5 34q0 20 -13.5 34t-33.5 14t-34 -14t-14 -34q0 -21 14 -34t34 -13zM355 750q-45 0 -76 30t-31 74t31 74
t76 30q44 0 75.5 -30t31.5 -74t-31.5 -74t-75.5 -30z" />
    <glyph glyph-name="uring" unicode="&#x16f;" horiz-adv-x="580" 
d="M400 0v46q-50 -54 -140 -54q-93 0 -148 59t-55 156v293h110v-291q0 -44 31 -78t83 -34q88 0 119 85v318h110v-500h-110zM282 608q20 0 33.5 13.5t13.5 33.5t-13.5 33.5t-33.5 13.5t-34 -13.5t-14 -33.5t14 -33.5t34 -13.5zM282 551q-45 0 -76 30t-31 74q0 43 31.5 73.5
t75.5 30.5t75.5 -30.5t31.5 -73.5t-31.5 -73.5t-75.5 -30.5z" />
    <glyph glyph-name="Uhungarumlaut" unicode="&#x170;" horiz-adv-x="711" 
d="M356 -8q-127 0 -206.5 77t-79.5 207v434h116v-437q0 -81 46.5 -126t123.5 -45t123 45t46 126v437h116v-434q0 -130 -79 -207t-206 -77zM208 768l74 145h121l-117 -145h-78zM408 768l75 145h120l-117 -145h-78z" />
    <glyph glyph-name="uhungarumlaut" unicode="&#x171;" horiz-adv-x="580" 
d="M400 0v46q-50 -54 -140 -54q-93 0 -148 59t-55 156v293h110v-291q0 -44 31 -78t83 -34q88 0 119 85v318h110v-500h-110zM144 545l85 165h117l-132 -165h-70zM322 545l85 165h116l-131 -165h-70z" />
    <glyph glyph-name="Uogonek" unicode="&#x172;" horiz-adv-x="711" 
d="M374 -189q-47 0 -79 27.5t-32 70.5q0 52 54 85q-111 12 -179 87.5t-68 194.5v434h116v-437q0 -81 46.5 -126t123.5 -45t123 45t46 126v437h116v-434q0 -111 -59.5 -184.5t-158.5 -92.5q-54 -32 -54 -71q0 -17 11.5 -27.5t31.5 -10.5q18 0 36 9v-69q-32 -19 -74 -19z" />
    <glyph glyph-name="uogonek" unicode="&#x173;" horiz-adv-x="581" 
d="M400 0v46q-50 -54 -140 -54q-93 0 -148 59t-55 156v293h110v-291q0 -44 31 -78t83 -34q88 0 119 85v318h110v-500q-72 -33 -72 -68q0 -15 11 -25t31 -10q15 0 31 9v-69q-26 -19 -69 -19q-44 0 -75 26.5t-31 68.5q0 54 64 87z" />
    <glyph glyph-name="Wcircumflex" unicode="&#x174;" horiz-adv-x="893" 
d="M255 -8l-244 718h119l140 -409l176 417l176 -417l140 409h120l-245 -718l-191 460zM309 760l-37 73l175 91l174 -91l-37 -73l-137 73z" />
    <glyph glyph-name="wcircumflex" unicode="&#x175;" horiz-adv-x="723" 
d="M171 0l-158 500h115l99 -327l135 335l134 -335l99 327h115l-158 -500h-86l-104 260l-105 -260h-86zM230 543l-42 70l173 105l173 -105l-40 -70l-133 81z" />
    <glyph glyph-name="Ycircumflex" unicode="&#x176;" horiz-adv-x="641" 
d="M262 0v299l-261 411h136l183 -293l183 293h137l-262 -411v-299h-116zM183 760l-37 73l175 91l174 -91l-37 -73l-137 73z" />
    <glyph glyph-name="ycircumflex" unicode="&#x177;" horiz-adv-x="509" 
d="M107 -184l90 210l-197 474h118l136 -345l137 345h118l-286 -684h-116zM123 543l-42 70l173 105l173 -105l-40 -70l-133 81z" />
    <glyph glyph-name="Ydieresis" unicode="&#x178;" horiz-adv-x="641" 
d="M262 0v299l-261 411h136l183 -293l183 293h137l-262 -411v-299h-116zM205 774q-27 0 -47.5 20t-20.5 48t20.5 48t47.5 20q28 0 48 -20t20 -48t-19.5 -48t-48.5 -20zM435 774q-28 0 -48 20t-20 48t20 48t48 20t48 -20t20 -48t-19.5 -48t-48.5 -20z" />
    <glyph glyph-name="Zacute" unicode="&#x179;" horiz-adv-x="613" 
d="M17 0l371 596h-329v114h528l-371 -596h364v-114h-563zM250 768l74 145h130l-117 -145h-87z" />
    <glyph glyph-name="zacute" unicode="&#x17a;" horiz-adv-x="507" 
d="M19 0l272 402h-240v98h430l-272 -402h258v-98h-448zM192 545l85 165h133l-131 -165h-87z" />
    <glyph glyph-name="Zdotaccent" unicode="&#x17b;" horiz-adv-x="613" 
d="M17 0l371 596h-329v114h528l-371 -596h364v-114h-563zM323 770q-29 0 -50.5 21t-21.5 51t21.5 51t50.5 21q30 0 51 -21t21 -51t-21 -51t-51 -21z" />
    <glyph glyph-name="zdotaccent" unicode="&#x17c;" horiz-adv-x="507" 
d="M19 0l272 402h-240v98h430l-272 -402h258v-98h-448zM266 558q-29 0 -50 20.5t-21 50.5t21 50.5t50 20.5q30 0 51 -20.5t21 -50.5t-21 -50.5t-51 -20.5z" />
    <glyph glyph-name="Zcaron" unicode="&#x17d;" horiz-adv-x="613" 
d="M17 0l371 596h-329v114h528l-371 -596h364v-114h-563zM323 759l-174 92l37 72l137 -73l138 73l37 -73z" />
    <glyph glyph-name="zcaron" unicode="&#x17e;" horiz-adv-x="507" 
d="M19 0l272 402h-240v98h430l-272 -402h258v-98h-448zM440 658l-173 -105l-173 105l42 70l131 -81l133 81z" />
    <glyph glyph-name="Scommaaccent" unicode="&#x218;" horiz-adv-x="518" 
d="M259 -8q-79 0 -142 32.5t-97 88.5l88 74q27 -37 66.5 -61t83.5 -24q52 0 80.5 22t28.5 60q0 39 -24.5 65t-78.5 50l-56 24q-160 70 -160 207q0 83 63 135.5t148 52.5q124 0 199 -90l-80 -83q-28 34 -55.5 48.5t-64.5 14.5q-38 0 -66 -21t-28 -56q0 -34 24.5 -60t78.5 -49
l55 -25q163 -71 163 -203q0 -90 -62 -146t-164 -56zM144 -243l59 193h114l-100 -193h-73z" />
    <glyph glyph-name="scommaaccent" unicode="&#x219;" horiz-adv-x="416" 
d="M205 -8q-126 0 -186 102l84 60q37 -64 102 -64q28 0 46 13t18 33q0 21 -16 35.5t-51 27.5l-35 14q-122 47 -122 154q0 61 45.5 101t115.5 40q104 0 156 -87l-81 -56q-25 45 -73 45q-23 0 -39 -11t-16 -29q0 -19 14.5 -33t49.5 -28l36 -13q66 -26 98.5 -62.5t32.5 -92.5
q0 -66 -50 -107.5t-129 -41.5zM85 -243l59 193h114l-100 -193h-73z" />
    <glyph glyph-name="Tcommaaccent" unicode="&#x21a;" horiz-adv-x="523" 
d="M203 0v596h-183v114h483v-114h-184v-596h-116zM145 -243l59 193h114l-100 -193h-73z" />
    <glyph glyph-name="tcommaaccent" unicode="&#x21b;" horiz-adv-x="385" 
d="M21 402l-24 98h97v96l110 54v-150h152l-24 -98h-128v-227q0 -40 15 -57t56 -17h69v-101h-97q-72 0 -112.5 40.5t-40.5 111.5v250h-73zM107 -243l59 193h114l-100 -193h-73z" />
    <glyph glyph-name="uni0232" unicode="&#x232;" horiz-adv-x="641" 
d="M262 0v299l-261 411h136l183 -293l183 293h137l-262 -411v-299h-116zM167 799v76h306v-76h-306z" />
    <glyph glyph-name="uni0233" unicode="&#x233;" horiz-adv-x="509" 
d="M107 -184l90 210l-197 474h118l136 -345l137 345h118l-286 -684h-116zM101 601v76h306v-76h-306z" />
    <glyph glyph-name="dotlessj" unicode="&#x237;" horiz-adv-x="250" 
d="M-35 -184v104h30q39 0 57 15.5t18 52.5v512h110v-518q0 -88 -44.5 -127t-135.5 -39h-35z" />
    <glyph glyph-name="circumflex" unicode="&#x2c6;" horiz-adv-x="435" 
d="M85 543l-42 70l173 105l173 -105l-40 -70l-133 81z" />
    <glyph glyph-name="caron" unicode="&#x2c7;" horiz-adv-x="442" 
d="M390 658l-173 -105l-173 105l42 70l131 -81l133 81z" />
    <glyph glyph-name="breve" unicode="&#x2d8;" horiz-adv-x="419" 
d="M209 556q-71 0 -117.5 44.5t-48.5 109.5h71q2 -36 28.5 -61t67.5 -25q40 0 67 25.5t28 60.5h72q-2 -65 -49 -109.5t-119 -44.5z" />
    <glyph glyph-name="dotaccent" unicode="&#x2d9;" horiz-adv-x="229" 
d="M114 558q-29 0 -50 20.5t-21 50.5t21 50.5t50 20.5q30 0 51 -20.5t21 -50.5t-21 -50.5t-51 -20.5z" />
    <glyph glyph-name="ring" unicode="&#x2da;" horiz-adv-x="303" 
d="M153 608q20 0 33.5 13.5t13.5 33.5t-13.5 33.5t-33.5 13.5t-34 -13.5t-14 -33.5t14 -33.5t34 -13.5zM153 551q-45 0 -76 30t-31 74q0 43 31.5 73.5t75.5 30.5t75.5 -30.5t31.5 -73.5t-31.5 -73.5t-75.5 -30.5z" />
    <glyph glyph-name="ogonek" unicode="&#x2db;" horiz-adv-x="279" 
d="M157 -182q-44 0 -75 26.5t-31 68.5q0 54 64 87h110q-72 -33 -72 -68q0 -15 11 -25t31 -10q15 0 31 9v-69q-26 -19 -69 -19z" />
    <glyph glyph-name="tilde" unicode="&#x2dc;" horiz-adv-x="474" 
d="M56 562l4 22q8 47 39 74.5t69 27.5q31 0 72 -21t54 -21q35 0 46 43h77l-3 -22q-8 -46 -39 -74t-69 -28q-32 0 -73.5 21t-53.5 21q-36 0 -46 -43h-77z" />
    <glyph glyph-name="hungarumlaut" unicode="&#x2dd;" horiz-adv-x="484" 
d="M55 545l85 165h117l-132 -165h-70zM233 545l85 165h116l-131 -165h-70z" />
    <glyph glyph-name="uni032C" unicode="&#x32c;" horiz-adv-x="457" 
d="M407 -72l-173 -113l-173 113l39 67l134 -90l133 90z" />
    <glyph glyph-name="Delta" unicode="&#x394;" horiz-adv-x="812" 
d="M200 111h410l-204 378zM10 0l396 718l396 -718h-792z" />
    <glyph glyph-name="Delta" unicode="&#x2206;" horiz-adv-x="812" 
d="M200 111h410l-204 378zM10 0l396 718l396 -718h-792z" />
    <glyph glyph-name="Omega" unicode="&#x3a9;" horiz-adv-x="842" 
d="M59 0v107h110q-51 41 -81 108.5t-30 139.5q0 152 105.5 257.5t257.5 105.5q151 0 257 -105.5t106 -257.5q0 -71 -30.5 -139t-81.5 -109h110v-107h-289v112q77 23 125.5 90.5t48.5 152.5q0 106 -70.5 179.5t-175.5 73.5q-106 0 -177 -73.5t-71 -179.5q0 -85 48.5 -152.5
t125.5 -90.5v-112h-288z" />
    <glyph glyph-name="Omega" unicode="&#x2126;" horiz-adv-x="842" 
d="M59 0v107h110q-51 41 -81 108.5t-30 139.5q0 152 105.5 257.5t257.5 105.5q151 0 257 -105.5t106 -257.5q0 -71 -30.5 -139t-81.5 -109h110v-107h-289v112q77 23 125.5 90.5t48.5 152.5q0 106 -70.5 179.5t-175.5 73.5q-106 0 -177 -73.5t-71 -179.5q0 -85 48.5 -152.5
t125.5 -90.5v-112h-288z" />
    <glyph glyph-name="pi" unicode="&#x3c0;" horiz-adv-x="662" 
d="M442 0v402h-222v-402h-110v402h-72v98h586v-98h-73v-402h-109z" />
    <glyph glyph-name="Wgrave" unicode="&#x1e80;" horiz-adv-x="893" 
d="M255 -8l-244 718h119l140 -409l176 417l176 -417l140 409h120l-245 -718l-191 460zM405 768l-118 145h130l75 -145h-87z" />
    <glyph glyph-name="wgrave" unicode="&#x1e81;" horiz-adv-x="723" 
d="M171 0l-158 500h115l99 -327l135 335l134 -335l99 327h115l-158 -500h-86l-104 260l-105 -260h-86zM319 545l-132 165h133l84 -165h-85z" />
    <glyph glyph-name="Wacute" unicode="&#x1e82;" horiz-adv-x="893" 
d="M255 -8l-244 718h119l140 -409l176 417l176 -417l140 409h120l-245 -718l-191 460zM404 768l74 145h130l-117 -145h-87z" />
    <glyph glyph-name="wacute" unicode="&#x1e83;" horiz-adv-x="723" 
d="M171 0l-158 500h115l99 -327l135 335l134 -335l99 327h115l-158 -500h-86l-104 260l-105 -260h-86zM317 545l85 165h133l-131 -165h-87z" />
    <glyph glyph-name="Wdieresis" unicode="&#x1e84;" horiz-adv-x="893" 
d="M255 -8l-244 718h119l140 -409l176 417l176 -417l140 409h120l-245 -718l-191 460zM331 774q-27 0 -47.5 20t-20.5 48t20.5 48t47.5 20q28 0 48 -20t20 -48t-19.5 -48t-48.5 -20zM561 774q-28 0 -48 20t-20 48t20 48t48 20t48 -20t20 -48t-19.5 -48t-48.5 -20z" />
    <glyph glyph-name="wdieresis" unicode="&#x1e85;" horiz-adv-x="723" 
d="M171 0l-158 500h115l99 -327l135 335l134 -335l99 327h115l-158 -500h-86l-104 260l-105 -260h-86zM247 562q-28 0 -48 19.5t-20 47.5t20 48t48 20t48 -20t20 -48t-20 -47.5t-48 -19.5zM477 562q-28 0 -47.5 19.5t-19.5 47.5t19.5 48t47.5 20t47.5 -20t19.5 -48
t-19.5 -47.5t-47.5 -19.5z" />
    <glyph glyph-name="uni1ECA" unicode="&#x1eca;" horiz-adv-x="274" 
d="M79 0v710h116v-710h-116zM135 -194q-29 0 -50 20.5t-21 50.5t21 50.5t50 20.5q30 0 51 -20.5t21 -50.5t-21 -50.5t-51 -20.5z" />
    <glyph glyph-name="uni1ECB" unicode="&#x1ecb;" horiz-adv-x="250" 
d="M70 597q-18 21 -18 48q0 30 21.5 51.5t51.5 21.5t51.5 -21.5t21.5 -51.5q0 -27 -18 -48h-110zM70 0v500h110v-500h-110zM125 -194q-29 0 -50 20.5t-21 50.5t21 50.5t50 20.5q30 0 51 -20.5t21 -50.5t-21 -50.5t-51 -20.5z" />
    <glyph glyph-name="uni1ECC" unicode="&#x1ecc;" 
d="M401 102q105 0 175 73t70 180t-70 180t-175 73t-175 -73t-70 -180t70 -180t175 -73zM401 -8q-151 0 -257 105t-106 258t106 258t257 105q152 0 257.5 -105t105.5 -258t-105.5 -258t-257.5 -105zM400 -194q-29 0 -50 20.5t-21 50.5t21 50.5t50 20.5q30 0 51 -20.5
t21 -50.5t-21 -50.5t-51 -20.5z" />
    <glyph glyph-name="uni1ECD" unicode="&#x1ecd;" horiz-adv-x="598" 
d="M299 97q63 0 104.5 43.5t41.5 109.5t-41.5 109.5t-104.5 43.5q-64 0 -105 -43.5t-41 -109.5t41 -109.5t105 -43.5zM299 -8q-111 0 -185 74t-74 184t74 184t185 74t185 -74t74 -184t-74 -184t-185 -74zM298 -194q-29 0 -50 20.5t-21 50.5t21 50.5t50 20.5q30 0 51 -20.5
t21 -50.5t-21 -50.5t-51 -20.5z" />
    <glyph glyph-name="uni1EE4" unicode="&#x1ee4;" horiz-adv-x="711" 
d="M356 -8q-127 0 -206.5 77t-79.5 207v434h116v-437q0 -81 46.5 -126t123.5 -45t123 45t46 126v437h116v-434q0 -130 -79 -207t-206 -77zM355 -194q-29 0 -50 20.5t-21 50.5t21 50.5t50 20.5q30 0 51 -20.5t21 -50.5t-21 -50.5t-51 -20.5z" />
    <glyph glyph-name="uni1EE5" unicode="&#x1ee5;" horiz-adv-x="580" 
d="M400 0v46q-50 -54 -140 -54q-93 0 -148 59t-55 156v293h110v-291q0 -44 31 -78t83 -34q88 0 119 85v318h110v-500h-110zM282 -194q-29 0 -50 20.5t-21 50.5t21 50.5t50 20.5q30 0 51 -20.5t21 -50.5t-21 -50.5t-51 -20.5z" />
    <glyph glyph-name="Ygrave" unicode="&#x1ef2;" horiz-adv-x="641" 
d="M262 0v299l-261 411h136l183 -293l183 293h137l-262 -411v-299h-116zM286 768l-118 145h130l75 -145h-87z" />
    <glyph glyph-name="ygrave" unicode="&#x1ef3;" horiz-adv-x="509" 
d="M107 -184l90 210l-197 474h118l136 -345l137 345h118l-286 -684h-116zM242 545l-132 165h133l84 -165h-85z" />
    <glyph glyph-name="endash" unicode="&#x2013;" horiz-adv-x="541" 
d="M44 224v105h453v-105h-453z" />
    <glyph glyph-name="emdash" unicode="&#x2014;" horiz-adv-x="841" 
d="M44 224v105h753v-105h-753z" />
    <glyph glyph-name="quoteleft" unicode="&#x2018;" horiz-adv-x="271" 
d="M192 710l-44 -146h58v-141h-141v141l59 146h68z" />
    <glyph glyph-name="quoteright" unicode="&#x2019;" horiz-adv-x="271" 
d="M79 423l44 146h-58v141h141v-141l-59 -146h-68z" />
    <glyph glyph-name="quotesinglbase" unicode="&#x201a;" horiz-adv-x="271" 
d="M79 -146l44 146h-58v141h141v-141l-59 -146h-68z" />
    <glyph glyph-name="quotedblleft" unicode="&#x201c;" horiz-adv-x="477" 
d="M192 710l-44 -146h58v-141h-141v141l59 146h68zM398 710l-44 -146h58v-141h-141v141l59 146h68z" />
    <glyph glyph-name="quotedblright" unicode="&#x201d;" horiz-adv-x="477" 
d="M79 423l44 146h-58v141h141v-141l-59 -146h-68zM285 423l44 146h-58v141h141v-141l-59 -146h-68z" />
    <glyph glyph-name="quotedblbase" unicode="&#x201e;" horiz-adv-x="477" 
d="M79 -146l44 146h-58v141h141v-141l-59 -146h-68zM285 -146l44 146h-58v141h141v-141l-59 -146h-68z" />
    <glyph glyph-name="dagger" unicode="&#x2020;" horiz-adv-x="558" 
d="M231 -98v513h-179v85h179v210h96v-210h179v-85h-179v-513h-96z" />
    <glyph glyph-name="daggerdbl" unicode="&#x2021;" horiz-adv-x="558" 
d="M52 112v85h179v218h-179v85h179v210h96v-210h179v-85h-179v-218h179v-85h-179v-210h-96v210h-179z" />
    <glyph glyph-name="bullet" unicode="&#x2022;" horiz-adv-x="400" 
d="M200 166q-56 0 -96 40t-40 96t40 96t96 40t96 -40t40 -96t-40 -96t-96 -40z" />
    <glyph glyph-name="ellipsis" unicode="&#x2026;" horiz-adv-x="717" 
d="M120 -8q-36 0 -61.5 25.5t-25.5 61.5q0 35 25.5 60.5t61.5 25.5t61 -25.5t25 -60.5q0 -36 -25 -61.5t-61 -25.5zM359 -8q-36 0 -61.5 25.5t-25.5 61.5q0 35 25.5 60.5t61.5 25.5t61 -25.5t25 -60.5q0 -36 -25 -61.5t-61 -25.5zM598 -8q-36 0 -61.5 25.5t-25.5 61.5
q0 35 25.5 60.5t61.5 25.5t61 -25.5t25 -60.5q0 -36 -25 -61.5t-61 -25.5z" />
    <glyph glyph-name="perthousand" unicode="&#x2030;" horiz-adv-x="742" 
d="M212 69q27 0 44.5 18t17.5 44q0 27 -17.5 45.5t-44.5 18.5t-44.5 -18.5t-17.5 -45.5q0 -26 17.5 -44t44.5 -18zM212 -5q-59 0 -99.5 39.5t-40.5 96.5q0 59 40.5 99t99.5 40q58 0 99 -40t41 -99q0 -57 -41 -96.5t-99 -39.5zM212 515q27 0 44.5 18t17.5 45q0 26 -17.5 44
t-44.5 18t-44.5 -18t-17.5 -44q0 -27 17.5 -45t44.5 -18zM212 440q-59 0 -99.5 40t-40.5 98t40.5 97.5t99.5 39.5q58 0 99 -40t41 -97q0 -58 -41 -98t-99 -40zM67 310v88h608v-88h-608zM524 69q27 0 45 18t18 44q0 27 -18 45.5t-45 18.5t-44 -18.5t-17 -45.5q0 -26 17 -44
t44 -18zM524 -5q-58 0 -98.5 39.5t-40.5 96.5q0 59 40 99t99 40t99.5 -40t40.5 -99q0 -57 -40.5 -96.5t-99.5 -39.5z" />
    <glyph glyph-name="guilsinglleft" unicode="&#x2039;" horiz-adv-x="306" 
d="M187 22l-156 228l156 228l75 -51l-121 -177l121 -177z" />
    <glyph glyph-name="guilsinglright" unicode="&#x203a;" horiz-adv-x="306" 
d="M278 250l-156 -228l-75 51l121 177l-121 177l75 51z" />
    <glyph glyph-name="fraction" unicode="&#x2044;" horiz-adv-x="180" 
d="M-115 0h-90l500 710h90z" />
    <glyph glyph-name="zero.superior" unicode="&#x2070;" horiz-adv-x="484" 
d="M242 481q59 0 98 41t39 101t-39 101t-98 41t-98 -41t-39 -101t39 -101t98 -41zM242 405q-91 0 -155 63.5t-64 154.5t64 154.5t155 63.5q90 0 154.5 -64t64.5 -154t-64.5 -154t-154.5 -64z" />
    <glyph glyph-name="four.superior" unicode="&#x2074;" horiz-adv-x="353" 
d="M212 410v101h-220l302 332v-260h43v-72h-43v-101h-82zM144 583h68v75z" />
    <glyph glyph-name="five.superior" unicode="&#x2075;" horiz-adv-x="327" 
d="M158 405q-86 0 -129 61l60 54q23 -39 65 -39q29 0 47.5 19t18.5 47q0 27 -18.5 46.5t-48.5 19.5q-40 0 -57 -35l-53 22v236h228v-76h-146v-76q13 4 33 4q65 0 104.5 -39t39.5 -102q0 -64 -39.5 -103t-104.5 -39z" />
    <glyph glyph-name="six.superior" unicode="&#x2076;" horiz-adv-x="320" 
d="M159 481q30 0 47.5 19t17.5 46t-17.5 46t-47.5 19q-29 0 -47 -19t-18 -46t18 -46t47 -19zM159 405q-63 0 -105 40.5t-42 100.5q0 34 27 82l116 208h90l-84 -150q62 0 104 -40t41 -100q0 -60 -42 -100.5t-105 -40.5z" />
    <glyph glyph-name="seven.superior" unicode="&#x2077;" horiz-adv-x="310" 
d="M27 410l162 350h-169v76h291l-195 -426h-89z" />
    <glyph glyph-name="eight.superior" unicode="&#x2078;" horiz-adv-x="342" 
d="M171 405q-63 0 -105.5 40.5t-42.5 100.5q0 72 59 109q-26 28 -26 70q0 48 33.5 82t81.5 34t81.5 -34t33.5 -82q0 -41 -26 -70q59 -39 59 -109q0 -60 -42.5 -100.5t-105.5 -40.5zM171 481q29 0 47.5 19t18.5 46t-18.5 45.5t-47.5 18.5t-47 -18.5t-18 -45.5t18 -46t47 -19z
M171 686q18 0 28 11t10 28t-10.5 28.5t-27.5 11.5t-27.5 -11.5t-10.5 -28.5t10 -28t28 -11z" />
    <glyph glyph-name="nine.superior" unicode="&#x2079;" horiz-adv-x="320" 
d="M160 635q29 0 47 19t18 46t-18 46t-47 19q-30 0 -47.5 -19t-17.5 -46t17.5 -46t47.5 -19zM74 410l84 150q-62 0 -104 40t-41 100q0 60 42 100.5t105 40.5t105 -40.5t42 -100.5q0 -34 -27 -82l-116 -208h-90z" />
    <glyph glyph-name="plus.superior" unicode="&#x207a;" horiz-adv-x="321" 
d="M29 587v62h100v99h63v-99h99v-62h-99v-100h-63v100h-100z" />
    <glyph glyph-name="minus.superior" unicode="&#x207b;" horiz-adv-x="321" 
d="M29 587v62h262v-62h-262z" />
    <glyph glyph-name="equal.superior" unicode="&#x207c;" horiz-adv-x="322" 
d="M29 524v63h263v-63h-263zM29 649v63h263v-63h-263z" />
    <glyph glyph-name="parenleft.superior" unicode="&#x207d;" horiz-adv-x="164" 
d="M99 308q-66 123 -66 278t66 278l60 -27q-57 -132 -57 -251t57 -251z" />
    <glyph glyph-name="parenright.superior" unicode="&#x207e;" horiz-adv-x="164" 
d="M66 308l-61 27q57 128 57 251t-57 251l61 27q65 -124 65 -278t-65 -278z" />
    <glyph glyph-name="n.superior" unicode="&#x207f;" horiz-adv-x="355" 
d="M38 410v300h81v-22q28 27 75 27q60 0 93.5 -37t33.5 -97v-171h-81v160q0 30 -15.5 49.5t-44.5 19.5q-39 0 -61 -34v-195h-81z" />
    <glyph glyph-name="zero.inferior" unicode="&#x2080;" horiz-adv-x="484" 
d="M242 -44q59 0 98 41t39 101t-39 101t-98 41t-98 -41t-39 -101t39 -101t98 -41zM242 -120q-91 0 -155 63.5t-64 154.5t64 154.5t155 63.5q90 0 154.5 -64t64.5 -154t-64.5 -154t-154.5 -64z" />
    <glyph glyph-name="one.inferior" unicode="&#x2081;" horiz-adv-x="181" 
d="M50 -115v350l81 83v-433h-81z" />
    <glyph glyph-name="two.inferior" unicode="&#x2082;" horiz-adv-x="344" 
d="M5 -115l139 166q-35 0 -72.5 36.5t-37.5 93.5q0 56 40.5 95.5t98.5 39.5q57 0 98 -39.5t41 -95.5q0 -52 -42 -102l-98 -118h139v-76h-306zM173 121q25 0 41 17.5t16 42.5t-16 42t-41 17q-26 0 -41.5 -17t-15.5 -42t15.5 -42.5t41.5 -17.5z" />
    <glyph glyph-name="three.inferior" unicode="&#x2083;" horiz-adv-x="311" 
d="M139 -120q-83 0 -128 61l59 52q23 -37 65 -37q32 0 51.5 19t19.5 52q0 32 -19.5 51.5t-52.5 19.5h-42l69 137h-131v76h251l-75 -152q83 -36 83 -132q0 -66 -41.5 -106.5t-108.5 -40.5z" />
    <glyph glyph-name="four.inferior" unicode="&#x2084;" horiz-adv-x="353" 
d="M212 -115v101h-220l302 332v-260h43v-72h-43v-101h-82zM144 58h68v75z" />
    <glyph glyph-name="five.inferior" unicode="&#x2085;" horiz-adv-x="327" 
d="M158 -120q-86 0 -129 61l60 54q23 -39 65 -39q29 0 47.5 19t18.5 47q0 27 -18.5 46.5t-48.5 19.5q-40 0 -57 -35l-53 22v236h228v-76h-146v-76q13 4 33 4q65 0 104.5 -39t39.5 -102q0 -64 -39.5 -103t-104.5 -39z" />
    <glyph glyph-name="six.inferior" unicode="&#x2086;" horiz-adv-x="320" 
d="M159 -44q30 0 47.5 19t17.5 46t-17.5 46t-47.5 19q-29 0 -47 -19t-18 -46t18 -46t47 -19zM159 -120q-63 0 -105 40.5t-42 100.5q0 34 27 82l116 208h90l-84 -150q62 0 104 -40t41 -100q0 -60 -42 -100.5t-105 -40.5z" />
    <glyph glyph-name="seven.inferior" unicode="&#x2087;" horiz-adv-x="310" 
d="M27 -115l162 350h-169v76h291l-195 -426h-89z" />
    <glyph glyph-name="eight.inferior" unicode="&#x2088;" horiz-adv-x="342" 
d="M171 -120q-63 0 -105.5 40.5t-42.5 100.5q0 72 59 109q-26 28 -26 70q0 48 33.5 82t81.5 34t81.5 -34t33.5 -82q0 -41 -26 -70q59 -39 59 -109q0 -60 -42.5 -100.5t-105.5 -40.5zM171 -44q29 0 47.5 19t18.5 46t-18.5 45.5t-47.5 18.5t-47 -18.5t-18 -45.5t18 -46t47 -19
zM171 161q18 0 28 11t10 28t-10.5 28.5t-27.5 11.5t-27.5 -11.5t-10.5 -28.5t10 -28t28 -11z" />
    <glyph glyph-name="nine.inferior" unicode="&#x2089;" horiz-adv-x="320" 
d="M160 110q29 0 47 19t18 46t-18 46t-47 19q-30 0 -47.5 -19t-17.5 -46t17.5 -46t47.5 -19zM74 -115l84 150q-62 0 -104 40t-41 100q0 60 42 100.5t105 40.5t105 -40.5t42 -100.5q0 -34 -27 -82l-116 -208h-90z" />
    <glyph glyph-name="parenleft.inferior" unicode="&#x208d;" horiz-adv-x="164" 
d="M99 -217q-66 123 -66 278t66 278l60 -27q-57 -132 -57 -251t57 -251z" />
    <glyph glyph-name="parenright.inferior" unicode="&#x208e;" horiz-adv-x="164" 
d="M66 -217l-61 27q57 128 57 251t-57 251l61 27q65 -124 65 -278t-65 -278z" />
    <glyph glyph-name="Euro" unicode="&#x20ac;" horiz-adv-x="711" 
d="M14 397l26 62h85q33 115 128 187t218 72q119 0 213 -66l-39 -100q-73 64 -174 64q-79 0 -141 -42.5t-90 -114.5h363l-26 -62h-353q-3 -21 -3 -42q0 -28 2 -41h318l-26 -62h-276q28 -73 90.5 -115.5t141.5 -42.5t147 44v-115q-70 -31 -147 -31q-124 0 -218.5 72.5
t-127.5 187.5h-111l26 62h73q-2 13 -2 41t2 42h-99z" />
    <glyph glyph-name="afii61289" unicode="&#x2113;" horiz-adv-x="501" 
d="M288 -8q-77 0 -119.5 39t-43.5 131l-55 -46l-57 80l112 87v208q0 227 160 227q156 0 156 -172q0 -139 -186 -275l-21 -18v-67q3 -51 17 -73.5t48 -22.5q40 0 88 38l44 -75q-68 -61 -143 -61zM234 523v-155l7 6q99 78 99 169q0 36 -14 60.5t-41 24.5q-51 0 -51 -105z" />
    <glyph glyph-name="afii61352" unicode="&#x2116;" horiz-adv-x="1118" 
d="M764 245h292v95h-292v-95zM910 482q32 0 52.5 22t20.5 56t-20.5 56t-52.5 22t-52.5 -22t-20.5 -56t20.5 -56t52.5 -22zM910 405q-66 0 -111 45t-45 110t45 110t111 45q65 0 110.5 -45t45.5 -110t-45.5 -110t-110.5 -45zM680 -8l-485 461v-453h-116v718l485 -461v453h116
v-718z" />
    <glyph glyph-name="uni2117" unicode="&#x2117;" 
d="M295 174v362h141q53 0 86 -37t33 -86q0 -48 -33.5 -85.5t-85.5 -36.5h-67v-117h-74zM368 361h60q25 -1 39.5 15.5t14.5 37.5q0 19 -14.5 35.5t-39.5 16.5h-60v-105zM401 72q118 0 198.5 81t80.5 202q0 122 -80.5 202.5t-198.5 80.5t-199 -81t-81 -202t81 -202t199 -81z
M401 -8q-151 0 -257 104.5t-106 258.5t106 258.5t257 104.5t257 -104.5t106 -258.5t-106 -258.5t-257 -104.5z" />
    <glyph glyph-name="trademark" unicode="&#x2122;" horiz-adv-x="816" 
d="M370 334v388l187 -190l187 190v-388h-76v210l-111 -112l-111 112v-210h-76zM137 334v302h-95v74h268v-74h-96v-302h-77z" />
    <glyph glyph-name="estimated" unicode="&#x212e;" horiz-adv-x="574" 
d="M294 -8q-113 0 -183.5 74.5t-70.5 185.5q0 112 72 184t178 72q112 0 177.5 -72.5t66.5 -180.5h-382v-194q21 -22 62.5 -36.5t87.5 -14.5q66 0 119.5 35.5t75.5 97.5h24q-23 -67 -81.5 -109t-145.5 -42zM152 440v-167h270v167q-48 50 -133 50q-81 0 -137 -50z" />
    <glyph glyph-name="onethird" unicode="&#x2153;" horiz-adv-x="766" 
d="M64 284v350l82 83v-433h-82zM31 0h90l500 710h-90zM594 -5q-83 0 -128 61l58 52q25 -37 66 -37q32 0 51.5 19t19.5 52q0 32 -19.5 51.5t-52.5 19.5h-42l68 137h-130v76h251l-76 -152q83 -35 83 -132q0 -66 -41 -106.5t-108 -40.5z" />
    <glyph glyph-name="twothirds" unicode="&#x2154;" horiz-adv-x="912" 
d="M15 284l139 166q-35 0 -72.5 36.5t-37.5 93.5q0 56 40.5 95.5t98.5 39.5q57 0 98 -39.5t41 -95.5q0 -52 -42 -102l-98 -118h139v-76h-306zM183 520q25 0 41 17.5t16 42.5t-16 42t-41 17q-26 0 -41.5 -17t-15.5 -42t15.5 -42.5t41.5 -17.5zM177 0h90l500 710h-90zM740 -5
q-83 0 -128 61l58 52q25 -37 66 -37q32 0 51.5 19t19.5 52q0 32 -19.5 51.5t-52.5 19.5h-42l68 137h-130v76h251l-76 -152q83 -35 83 -132q0 -66 -41 -106.5t-108 -40.5z" />
    <glyph glyph-name="uni2155" unicode="&#x2155;" horiz-adv-x="784" 
d="M64 284v350l82 83v-433h-82zM31 0h90l500 710h-90zM600 -5q-86 0 -129 61l60 54q23 -39 64 -39q30 0 48 19t18 47q0 27 -18 46.5t-48 19.5q-40 0 -57 -35l-53 22v236h228v-76h-147v-76q15 4 34 4q65 0 104.5 -39t39.5 -102q0 -64 -39.5 -103t-104.5 -39z" />
    <glyph glyph-name="uni2156" unicode="&#x2156;" horiz-adv-x="930" 
d="M15 284l139 166q-35 0 -72.5 36.5t-37.5 93.5q0 56 40.5 95.5t98.5 39.5q57 0 98 -39.5t41 -95.5q0 -52 -42 -102l-98 -118h139v-76h-306zM183 520q25 0 41 17.5t16 42.5t-16 42t-41 17q-26 0 -41.5 -17t-15.5 -42t15.5 -42.5t41.5 -17.5zM177 0h90l500 710h-90zM746 -5
q-86 0 -129 61l60 54q23 -39 64 -39q30 0 48 19t18 47q0 27 -18 46.5t-48 19.5q-40 0 -57 -35l-53 22v236h228v-76h-147v-76q15 4 34 4q65 0 104.5 -39t39.5 -102q0 -64 -39.5 -103t-104.5 -39z" />
    <glyph glyph-name="uni2157" unicode="&#x2157;" horiz-adv-x="899" 
d="M178 279q-83 0 -128 61l58 52q25 -37 66 -37q32 0 51.5 19t19.5 52q0 32 -19.5 51.5t-52.5 19.5h-42l68 137h-130v76h251l-76 -152q83 -35 83 -132q0 -66 -41 -106.5t-108 -40.5zM145 0h90l500 710h-90zM714 -5q-86 0 -129 61l60 54q23 -39 64 -39q30 0 48 19t18 47
q0 27 -18 46.5t-48 19.5q-40 0 -57 -35l-53 22v236h228v-76h-147v-76q15 4 34 4q65 0 104.5 -39t39.5 -102q0 -64 -39.5 -103t-104.5 -39z" />
    <glyph glyph-name="uni2158" unicode="&#x2158;" horiz-adv-x="883" 
d="M180 284v101h-220l302 332v-260h43v-72h-43v-101h-82zM111 457h69v75zM130 0h90l500 710h-90zM699 -5q-86 0 -129 61l60 54q23 -39 64 -39q30 0 48 19t18 47q0 27 -18 46.5t-48 19.5q-40 0 -57 -35l-53 22v236h228v-76h-147v-76q15 4 34 4q65 0 104.5 -39t39.5 -102
q0 -64 -39.5 -103t-104.5 -39z" />
    <glyph glyph-name="uni2159" unicode="&#x2159;" horiz-adv-x="752" 
d="M64 284v350l82 83v-433h-82zM31 0h90l500 710h-90zM584 -5q-63 0 -105 40.5t-42 100.5q0 34 27 82l116 208h90l-84 -150q62 0 104 -40t41 -100q0 -60 -42 -100.5t-105 -40.5zM584 71q30 0 47.5 19t17.5 46t-17.5 46t-47.5 19q-29 0 -47 -19t-18 -46t18 -46t47 -19z" />
    <glyph glyph-name="uni215A" unicode="&#x215a;" horiz-adv-x="884" 
d="M184 279q-86 0 -129 61l60 54q23 -39 64 -39q30 0 48 19t18 47q0 27 -18 46.5t-48 19.5q-40 0 -57 -35l-53 22v236h228v-76h-147v-76q15 4 34 4q65 0 104.5 -39t39.5 -102q0 -64 -39.5 -103t-104.5 -39zM163 0h90l500 710h-90zM716 -5q-63 0 -105 40.5t-42 100.5
q0 34 27 82l116 208h90l-84 -150q62 0 104 -40t41 -100q0 -60 -42 -100.5t-105 -40.5zM716 71q30 0 47.5 19t17.5 46t-17.5 46t-47.5 19q-29 0 -47 -19t-18 -46t18 -46t47 -19z" />
    <glyph glyph-name="oneeighth" unicode="&#x215b;" horiz-adv-x="758" 
d="M64 284v350l82 83v-433h-82zM31 0h90l500 710h-90zM587 -5q-63 0 -105.5 40.5t-42.5 100.5q0 72 59 109q-26 28 -26 70q0 48 33.5 82t81.5 34t81.5 -34t33.5 -82q0 -41 -26 -70q59 -39 59 -109q0 -60 -42.5 -100.5t-105.5 -40.5zM587 71q29 0 47.5 19t18.5 46t-18.5 45.5
t-47.5 18.5t-47 -18.5t-18 -45.5t18 -46t47 -19zM587 276q18 0 28 11t10 28t-10.5 28.5t-27.5 11.5t-27.5 -11.5t-10.5 -28.5t10 -28t28 -11z" />
    <glyph glyph-name="threeeighths" unicode="&#x215c;" horiz-adv-x="872" 
d="M178 279q-83 0 -128 61l58 52q25 -37 66 -37q32 0 51.5 19t19.5 52q0 32 -19.5 51.5t-52.5 19.5h-42l68 137h-130v76h251l-76 -152q83 -35 83 -132q0 -66 -41 -106.5t-108 -40.5zM145 0h90l500 710h-90zM701 -5q-63 0 -105.5 40.5t-42.5 100.5q0 72 59 109q-26 28 -26 70
q0 48 33.5 82t81.5 34t81.5 -34t33.5 -82q0 -41 -26 -70q59 -39 59 -109q0 -60 -42.5 -100.5t-105.5 -40.5zM701 71q29 0 47.5 19t18.5 46t-18.5 45.5t-47.5 18.5t-47 -18.5t-18 -45.5t18 -46t47 -19zM701 276q18 0 28 11t10 28t-10.5 28.5t-27.5 11.5t-27.5 -11.5
t-10.5 -28.5t10 -28t28 -11z" />
    <glyph glyph-name="fiveeighths" unicode="&#x215d;" horiz-adv-x="890" 
d="M184 279q-86 0 -129 61l60 54q23 -39 64 -39q30 0 48 19t18 47q0 27 -18 46.5t-48 19.5q-40 0 -57 -35l-53 22v236h228v-76h-147v-76q15 4 34 4q65 0 104.5 -39t39.5 -102q0 -64 -39.5 -103t-104.5 -39zM163 0h90l500 710h-90zM719 -5q-63 0 -105.5 40.5t-42.5 100.5
q0 72 59 109q-26 28 -26 70q0 48 33.5 82t81.5 34t81.5 -34t33.5 -82q0 -41 -26 -70q59 -39 59 -109q0 -60 -42.5 -100.5t-105.5 -40.5zM719 71q29 0 47.5 19t18.5 46t-18.5 45.5t-47.5 18.5t-47 -18.5t-18 -45.5t18 -46t47 -19zM719 276q18 0 28 11t10 28t-10.5 28.5
t-27.5 11.5t-27.5 -11.5t-10.5 -28.5t10 -28t28 -11z" />
    <glyph glyph-name="seveneighths" unicode="&#x215e;" horiz-adv-x="803" 
d="M27 284l162 350h-169v76h291l-195 -426h-89zM76 0h90l500 710h-90zM632 -5q-63 0 -105.5 40.5t-42.5 100.5q0 72 59 109q-26 28 -26 70q0 48 33.5 82t81.5 34t81.5 -34t33.5 -82q0 -41 -26 -70q59 -39 59 -109q0 -60 -42.5 -100.5t-105.5 -40.5zM632 71q29 0 47.5 19
t18.5 46t-18.5 45.5t-47.5 18.5t-47 -18.5t-18 -45.5t18 -46t47 -19zM632 276q18 0 28 11t10 28t-10.5 28.5t-27.5 11.5t-27.5 -11.5t-10.5 -28.5t10 -28t28 -11z" />
    <glyph glyph-name="uni215F" unicode="&#x215f;" horiz-adv-x="416" 
d="M64 284v350l82 83v-433h-82zM31 0h90l500 710h-90z" />
    <glyph glyph-name="uni2190" unicode="&#x2190;" horiz-adv-x="800" 
d="M346 -57l-306 306l306 306l61 -63l-199 -199h552v-88h-552l199 -199z" />
    <glyph glyph-name="uni2191" unicode="&#x2191;" horiz-adv-x="800" 
d="M356 0v552l-199 -199l-63 61l306 306l306 -306l-63 -61l-199 199v-552h-88z" />
    <glyph glyph-name="uni2192" unicode="&#x2192;" horiz-adv-x="800" 
d="M454 -57l-61 63l199 199h-552v88h552l-199 199l61 63l306 -306z" />
    <glyph glyph-name="uni2193" unicode="&#x2193;" horiz-adv-x="800" 
d="M706 296l-306 -306l-306 306l63 61l199 -199v552h88v-552l199 199z" />
    <glyph glyph-name="uni2196" unicode="&#x2196;" horiz-adv-x="800" 
d="M700 67l-63 -62l-418 417v-283h-87v433h433v-88h-284z" />
    <glyph glyph-name="uni2197" unicode="&#x2197;" horiz-adv-x="800" 
d="M163 5l-63 62l419 417h-284v88h433v-433h-87v283z" />
    <glyph glyph-name="uni2198" unicode="&#x2198;" horiz-adv-x="800" 
d="M668 0h-433v88h284l-419 417l63 62l418 -417v283h87v-433z" />
    <glyph glyph-name="uni2199" unicode="&#x2199;" horiz-adv-x="800" 
d="M133 0v433h87v-283l418 417l63 -62l-419 -417h284v-88h-433z" />
    <glyph glyph-name="uni219E" unicode="&#x219e;" horiz-adv-x="800" 
d="M598 -29l-262 262h-142l199 -199l-61 -63l-306 306l306 306l61 -63l-199 -199h142l262 262l61 -63l-199 -199h286v-88h-286l199 -199z" />
    <glyph glyph-name="uni219F" unicode="&#x219f;" horiz-adv-x="800" 
d="M157 87l-63 61l262 262v142l-199 -199l-63 61l306 306l306 -306l-63 -61l-199 199v-142l262 -262l-63 -61l-199 199v-286h-88v286z" />
    <glyph glyph-name="uni21A0" unicode="&#x21a0;" horiz-adv-x="800" 
d="M450 233l-262 -262l-61 63l199 199h-286v88h286l-199 199l61 63l262 -262h142l-199 199l61 63l306 -306l-306 -306l-61 63l199 199h-142z" />
    <glyph glyph-name="uni21A1" unicode="&#x21a1;" horiz-adv-x="800" 
d="M706 296l-306 -306l-306 306l63 61l199 -199v142l-262 262l63 61l199 -199v286h88v-286l199 199l63 -61l-262 -262v-142l199 199z" />
    <glyph glyph-name="uni21A2" unicode="&#x21a2;" horiz-adv-x="800" 
d="M812 6l-61 -63l-262 262h-319l199 -199l-61 -63l-306 306l306 306l61 -63l-199 -199h319l262 262l61 -63l-244 -243z" />
    <glyph glyph-name="uni21A3" unicode="&#x21a3;" horiz-adv-x="800" 
d="M64 -57l-61 63l244 243l-244 243l61 63l262 -262h319l-199 199l61 63l306 -306l-306 -306l-61 63l199 199h-319z" />
    <glyph glyph-name="uni21A4" unicode="&#x21a4;" horiz-adv-x="800" 
d="M640 -1v206h-464l199 -199l-61 -63l-306 306l306 306l61 -63l-199 -199h464v206h88v-500h-88z" />
    <glyph glyph-name="uni21A5" unicode="&#x21a5;" horiz-adv-x="800" 
d="M150 0v88h206v464l-199 -199l-63 61l306 306l306 -306l-63 -61l-199 199v-464h206v-88h-500z" />
    <glyph glyph-name="uni21A6" unicode="&#x21a6;" horiz-adv-x="800" 
d="M161 0h-88v500h88v-206h464l-199 199l61 63l306 -306l-306 -306l-61 63l199 199h-464v-206z" />
    <glyph glyph-name="uni21A7" unicode="&#x21a7;" horiz-adv-x="800" 
d="M356 622h-206v88h500v-88h-206v-464l199 199l63 -61l-306 -306l-306 306l63 61l199 -199v464z" />
    <glyph glyph-name="uni21B0" unicode="&#x21b0;" horiz-adv-x="800" 
d="M744 -184h-88v389h-464l199 -199l-61 -63l-306 306l306 306l61 -63l-199 -199h552v-477z" />
    <glyph glyph-name="uni21B1" unicode="&#x21b1;" horiz-adv-x="800" 
d="M56 -184v477h552l-199 199l61 63l306 -306l-306 -306l-61 63l199 199h-464v-389h-88z" />
    <glyph glyph-name="uni21B2" unicode="&#x21b2;" horiz-adv-x="800" 
d="M329 -57l-306 306l306 306l61 -63l-199 -199h464v389h88v-477h-552l199 -199z" />
    <glyph glyph-name="uni21B3" unicode="&#x21b3;" horiz-adv-x="800" 
d="M776 249l-306 -306l-61 63l199 199h-552v477h88v-389h464l-199 199l61 63z" />
    <glyph glyph-name="partialdiff" unicode="&#x2202;" horiz-adv-x="580" 
d="M289 -8q-106 0 -177.5 72.5t-71.5 176.5q0 102 70 175t173 73q91 0 140 -54q-27 89 -98.5 136.5t-174.5 47.5h-9v95h8q97 0 173 -34t123 -92.5t71 -133t24 -160.5q0 -136 -64 -219t-187 -83zM289 83q68 0 110.5 45.5t42.5 112.5t-42.5 112.5t-110.5 45.5
q-67 0 -110.5 -46t-43.5 -112t43.5 -112t110.5 -46z" />
    <glyph glyph-name="product" unicode="&#x220f;" horiz-adv-x="632" 
d="M89 -184v894h454v-894h-89v806h-275v-806h-90z" />
    <glyph glyph-name="summation" unicode="&#x2211;" horiz-adv-x="570" 
d="M52 -184v83l246 364l-246 364v83h461v-88h-345l242 -359l-242 -359h345v-88h-461z" />
    <glyph glyph-name="minus" unicode="&#x2212;" horiz-adv-x="615" 
d="M89 233v88h437v-88h-437z" />
    <glyph glyph-name="radical" unicode="&#x221a;" horiz-adv-x="668" 
d="M274 -18l-142 249h-90v88h141l73 -135l233 622h157v-88h-93z" />
    <glyph glyph-name="infinity" unicode="&#x221e;" horiz-adv-x="777" 
d="M516 113q-79 0 -127 56q-50 -56 -128 -56q-72 0 -122 49.5t-50 120.5t50 120.5t122 49.5q77 0 128 -56q49 56 127 56q72 0 122 -49.5t50 -120.5t-50 -120.5t-122 -49.5zM261 199q37 0 60.5 24.5t23.5 59.5t-23.5 59.5t-60.5 24.5t-60 -24.5t-23 -59.5t23 -59.5t60 -24.5z
M516 199q37 0 60 24.5t23 59.5t-23 59.5t-60 24.5t-60 -24.5t-23 -59.5t23 -59.5t60 -24.5z" />
    <glyph glyph-name="integral" unicode="&#x222b;" horiz-adv-x="404" 
d="M51 -189v88h33q43 0 57.5 14t14.5 57v590q0 81 38 117.5t129 36.5h30v-88h-35q-43 0 -57 -14t-14 -57v-590q0 -81 -37.5 -117.5t-128.5 -36.5h-30z" />
    <glyph glyph-name="approxequal" unicode="&#x2248;" horiz-adv-x="597" 
d="M89 105v108l108 73l198 -76l113 74v-103l-109 -76l-198 76zM89 293v108l108 73l198 -76l113 74v-103l-109 -76l-198 76z" />
    <glyph glyph-name="notequal" unicode="&#x2260;" horiz-adv-x="620" 
d="M89 339v88h278l84 115l69 -50l-47 -65h58v-88h-122l-89 -124h211v-88h-275l-86 -120l-69 51l50 69h-62v88h125l90 124h-215z" />
    <glyph glyph-name="lessequal" unicode="&#x2264;" horiz-adv-x="633" 
d="M527 128l-455 209l455 211v-98l-245 -113l245 -112v-97zM72 0v88h455v-88h-455z" />
    <glyph glyph-name="greaterequal" unicode="&#x2265;" horiz-adv-x="633" 
d="M106 128v97l244 112l-244 113v98l455 -211zM106 0v88h455v-88h-455z" />
    <glyph glyph-name="uni25A0" unicode="&#x25a0;" horiz-adv-x="640" 
d="M70 0v500h500v-500h-500z" />
    <glyph glyph-name="uni25A1" unicode="&#x25a1;" horiz-adv-x="640" 
d="M70 0v500h500v-500h-500zM180 391v-282h280v282h-280z" />
    <glyph glyph-name="square" unicode="&#x25ab;" horiz-adv-x="640" 
d="M69 0v500h500v-500h-500zM179 391v-282h280v282h-280z" />
    <glyph glyph-name="Triangle.up" unicode="&#x25b3;" horiz-adv-x="790" 
d="M189 111h410l-204 378zM-1 0l396 718l396 -718h-792z" />
    <glyph glyph-name="triangle.up" unicode="&#x25b5;" horiz-adv-x="563" 
d="M162 96h239l-120 221zM-3 0l284 512l285 -512h-569z" />
    <glyph glyph-name="Triangle.down" unicode="&#x25bd;" horiz-adv-x="790" 
d="M395 -8l-396 718h792zM395 221l204 378h-410z" />
    <glyph glyph-name="triangle.down" unicode="&#x25bf;" horiz-adv-x="563" 
d="M281 183l120 221h-239zM281 -12l-284 512h569z" />
    <glyph glyph-name="lozenge" unicode="&#x25ca;" horiz-adv-x="672" 
d="M336 134l172 221l-172 221l-172 -221zM336 -8l-284 363l284 364l284 -364z" />
    <glyph glyph-name="uni25CB" unicode="&#x25cb;" horiz-adv-x="591" 
d="M295 100q65 0 106.5 43.5t41.5 106.5t-41.5 106.5t-106.5 43.5q-63 0 -105 -43.5t-42 -106.5t42 -106.5t105 -43.5zM295 -8q-109 0 -183.5 75.5t-74.5 182.5t74.5 182.5t183.5 75.5t184 -75.5t75 -182.5t-75 -182.5t-184 -75.5z" />
    <glyph glyph-name="uni25CF" unicode="&#x25cf;" horiz-adv-x="591" 
d="M296 -8q-109 0 -184 75.5t-75 182.5t75 182.5t184 75.5q108 0 183 -75.5t75 -182.5t-75 -182.5t-183 -75.5z" />
    <glyph glyph-name="Circle" unicode="&#x25ef;" 
d="M401 108q103 0 174 71.5t71 175.5t-71 175.5t-174 71.5q-104 0 -174.5 -71.5t-70.5 -175.5t70.5 -175.5t174.5 -71.5zM401 -8q-152 0 -257.5 105.5t-105.5 257.5t105.5 257.5t257.5 105.5t257.5 -105.5t105.5 -257.5t-105.5 -257.5t-257.5 -105.5z" />
    <glyph glyph-name="Square" unicode="&#x25fb;" horiz-adv-x="866" 
d="M195 116h476v478h-476v-478zM78 0v710h710v-710h-710z" />
    <glyph glyph-name="fi" unicode="&#xfb01;" horiz-adv-x="609" 
d="M20 402v98h79q-34 36 -34 86q0 54 39 89t102 35h132v-98h-102q-31 0 -48.5 -14t-17.5 -40q0 -25 15.5 -40.5t37.5 -17.5h115v-98h-130v-402h-110v402h-78zM429 597q-18 21 -18 48q0 30 21.5 51.5t51.5 21.5t51.5 -21.5t21.5 -51.5q0 -27 -18 -48h-110zM429 0v500h110
v-500h-110z" />
    <glyph glyph-name="fl" unicode="&#xfb02;" horiz-adv-x="609" 
d="M20 402v98h79q-34 36 -34 86q0 54 39 89t102 35h132v-98h-102q-31 0 -48.5 -14t-17.5 -40q0 -25 15.5 -40.5t37.5 -17.5h115v-98h-130v-402h-110v402h-78zM429 0v710h110v-710h-110z" />
    <glyph glyph-name="CR" horiz-adv-x="0" 
 />
    <glyph glyph-name="apple" horiz-adv-x="596" 
d="M298 -8q-106 0 -182 76t-76 182t76 182t182 76l-60 -151h88l-52 -137l188 194h-117l33 81q78 -26 128 -93.5t50 -151.5q0 -106 -76 -182t-182 -76z" />
    <glyph glyph-name="dotaccent.low" horiz-adv-x="229" 
d="M114 -194q-29 0 -50 20.5t-21 50.5t21 50.5t50 20.5q30 0 51 -20.5t21 -50.5t-21 -50.5t-51 -20.5z" />
    <glyph glyph-name="commaaccent" horiz-adv-x="283" 
d="M54 -243l59 193h114l-100 -193h-73z" />
    <glyph glyph-name="zero.slashed" horiz-adv-x="815" 
d="M407 -8q-151 0 -257.5 105.5t-106.5 257.5t106.5 257.5t257.5 105.5q152 0 258.5 -105.5t106.5 -257.5t-106.5 -257.5t-258.5 -105.5zM407 94q109 0 181.5 75.5t72.5 185.5q0 23 -3 42l-475 -168q31 -62 90.5 -98.5t133.5 -36.5zM154 355q0 -14 2 -38l473 169
q-33 60 -91.5 95t-130.5 35q-109 0 -181 -75.5t-72 -185.5z" />
    <glyph glyph-name="one.pof" horiz-adv-x="269" 
d="M80 0v443l109 110v-553h-109z" />
    <glyph glyph-name="two.pof" horiz-adv-x="492" 
d="M8 0l215 202q-59 3 -106.5 47.5t-47.5 119.5t53.5 127t131.5 52q79 0 132.5 -52t53.5 -127q0 -54 -28 -99.5t-79 -92.5l-85 -80h188v-97h-428zM254 290q34 0 57 23t23 56t-23 55.5t-57 22.5t-57 -22.5t-23 -55.5t23 -56t57 -23z" />
    <glyph glyph-name="three.pof" horiz-adv-x="490" 
d="M210 -142q-66 0 -118.5 27t-81.5 65l74 73q52 -63 122 -63q62 0 100.5 38t38.5 99q0 59 -38.5 96t-104.5 34h-34l109 215h-236v98h393l-118 -235q65 -28 102.5 -81.5t37.5 -126.5q0 -108 -66.5 -173.5t-179.5 -65.5z" />
    <glyph glyph-name="four.pof" horiz-adv-x="576" 
d="M369 -134v159h-387l492 523v-429h89v-94h-89v-159h-105zM204 119h165v175z" />
    <glyph glyph-name="five.pof" horiz-adv-x="520" 
d="M247 -142q-66 0 -120 28.5t-82 67.5l74 73q57 -67 122 -67q58 0 92.5 36.5t34.5 88.5q0 53 -35 90t-94 37q-64 0 -101 -48l-66 34v342h358v-98h-253v-143q32 14 76 14q102 0 163.5 -64t61.5 -164q0 -99 -62.5 -163t-168.5 -64z" />
    <glyph glyph-name="six.pof" horiz-adv-x="511" 
d="M256 -8q-96 0 -161.5 65t-65.5 158q0 56 32 115l182 344h122l-127 -238q10 2 27 2q86 0 151.5 -64.5t65.5 -158.5q0 -92 -66 -157.5t-160 -65.5zM256 94q49 0 82 35.5t33 85.5t-33 86.5t-82 36.5q-50 0 -83 -36.5t-33 -86.5t33 -85.5t83 -35.5z" />
    <glyph glyph-name="seven.pof" horiz-adv-x="499" 
d="M70 -134l265 576h-307v98h469l-309 -674h-118z" />
    <glyph glyph-name="eight.pof" horiz-adv-x="561" 
d="M280 -8q-98 0 -165 63t-67 156q0 112 93 167q-50 47 -50 120q0 78 54 131t135 53t135.5 -53t54.5 -131q0 -73 -50 -120q92 -56 92 -167q0 -93 -67 -156t-165 -63zM280 94q53 0 87.5 32.5t34.5 84.5q0 51 -34.5 83.5t-87.5 32.5t-87 -32.5t-34 -83.5q0 -52 34 -84.5
t87 -32.5zM273 415h7h7q34 2 55.5 25t21.5 58q0 37 -23.5 59.5t-60.5 22.5q-36 0 -59.5 -22.5t-23.5 -59.5q0 -35 21 -58t55 -25z" />
    <glyph glyph-name="nine.pof" horiz-adv-x="511" 
d="M256 548q96 0 161.5 -65t65.5 -158q0 -56 -32 -115l-182 -344h-122l127 238q-10 -2 -27 -2q-86 0 -151.5 64.5t-65.5 158.5q0 92 66 157.5t160 65.5zM256 446q-49 0 -82 -35.5t-33 -85.5t33 -86.5t82 -36.5q50 0 83 36.5t33 86.5t-33 85.5t-83 35.5z" />
    <glyph glyph-name="zero.pof" horiz-adv-x="640" 
d="M320 94q76 0 122.5 50.5t46.5 125.5t-46.5 125.5t-122.5 50.5q-75 0 -122 -50.5t-47 -125.5t47 -125.5t122 -50.5zM320 -8q-118 0 -199 81.5t-81 196.5t81 196.5t199 81.5t199 -81.5t81 -196.5t-81 -196.5t-199 -81.5z" />
    <glyph glyph-name="zero.slashed.pof" horiz-adv-x="640" 
d="M320 -8q-118 0 -199 81.5t-81 196.5t81 196.5t199 81.5t199 -81.5t81 -196.5t-81 -196.5t-199 -81.5zM320 94q76 0 122.5 50.5t46.5 125.5q0 11 -1 17l-314 -110q46 -83 146 -83zM151 270v-17l314 112q-46 81 -145 81q-75 0 -122 -50.5t-47 -125.5z" />
    <glyph glyph-name="one.tlf" horiz-adv-x="590" 
d="M110 0v103h138v504h-87v103h195v-607h138v-103h-384z" />
    <glyph glyph-name="two.tlf" horiz-adv-x="590" 
d="M44 0l252 287q-93 0 -153 62.5t-60 149.5q0 93 64.5 156t160.5 63q95 0 160 -63.5t65 -155.5q0 -106 -89 -207l-166 -189h254v-103h-488zM308 382q51 0 83 33t32 84q0 50 -32 83.5t-83 33.5q-52 0 -83.5 -33.5t-31.5 -83.5q0 -51 31.5 -84t83.5 -33z" />
    <glyph glyph-name="three.tlf" horiz-adv-x="590" 
d="M274 -8q-64 0 -119.5 27t-88.5 75l81 68q42 -68 123 -68q60 0 99 36.5t39 98.5q-1 62 -39.5 100t-102.5 38h-67l130 239h-233v104h400l-140 -258q77 -23 120 -82t43 -141q0 -106 -67.5 -171.5t-177.5 -65.5z" />
    <glyph glyph-name="four.tlf" horiz-adv-x="590" 
d="M376 0v183h-396l505 535v-432h83v-103h-83v-183h-109zM214 286h162v171z" />
    <glyph glyph-name="five.tlf" horiz-adv-x="590" 
d="M280 -8q-65 0 -123 27.5t-89 74.5l82 70q18 -30 51.5 -50t74.5 -20q58 0 95 37.5t37 93.5q0 58 -36.5 96t-97.5 38q-68 0 -105 -56l-72 32v375h369v-103h-259v-162q35 16 72 16q110 0 175.5 -66t65.5 -170q0 -103 -66.5 -168t-173.5 -65z" />
    <glyph glyph-name="six.tlf" horiz-adv-x="590" 
d="M295 -8q-102 0 -170.5 67t-68.5 165q0 58 43 133l204 353h122l-150 -258q15 3 30 3q91 0 160 -65.5t69 -165.5q0 -98 -68.5 -165t-170.5 -67zM295 94q57 0 92.5 37.5t35.5 92.5q0 54 -35.5 92t-92.5 38q-56 0 -92 -38t-36 -92q0 -55 35.5 -92.5t92.5 -37.5z" />
    <glyph glyph-name="seven.tlf" horiz-adv-x="590" 
d="M91 0l286 607h-309v103h474l-333 -710h-118z" />
    <glyph glyph-name="eight.tlf" horiz-adv-x="590" 
d="M295 -8q-102 0 -171.5 66t-69.5 163q0 61 29 110t79 78q-52 47 -52 124q0 78 53.5 131.5t131.5 53.5q79 0 133 -53.5t54 -131.5q0 -75 -53 -125q50 -29 79 -78t29 -109q0 -97 -69.5 -163t-172.5 -66zM295 94q58 0 94.5 36.5t36.5 90.5t-36.5 91t-94.5 37q-57 0 -93 -37
t-36 -91t36 -90.5t93 -36.5zM295 450q36 0 59 23.5t23 59.5t-23 59.5t-59 23.5t-58 -23.5t-22 -59.5t22 -59.5t58 -23.5z" />
    <glyph glyph-name="nine.tlf" horiz-adv-x="590" 
d="M295 718q102 0 170.5 -67t68.5 -165q0 -58 -43 -133l-204 -353h-122l150 258q-15 -3 -30 -3q-91 0 -160 65.5t-69 165.5q0 98 68.5 165t170.5 67zM295 616q-57 0 -92.5 -37.5t-35.5 -92.5q0 -54 35.5 -92t92.5 -38q56 0 92 38t36 92q0 55 -35.5 92.5t-92.5 37.5z" />
    <glyph glyph-name="zero.tlf" horiz-adv-x="590" 
d="M295 94q76 0 122.5 50.5t46.5 125.5t-46.5 125.5t-122.5 50.5q-75 0 -122 -50.5t-47 -125.5t47 -125.5t122 -50.5zM295 -8q-118 0 -199 81.5t-81 196.5t81 196.5t199 81.5t199 -81.5t81 -196.5t-81 -196.5t-199 -81.5z" />
    <glyph glyph-name="zero.slashed.tlf" horiz-adv-x="590" 
d="M295 -8q-118 0 -199 81.5t-81 196.5t81 196.5t199 81.5t199 -81.5t81 -196.5t-81 -196.5t-199 -81.5zM295 94q76 0 122.5 50.5t46.5 125.5q0 11 -1 17l-314 -110q46 -83 146 -83zM126 270v-17l314 112q-46 81 -145 81q-75 0 -122 -50.5t-47 -125.5z" />
    <glyph glyph-name="one.case" horiz-adv-x="312" 
d="M98 0v602l116 116v-718h-116z" />
    <glyph glyph-name="two.case" horiz-adv-x="587" 
d="M30 0l247 284q-79 0 -142.5 60t-63.5 154q0 92 65.5 156t161.5 64q95 0 160.5 -64t65.5 -156q0 -98 -92 -199l-163 -191h254v-108h-493zM298 385q49 0 79.5 32t30.5 81q0 48 -30.5 80.5t-79.5 32.5q-50 0 -80.5 -32.5t-30.5 -80.5q0 -50 30.5 -81.5t80.5 -31.5z" />
    <glyph glyph-name="three.case" horiz-adv-x="537" 
d="M243 -8q-65 0 -120.5 27t-88.5 75l84 72q42 -67 120 -67q59 0 96.5 35.5t37.5 95.5q-1 60 -38 97t-99 37h-68l127 238h-230v108h404l-137 -257q74 -23 116 -82t42 -141q0 -107 -68 -172.5t-178 -65.5z" />
    <glyph glyph-name="four.case" horiz-adv-x="607" 
d="M382 0v180h-393l508 538v-429h81v-109h-81v-180h-115zM235 289h147v155z" />
    <glyph glyph-name="five.case" horiz-adv-x="561" 
d="M268 -8q-65 0 -123 27.5t-89 74.5l85 74q19 -30 51 -49.5t71 -19.5q57 0 92.5 36.5t35.5 90.5q0 55 -35 91.5t-94 36.5q-69 0 -103 -56l-76 33v379h372v-108h-256v-154q37 14 68 14q110 0 175.5 -66t65.5 -170t-66 -169t-174 -65z" />
    <glyph glyph-name="six.case" horiz-adv-x="552" 
d="M275 -8q-102 0 -171 67t-69 166q0 58 43 133l202 352h128l-147 -256q16 2 26 2q92 -1 160.5 -66.5t68.5 -164.5t-69.5 -166t-171.5 -67zM275 99q56 0 90 36.5t34 89.5q0 52 -34.5 88.5t-89.5 36.5t-89 -36.5t-34 -88.5q0 -53 34 -89.5t89 -36.5z" />
    <glyph glyph-name="seven.case" horiz-adv-x="530" 
d="M60 0l283 602h-303v108h476l-331 -710h-125z" />
    <glyph glyph-name="eight.case" horiz-adv-x="593" 
d="M296 -8q-103 0 -172.5 66t-69.5 164q0 60 28 108.5t77 77.5q-50 48 -50 123q0 78 54 132.5t133 54.5t133.5 -54.5t54.5 -132.5q0 -74 -51 -123q50 -29 78 -77.5t28 -108.5q0 -98 -70 -164t-173 -66zM296 99q56 0 91 35.5t35 87.5t-35 88t-91 36q-55 0 -90 -36t-35 -88
q0 -51 35 -87t90 -36zM296 452q35 0 56.5 22.5t21.5 56.5t-21.5 57t-56.5 23q-34 0 -55.5 -23t-21.5 -57t21.5 -56.5t55.5 -22.5z" />
    <glyph glyph-name="nine.case" horiz-adv-x="552" 
d="M143 0l147 256q-16 -2 -26 -2q-92 1 -160.5 66.5t-68.5 164.5t69.5 166t171.5 67t171 -67t69 -166q0 -58 -43 -133l-202 -352h-128zM276 360q55 0 89 36.5t34 88.5q0 53 -34 89.5t-89 36.5q-56 0 -90 -36.5t-34 -89.5q0 -52 34.5 -88.5t89.5 -36.5z" />
    <glyph glyph-name="zero.case" horiz-adv-x="833" 
d="M416 99q107 0 177.5 74t70.5 182t-70.5 182t-177.5 74t-177.5 -74t-70.5 -182t70.5 -182t177.5 -74zM416 -8q-151 0 -257.5 105.5t-106.5 257.5t106.5 257.5t257.5 105.5q152 0 258.5 -105.5t106.5 -257.5t-106.5 -257.5t-258.5 -105.5z" />
    <glyph glyph-name="zero.slashed.case" horiz-adv-x="833" 
d="M416 -8q-151 0 -257.5 105.5t-106.5 257.5t106.5 257.5t257.5 105.5q152 0 258.5 -105.5t106.5 -257.5t-106.5 -257.5t-258.5 -105.5zM416 99q107 0 177.5 74t70.5 182q0 21 -3 40l-464 -164q31 -61 88.5 -96.5t130.5 -35.5zM168 355q0 -24 2 -36l462 165
q-32 58 -89 92.5t-127 34.5q-107 0 -177.5 -74t-70.5 -182z" />
    <glyph glyph-name="a.superior" horiz-adv-x="360" 
d="M241 410v20q-28 -25 -71 -25q-65 0 -107 45t-42 110t42 110t107 45q41 0 71 -25v20h81v-300h-81zM179 481q40 0 62 31v96q-23 31 -62 31q-34 0 -55 -22.5t-21 -56.5t21 -56.5t55 -22.5z" />
    <glyph glyph-name="b.superior" horiz-adv-x="360" 
d="M38 410v426h81v-146q30 25 72 25q65 0 106.5 -45.5t41.5 -109.5t-41.5 -109.5t-106.5 -45.5q-44 0 -72 25v-20h-81zM181 639q-39 0 -62 -31v-96q22 -31 62 -31q34 0 55 22.5t21 56.5t-21 56.5t-55 22.5z" />
    <glyph glyph-name="c.superior" horiz-adv-x="314" 
d="M176 405q-66 0 -111 45t-45 110t45 110t111 45q79 0 125 -63l-62 -49q-23 35 -63 35q-32 0 -52.5 -22t-20.5 -56t20.5 -56t52.5 -22q40 0 63 35l62 -49q-46 -63 -125 -63z" />
    <glyph glyph-name="d.superior" horiz-adv-x="360" 
d="M241 410v20q-28 -25 -71 -25q-65 0 -107 45t-42 110t42 110t107 45q41 0 71 -25v146h81v-426h-81zM179 481q40 0 62 31v96q-23 31 -62 31q-34 0 -55 -22.5t-21 -56.5t21 -56.5t55 -22.5z" />
    <glyph glyph-name="e.superior" horiz-adv-x="338" 
d="M174 405q-64 0 -109 44t-45 111t43.5 111t111.5 44q61 0 102 -39.5t42 -109.5q0 -3 -0.5 -11t-0.5 -12h-218q4 -29 25 -45t49 -16q46 0 69 36l62 -48q-46 -65 -131 -65zM169 647q-22 0 -42 -13t-26 -39h135q-9 52 -67 52z" />
    <glyph glyph-name="f.superior" horiz-adv-x="216" 
d="M10 638v72h45q-19 21 -19 50q0 33 22.5 54.5t60.5 21.5h88v-72h-60q-33 0 -33 -26q0 -12 8 -20t19 -8h66v-72h-73v-228h-82v228h-42z" />
    <glyph glyph-name="g.superior" horiz-adv-x="354" 
d="M171 294q-81 0 -133 34l39 72q39 -31 90 -31q76 0 76 54q0 17 -7 27q-32 -25 -73 -25q-65 0 -104.5 42t-39.5 103q0 60 39.5 102.5t104.5 42.5q43 0 71 -25v20h82v-241q12 -28 12 -59q0 -59 -45.5 -87.5t-111.5 -28.5zM171 500q40 0 63 31v78q-22 30 -63 30
q-31 0 -50.5 -20t-19.5 -49t19.5 -49.5t50.5 -20.5z" />
    <glyph glyph-name="h.superior" horiz-adv-x="355" 
d="M38 410v426h81v-148q28 27 75 27q60 0 93.5 -37t33.5 -97v-171h-81v160q0 30 -15.5 49.5t-44.5 19.5q-39 0 -61 -34v-195h-81z" />
    <glyph glyph-name="i.superior" horiz-adv-x="158" 
d="M40 758q-11 14 -11 33q0 20 14.5 35t35.5 15t35.5 -15t14.5 -35q0 -19 -12 -33h-77zM38 410v300h82v-300h-82z" />
    <glyph glyph-name="j.superior" horiz-adv-x="159" 
d="M-24 300v77h16q47 0 47 37v296h82v-304q0 -106 -124 -106h-21zM41 758q-11 14 -11 33q0 20 14.5 35t35.5 15t35.5 -15t14.5 -35q0 -19 -11 -33h-78z" />
    <glyph glyph-name="k.superior" horiz-adv-x="331" 
d="M38 410v426h81v-264l106 138h95l-110 -142l125 -158h-97l-119 149v-149h-81z" />
    <glyph glyph-name="l.superior" horiz-adv-x="158" 
d="M38 410v426h82v-426h-82z" />
    <glyph glyph-name="m.superior" horiz-adv-x="532" 
d="M417 410v160q0 69 -53 69q-36 0 -57 -34q2 -16 2 -24v-171h-81v160q0 30 -13 49.5t-40 19.5q-37 0 -56 -33v-196h-81v300h81v-22q29 27 72 27q56 0 88 -40q37 40 97 40t91.5 -37.5t31.5 -96.5v-171h-82z" />
    <glyph glyph-name="o.superior" horiz-adv-x="352" 
d="M176 482q32 0 52.5 22t20.5 56t-20.5 56t-52.5 22t-52.5 -22t-20.5 -56t20.5 -56t52.5 -22zM176 405q-66 0 -111 45t-45 110t45 110t111 45q65 0 110.5 -45t45.5 -110t-45.5 -110t-110.5 -45z" />
    <glyph glyph-name="p.superior" horiz-adv-x="360" 
d="M38 300v410h81v-20q30 25 72 25q65 0 106.5 -45.5t41.5 -109.5t-41.5 -109.5t-106.5 -45.5q-44 0 -72 25v-130h-81zM181 639q-39 0 -62 -31v-96q22 -31 62 -31q34 0 55 22.5t21 56.5t-21 56.5t-55 22.5z" />
    <glyph glyph-name="q.superior" horiz-adv-x="360" 
d="M241 300v130q-28 -25 -71 -25q-65 0 -107 45t-42 110t42 110t107 45q41 0 71 -25v20h81v-410h-81zM179 481q40 0 62 31v96q-23 31 -62 31q-34 0 -55 -22.5t-21 -56.5t21 -56.5t55 -22.5z" />
    <glyph glyph-name="r.superior" horiz-adv-x="230" 
d="M38 410v300h81v-28q27 33 72 33q16 0 28 -4v-85q-16 8 -41 8q-40 0 -59 -27v-197h-81z" />
    <glyph glyph-name="s.superior" horiz-adv-x="249" 
d="M124 405q-81 0 -118 63l63 43q20 -38 57 -38q29 0 29 19q0 10 -8 16t-31 15l-17 7q-77 30 -77 95q0 39 28.5 64.5t71.5 25.5q62 0 95 -49l-51 -45q-17 27 -43 27t-26 -18q0 -9 8 -15t31 -15l16 -6q80 -31 80 -96q0 -43 -30.5 -68t-77.5 -25z" />
    <glyph glyph-name="t.superior" horiz-adv-x="241" 
d="M12 638l-17 72h58v50l82 41v-91h89l-16 -72h-73v-115q0 -21 8.5 -29.5t29.5 -8.5h46v-75h-74q-43 0 -67.5 24.5t-24.5 67.5v136h-41z" />
    <glyph glyph-name="u.superior" horiz-adv-x="354" 
d="M235 410v23q-31 -28 -76 -28q-59 0 -92.5 36.5t-33.5 97.5v171h82v-160q0 -30 15 -49.5t43 -19.5q44 0 62 36v193h82v-300h-82z" />
    <glyph glyph-name="v.superior" horiz-adv-x="330" 
d="M165 405l-171 305h94l77 -148l77 148h94z" />
    <glyph glyph-name="w.superior" horiz-adv-x="436" 
d="M98 410l-95 300h85l54 -180l76 185l76 -185l54 180h86l-96 -300h-62l-58 137l-58 -137h-62z" />
    <glyph glyph-name="x.superior" horiz-adv-x="329" 
d="M2 410l110 151l-105 149h95l63 -92l62 92h94l-104 -149l110 -151h-95l-68 96l-68 -96h-94z" />
    <glyph glyph-name="y.superior" horiz-adv-x="309" 
d="M66 300l45 116l-113 294h87l70 -196l69 196h87l-159 -410h-86z" />
    <glyph glyph-name="z.superior" horiz-adv-x="306" 
d="M9 410l148 229h-130v71h267l-147 -229h138v-71h-276z" />
    <glyph glyph-name="zero.slashed.superior" horiz-adv-x="484" 
d="M242 405q-91 0 -155 63.5t-64 154.5t64 154.5t155 63.5q90 0 154.5 -64t64.5 -154t-64.5 -154t-154.5 -64zM242 481q59 0 98 41t39 101q0 1 -0.5 4t-0.5 5l-251 -89q39 -62 115 -62zM105 623v-9l251 89q-40 62 -114 62q-59 0 -98 -41t-39 -101z" />
    <glyph glyph-name="period.superior" horiz-adv-x="188" 
d="M94 405q-25 0 -42.5 17.5t-17.5 42.5t17.5 42.5t42.5 17.5t42.5 -17.5t17.5 -42.5t-17.5 -42.5t-42.5 -17.5z" />
    <glyph glyph-name="hyphen.superior" horiz-adv-x="217" 
d="M26 579v78h165v-78h-165z" />
    <glyph glyph-name="comma.superior" horiz-adv-x="176" 
d="M51 319l27 91h-39v97h98v-97l-38 -91h-48z" />
    <glyph glyph-name="a.inferior" horiz-adv-x="360" 
d="M241 -115v20q-28 -25 -71 -25q-65 0 -107 45t-42 110t42 110t107 45q41 0 71 -25v20h81v-300h-81zM179 -44q40 0 62 31v96q-23 31 -62 31q-34 0 -55 -22.5t-21 -56.5t21 -56.5t55 -22.5z" />
    <glyph glyph-name="b.inferior" horiz-adv-x="360" 
d="M38 -115v426h81v-146q30 25 72 25q65 0 106.5 -45.5t41.5 -109.5t-41.5 -109.5t-106.5 -45.5q-44 0 -72 25v-20h-81zM181 114q-39 0 -62 -31v-96q22 -31 62 -31q34 0 55 22.5t21 56.5t-21 56.5t-55 22.5z" />
    <glyph glyph-name="c.inferior" horiz-adv-x="314" 
d="M176 -120q-66 0 -111 45t-45 110t45 110t111 45q79 0 125 -63l-62 -49q-23 35 -63 35q-32 0 -52.5 -22t-20.5 -56t20.5 -56t52.5 -22q40 0 63 35l62 -49q-46 -63 -125 -63z" />
    <glyph glyph-name="d.inferior" horiz-adv-x="360" 
d="M241 -115v20q-28 -25 -71 -25q-65 0 -107 45t-42 110t42 110t107 45q41 0 71 -25v146h81v-426h-81zM179 -44q40 0 62 31v96q-23 31 -62 31q-34 0 -55 -22.5t-21 -56.5t21 -56.5t55 -22.5z" />
    <glyph glyph-name="e.inferior" horiz-adv-x="338" 
d="M174 -120q-64 0 -109 44t-45 111t43.5 111t111.5 44q61 0 102 -39.5t42 -109.5q0 -3 -0.5 -11t-0.5 -12h-218q4 -29 25 -45t49 -16q46 0 69 36l62 -48q-46 -65 -131 -65zM169 122q-22 0 -42 -13t-26 -39h135q-9 52 -67 52z" />
    <glyph glyph-name="f.inferior" horiz-adv-x="216" 
d="M10 113v72h45q-19 21 -19 50q0 33 22.5 54.5t60.5 21.5h88v-72h-60q-33 0 -33 -26q0 -12 8 -20t19 -8h66v-72h-73v-228h-82v228h-42z" />
    <glyph glyph-name="g.inferior" horiz-adv-x="354" 
d="M171 -231q-81 0 -133 34l39 72q39 -31 90 -31q76 0 76 54q0 16 -7 27q-32 -25 -73 -25q-65 0 -104.5 42t-39.5 103q0 60 39.5 102.5t104.5 42.5q43 0 71 -25v20h82v-241q12 -28 12 -59q0 -59 -45.5 -87.5t-111.5 -28.5zM171 -25q40 0 63 31v78q-22 30 -63 30
q-31 0 -50.5 -20t-19.5 -49t19.5 -49.5t50.5 -20.5z" />
    <glyph glyph-name="h.inferior" horiz-adv-x="355" 
d="M38 -115v426h81v-148q29 27 75 27q60 0 93.5 -37t33.5 -97v-171h-81v160q0 30 -15.5 49.5t-44.5 19.5q-39 0 -61 -34v-195h-81z" />
    <glyph glyph-name="i.inferior" horiz-adv-x="158" 
d="M40 233q-11 14 -11 33q0 20 14.5 35t35.5 15t35.5 -15t14.5 -35t-12 -33h-77zM38 -115v300h82v-300h-82z" />
    <glyph glyph-name="j.inferior" horiz-adv-x="159" 
d="M-24 -225v77h16q47 0 47 37v296h82v-304q0 -106 -124 -106h-21zM41 233q-11 14 -11 33q0 20 14.5 35t35.5 15t35.5 -15t14.5 -35q0 -19 -11 -33h-78z" />
    <glyph glyph-name="k.inferior" horiz-adv-x="331" 
d="M38 -115v426h81v-264l106 138h95l-110 -142l125 -158h-97l-119 149v-149h-81z" />
    <glyph glyph-name="l.inferior" horiz-adv-x="158" 
d="M38 -115v426h82v-426h-82z" />
    <glyph glyph-name="m.inferior" horiz-adv-x="532" 
d="M417 -115v160q0 69 -53 69q-36 0 -57 -34q2 -16 2 -24v-171h-81v160q0 30 -13 49.5t-40 19.5q-37 0 -56 -33v-196h-81v300h81v-22q29 27 72 27q56 0 88 -40q37 40 97 40t91.5 -37.5t31.5 -96.5v-171h-82z" />
    <glyph glyph-name="n.inferior" horiz-adv-x="355" 
d="M38 -115v300h81v-22q29 27 75 27q60 0 93.5 -37t33.5 -97v-171h-81v160q0 30 -15.5 49.5t-44.5 19.5q-39 0 -61 -34v-195h-81z" />
    <glyph glyph-name="o.inferior" horiz-adv-x="352" 
d="M176 -43q32 0 52.5 22t20.5 56t-20.5 56t-52.5 22t-52.5 -22t-20.5 -56t20.5 -56t52.5 -22zM176 -120q-66 0 -111 45t-45 110t45 110t111 45q65 0 110.5 -45t45.5 -110t-45.5 -110t-110.5 -45z" />
    <glyph glyph-name="p.inferior" horiz-adv-x="360" 
d="M38 -225v410h81v-20q30 25 72 25q65 0 106.5 -45.5t41.5 -109.5t-41.5 -109.5t-106.5 -45.5q-44 0 -72 25v-130h-81zM181 114q-39 0 -62 -31v-96q22 -31 62 -31q34 0 55 22.5t21 56.5t-21 56.5t-55 22.5z" />
    <glyph glyph-name="q.inferior" horiz-adv-x="360" 
d="M241 -225v130q-28 -25 -71 -25q-65 0 -107 45t-42 110t42 110t107 45q41 0 71 -25v20h81v-410h-81zM179 -44q40 0 62 31v96q-23 31 -62 31q-34 0 -55 -22.5t-21 -56.5t21 -56.5t55 -22.5z" />
    <glyph glyph-name="r.inferior" horiz-adv-x="230" 
d="M38 -115v300h81v-28q27 33 72 33q16 0 28 -4v-85q-16 8 -41 8q-40 0 -59 -27v-197h-81z" />
    <glyph glyph-name="s.inferior" horiz-adv-x="249" 
d="M124 -120q-81 0 -118 63l63 43q20 -38 57 -38q29 0 29 19q0 10 -8 16t-31 15l-17 7q-77 30 -77 95q0 39 28.5 64.5t71.5 25.5q62 0 95 -49l-51 -45q-17 27 -43 27t-26 -18q0 -9 8 -15t31 -15l16 -6q80 -31 80 -96q0 -43 -30.5 -68t-77.5 -25z" />
    <glyph glyph-name="t.inferior" horiz-adv-x="241" 
d="M12 113l-17 72h58v50l82 41v-91h89l-16 -72h-73v-115q0 -21 8.5 -29.5t29.5 -8.5h46v-75h-74q-43 0 -67.5 24.5t-24.5 67.5v136h-41z" />
    <glyph glyph-name="u.inferior" horiz-adv-x="354" 
d="M235 -115v23q-31 -28 -76 -28q-59 0 -92.5 36.5t-33.5 97.5v171h82v-160q0 -30 15 -49.5t43 -19.5q44 0 62 36v193h82v-300h-82z" />
    <glyph glyph-name="v.inferior" horiz-adv-x="330" 
d="M165 -120l-171 305h94l77 -148l77 148h94z" />
    <glyph glyph-name="w.inferior" horiz-adv-x="436" 
d="M98 -115l-95 300h85l54 -180l76 185l76 -185l54 180h86l-96 -300h-62l-58 137l-58 -137h-62z" />
    <glyph glyph-name="x.inferior" horiz-adv-x="329" 
d="M2 -115l110 151l-105 149h95l63 -92l62 92h94l-104 -149l110 -151h-95l-68 96l-68 -96h-94z" />
    <glyph glyph-name="y.inferior" horiz-adv-x="309" 
d="M66 -225l45 116l-113 294h87l70 -196l69 196h87l-159 -410h-86z" />
    <glyph glyph-name="z.inferior" horiz-adv-x="306" 
d="M9 -115l148 229h-130v71h267l-147 -229h138v-71h-276z" />
    <glyph glyph-name="zero.slashed.inferior" horiz-adv-x="484" 
d="M242 -120q-91 0 -155 63.5t-64 154.5t64 154.5t155 63.5q90 0 154.5 -64t64.5 -154t-64.5 -154t-154.5 -64zM242 -44q59 0 98 41t39 101q0 2 -0.5 5t-0.5 4l-251 -89q39 -62 115 -62zM105 98v-9l251 89q-40 62 -114 62q-59 0 -98 -41t-39 -101z" />
    <glyph glyph-name="period.inferior" horiz-adv-x="188" 
d="M94 -120q-25 0 -42.5 17.5t-17.5 42.5t17.5 42.5t42.5 17.5t42.5 -17.5t17.5 -42.5t-17.5 -42.5t-42.5 -17.5z" />
    <glyph glyph-name="hyphen.inferior" horiz-adv-x="217" 
d="M26 54v78h165v-78h-165z" />
    <glyph glyph-name="comma.inferior" horiz-adv-x="176" 
d="M51 -206l27 91h-39v97h98v-97l-38 -91h-48z" />
    <glyph glyph-name="equal.inferior" horiz-adv-x="322" 
d="M29 -1v63h263v-63h-263zM29 124v63h263v-63h-263z" />
    <glyph glyph-name="plus.inferior" horiz-adv-x="321" 
d="M29 62v62h100v99h63v-99h99v-62h-99v-100h-63v100h-100z" />
    <glyph glyph-name="minus.inferior" horiz-adv-x="321" 
d="M29 62v62h262v-62h-262z" />
    <glyph glyph-name="one.numerator" horiz-adv-x="236" 
d="M64 284v350l82 83v-433h-82z" />
    <glyph glyph-name="two.numerator" horiz-adv-x="382" 
d="M15 284l139 166q-35 0 -72.5 36.5t-37.5 93.5q0 56 40.5 95.5t98.5 39.5q57 0 98 -39.5t41 -95.5q0 -52 -42 -102l-98 -118h139v-76h-306zM183 520q25 0 41 17.5t16 42.5t-16 42t-41 17q-26 0 -41.5 -17t-15.5 -42t15.5 -42.5t41.5 -17.5z" />
    <glyph glyph-name="three.numerator" horiz-adv-x="350" 
d="M178 279q-83 0 -128 61l58 52q25 -37 66 -37q32 0 51.5 19t19.5 52q0 32 -19.5 51.5t-52.5 19.5h-42l68 137h-130v76h251l-76 -152q83 -35 83 -132q0 -66 -41 -106.5t-108 -40.5z" />
    <glyph glyph-name="four.numerator" horiz-adv-x="335" 
d="M180 284v101h-220l302 332v-260h43v-72h-43v-101h-82zM111 457h69v75z" />
    <glyph glyph-name="five.numerator" horiz-adv-x="368" 
d="M184 279q-86 0 -129 61l60 54q23 -39 64 -39q30 0 48 19t18 47q0 27 -18 46.5t-48 19.5q-40 0 -57 -35l-53 22v236h228v-76h-147v-76q15 4 34 4q65 0 104.5 -39t39.5 -102q0 -64 -39.5 -103t-104.5 -39z" />
    <glyph glyph-name="six.numerator" horiz-adv-x="336" 
d="M168 279q-63 0 -105 40.5t-42 100.5q0 34 27 82l116 208h90l-84 -150q62 0 104 -40t41 -100q0 -60 -42 -100.5t-105 -40.5zM168 355q30 0 47.5 19t17.5 46t-17.5 46t-47.5 19q-29 0 -47 -19t-18 -46t18 -46t47 -19z" />
    <glyph glyph-name="seven.numerator" horiz-adv-x="281" 
d="M27 284l162 350h-169v76h291l-195 -426h-89z" />
    <glyph glyph-name="eight.numerator" horiz-adv-x="342" 
d="M171 279q-63 0 -105.5 40.5t-42.5 100.5q0 72 59 109q-26 28 -26 70q0 48 33.5 82t81.5 34t81.5 -34t33.5 -82q0 -41 -26 -70q59 -39 59 -109q0 -60 -42.5 -100.5t-105.5 -40.5zM171 355q29 0 47.5 19t18.5 46t-18.5 45.5t-47.5 18.5t-47 -18.5t-18 -45.5t18 -46t47 -19z
M171 560q18 0 28 11t10 28t-10.5 28.5t-27.5 11.5t-27.5 -11.5t-10.5 -28.5t10 -28t28 -11z" />
    <glyph glyph-name="nine.numerator" horiz-adv-x="336" 
d="M82 284l84 150q-62 0 -104 40t-41 100q0 60 42 100.5t105 40.5t105 -40.5t42 -100.5q0 -34 -27 -82l-116 -208h-90zM168 509q29 0 47 19t18 46t-18 46t-47 19q-30 0 -47.5 -19t-17.5 -46t17.5 -46t47.5 -19z" />
    <glyph glyph-name="zero.numerator" horiz-adv-x="505" 
d="M252 355q59 0 98 41t39 101t-39 101t-98 41t-98 -41t-39 -101t39 -101t98 -41zM252 279q-90 0 -154.5 64t-64.5 154t64.5 154t154.5 64q91 0 155.5 -63.5t64.5 -154.5t-64.5 -154.5t-155.5 -63.5z" />
    <glyph glyph-name="zero.slashed.numerator" horiz-adv-x="504" 
d="M252 279q-91 0 -155 63.5t-64 154.5t64 154.5t155 63.5q90 0 154.5 -64t64.5 -154t-64.5 -154t-154.5 -64zM252 355q59 0 98 41t39 101q0 1 -0.5 4t-0.5 5l-251 -89q39 -62 115 -62zM115 497v-9l251 89q-40 62 -114 62q-59 0 -98 -41t-39 -101z" />
    <glyph glyph-name="one.denominator" horiz-adv-x="236" 
d="M64 0v350l82 83v-433h-82z" />
    <glyph glyph-name="two.denominator" horiz-adv-x="382" 
d="M15 0l139 166q-35 0 -72.5 36.5t-37.5 93.5q0 56 40.5 95.5t98.5 39.5q57 0 98 -39.5t41 -95.5q0 -52 -42 -102l-98 -118h139v-76h-306zM183 236q25 0 41 17.5t16 42.5t-16 42t-41 17q-26 0 -41.5 -17t-15.5 -42t15.5 -42.5t41.5 -17.5z" />
    <glyph glyph-name="three.denominator" horiz-adv-x="350" 
d="M178 -5q-83 0 -128 61l58 52q25 -37 66 -37q32 0 51.5 19t19.5 52q0 32 -19.5 51.5t-52.5 19.5h-42l68 137h-130v76h251l-76 -152q83 -35 83 -132q0 -66 -41 -106.5t-108 -40.5z" />
    <glyph glyph-name="four.denominator" horiz-adv-x="335" 
d="M180 0v101h-220l302 332v-260h43v-72h-43v-101h-82zM111 173h69v75z" />
    <glyph glyph-name="five.denominator" horiz-adv-x="368" 
d="M184 -5q-86 0 -129 61l60 54q23 -39 64 -39q30 0 48 19t18 47q0 27 -18 46.5t-48 19.5q-40 0 -57 -35l-53 22v236h228v-76h-147v-76q15 4 34 4q65 0 104.5 -39t39.5 -102q0 -64 -39.5 -103t-104.5 -39z" />
    <glyph glyph-name="six.denominator" horiz-adv-x="336" 
d="M168 -5q-63 0 -105 40.5t-42 100.5q0 34 27 82l116 208h90l-84 -150q62 0 104 -40t41 -100q0 -60 -42 -100.5t-105 -40.5zM168 71q30 0 47.5 19t17.5 46t-17.5 46t-47.5 19q-29 0 -47 -19t-18 -46t18 -46t47 -19z" />
    <glyph glyph-name="seven.denominator" horiz-adv-x="281" 
d="M27 0l162 350h-169v76h291l-195 -426h-89z" />
    <glyph glyph-name="eight.denominator" horiz-adv-x="342" 
d="M171 -5q-63 0 -105.5 40.5t-42.5 100.5q0 72 59 109q-26 28 -26 70q0 48 33.5 82t81.5 34t81.5 -34t33.5 -82q0 -41 -26 -70q59 -39 59 -109q0 -60 -42.5 -100.5t-105.5 -40.5zM171 71q29 0 47.5 19t18.5 46t-18.5 45.5t-47.5 18.5t-47 -18.5t-18 -45.5t18 -46t47 -19z
M171 276q18 0 28 11t10 28t-10.5 28.5t-27.5 11.5t-27.5 -11.5t-10.5 -28.5t10 -28t28 -11z" />
    <glyph glyph-name="nine.denominator" horiz-adv-x="336" 
d="M82 0l84 150q-62 0 -104 40t-41 100q0 60 42 100.5t105 40.5t105 -40.5t42 -100.5q0 -34 -27 -82l-116 -208h-90zM168 225q29 0 47 19t18 46t-18 46t-47 19q-30 0 -47.5 -19t-17.5 -46t17.5 -46t47.5 -19z" />
    <glyph glyph-name="zero.denominator" horiz-adv-x="505" 
d="M252 71q59 0 98 41t39 101t-39 101t-98 41t-98 -41t-39 -101t39 -101t98 -41zM252 -5q-90 0 -154.5 64t-64.5 154t64.5 154t154.5 64q91 0 155.5 -63.5t64.5 -154.5t-64.5 -154.5t-155.5 -63.5z" />
    <glyph glyph-name="zero.slashed.denominator" horiz-adv-x="504" 
d="M252 -5q-91 0 -155 63.5t-64 154.5t64 154.5t155 63.5q90 0 154.5 -64t64.5 -154t-64.5 -154t-154.5 -64zM252 71q59 0 98 41t39 101q0 1 -0.5 4t-0.5 5l-251 -89q39 -62 115 -62zM115 213v-9l251 89q-40 62 -114 62q-59 0 -98 -41t-39 -101z" />
    <glyph glyph-name="ampersand.case" horiz-adv-x="640" 
d="M259 -8q-96 0 -161 65.5t-65 159.5t65 159.5t161 65.5h8l-141 268h390v-114h-199l314 -596h-131l-55 107q-54 -115 -186 -115zM259 101q48 0 80 33t32 83q0 49 -32.5 82.5t-79.5 33.5q-49 0 -81 -33t-32 -83t32 -83t81 -33z" />
    <glyph glyph-name="hyphen.case" horiz-adv-x="364" 
d="M53 298v109h258v-109h-258z" />
    <glyph glyph-name="endash.case" horiz-adv-x="559" 
d="M53 300v105h453v-105h-453z" />
    <glyph glyph-name="emdash.case" horiz-adv-x="859" 
d="M806 300h-753v105h753v-105z" />
    <glyph glyph-name="question.case" horiz-adv-x="498" 
d="M191 280v106h57q50 0 81 32t31 81t-31 81t-81 32t-81 -32t-31 -81h-113q0 93 64.5 156t160.5 63q95 0 160 -63.5t65 -155.5t-65 -155.5t-160 -63.5h-57zM243 -8q-35 0 -60.5 25.5t-25.5 61.5q0 44 36 70h101q36 -27 36 -70q0 -36 -25.5 -61.5t-61.5 -25.5z" />
    <glyph glyph-name="questiondown.case" horiz-adv-x="498" 
d="M250 -8q-95 0 -160 63.5t-65 155.5t65 155.5t160 63.5h57v-106h-57q-50 0 -81 -32t-31 -81t31 -81t81 -32t81 32t31 81h113q0 -93 -64.5 -156t-160.5 -63zM204 561q-36 27 -36 70q0 36 25.5 61.5t61.5 25.5q35 0 60.5 -25.5t25.5 -61.5q0 -44 -36 -70h-101z" />
    <glyph glyph-name="exclam.case" horiz-adv-x="317" 
d="M122 233l-22 192v285h117v-285l-21 -192h-74zM158 -8q-35 0 -60.5 25.5t-25.5 61.5q0 44 36 70h101q36 -27 36 -70q0 -36 -25.5 -61.5t-61.5 -25.5z" />
    <glyph glyph-name="exclamdown.case" horiz-adv-x="317" 
d="M195 478l22 -192v-285h-117v285l21 192h74zM159 719q35 0 60.5 -25.5t25.5 -61.5q0 -44 -36 -70h-101q-36 27 -36 70q0 36 25.5 61.5t61.5 25.5z" />
    <glyph glyph-name="guilsinglleft.case" horiz-adv-x="324" 
d="M196 82l-156 228l156 228l75 -51l-121 -177l121 -177z" />
    <glyph glyph-name="guilsinglright.case" horiz-adv-x="324" 
d="M284 310l-156 -228l-75 51l121 177l-121 177l75 51z" />
    <glyph glyph-name="guillemotleft.case" horiz-adv-x="539" 
d="M411 82l-156 228l156 228l75 -51l-121 -177l121 -177zM196 82l-156 228l156 228l75 -51l-121 -177l121 -177z" />
    <glyph glyph-name="guillemotright.case" horiz-adv-x="539" 
d="M499 310l-156 -228l-75 51l121 177l-121 177l75 51zM284 310l-156 -228l-75 51l121 177l-121 177l75 51z" />
    <glyph glyph-name="parenleft.case" horiz-adv-x="272" 
d="M173 -9q-110 180 -110 364q0 183 110 365l80 -37q-49 -92 -71 -168t-22 -160q0 -85 21.5 -159.5t70.5 -167.5z" />
    <glyph glyph-name="parenright.case" horiz-adv-x="272" 
d="M99 -9l-79 37q49 93 70.5 167.5t21.5 159.5q0 84 -22 160t-71 168l80 37q110 -182 110 -365q0 -184 -110 -364z" />
    <glyph glyph-name="bracketleft.case" horiz-adv-x="298" 
d="M74 0v710h203v-85h-107v-540h107v-85h-203z" />
    <glyph glyph-name="bracketright.case" horiz-adv-x="298" 
d="M224 710v-710h-203v85h107v540h-107v85h203z" />
    <glyph glyph-name="braceleft.case" horiz-adv-x="321" 
d="M237 0q-135 0 -135 143v105q0 33 -12 49t-44 16h-13v84h13q32 0 44 16t12 49v105q0 143 132 143h65v-85h-42q-33 0 -45.5 -15t-12.5 -51v-98q0 -84 -57 -106q57 -23 57 -106v-98q0 -36 12.5 -51t45.5 -15h42v-85h-62z" />
    <glyph glyph-name="braceright.case" horiz-adv-x="321" 
d="M84 0h-62v85h42q33 0 45.5 15t12.5 51v98q0 83 57 106q-57 22 -57 106v98q0 36 -12.5 51t-45.5 15h-42v85h65q132 0 132 -143v-105q0 -33 12 -49t44 -16h13v-84h-13q-32 0 -44 -16t-12 -49v-105q0 -143 -135 -143z" />
    <glyph glyph-name="bar.case" horiz-adv-x="263" 
d="M83 0v710h97v-710h-97z" />
    <glyph glyph-name="brokenbar.case" horiz-adv-x="263" 
d="M83 0v292h97v-292h-97zM83 419v291h97v-291h-97z" />
    <glyph glyph-name="periodcentered.case" horiz-adv-x="301" 
d="M151 266q-36 0 -61.5 25.5t-25.5 61.5q0 35 25.5 60.5t61.5 25.5t61 -25.5t25 -60.5q0 -36 -25 -61.5t-61 -25.5z" />
    <glyph glyph-name="plus.case" horiz-adv-x="633" 
d="M98 308v88h174v170h89v-170h174v-88h-174v-174h-89v174h-174z" />
    <glyph glyph-name="minus.case" horiz-adv-x="633" 
d="M98 308v88h437v-88h-437z" />
    <glyph glyph-name="divide.case" horiz-adv-x="633" 
d="M316 121q-29 0 -50 21t-21 50q0 30 21 50.5t50 20.5q30 0 51 -20.5t21 -50.5q0 -29 -21 -50t-51 -21zM98 308v88h437v-88h-437zM316 440q-29 0 -50 21t-21 51q0 29 21 50t50 21q30 0 51 -21t21 -50q0 -30 -21 -51t-51 -21z" />
    <glyph glyph-name="multiply.case" horiz-adv-x="590" 
d="M161 162l-63 62l135 134l-135 135l63 62l134 -135l135 135l62 -62l-135 -135l135 -134l-62 -62l-135 134z" />
    <glyph glyph-name="equal.case" horiz-adv-x="638" 
d="M98 205v88h442v-88h-442zM98 417v88h442v-88h-442z" />
    <glyph glyph-name="plusminus.case" horiz-adv-x="633" 
d="M98 365v88h174v129h89v-129h174v-88h-174v-133h-89v133h-174zM98 82v88h437v-88h-437z" />
    <glyph glyph-name="less.case" horiz-adv-x="481" 
d="M345 70l-289 282l289 282l64 -65l-224 -217l224 -218z" />
    <glyph glyph-name="greater.case" horiz-adv-x="481" 
d="M136 70l-64 64l224 218l-224 217l64 65l289 -282z" />
    <glyph glyph-name="lessequal.case" horiz-adv-x="651" 
d="M536 211l-455 209l455 211v-98l-245 -113l245 -112v-97zM81 83v88h455v-88h-455z" />
    <glyph glyph-name="greaterequal.case" horiz-adv-x="651" 
d="M115 206v97l244 112l-244 113v98l455 -211zM115 78v88h455v-88h-455z" />
    <glyph glyph-name="notequal.case" horiz-adv-x="638" 
d="M98 417v88h278l84 115l69 -50l-47 -65h58v-88h-122l-89 -124h211v-88h-275l-86 -120l-69 51l50 69h-62v88h125l90 124h-215z" />
    <glyph glyph-name="acute.case" horiz-adv-x="319" 
d="M64 768l74 145h130l-117 -145h-87z" />
    <glyph glyph-name="breve.case" horiz-adv-x="419" 
d="M209 763q-71 0 -117.5 45t-48.5 110h71q2 -36 28.5 -61t67.5 -25q40 0 67 25.5t28 60.5h72q-2 -66 -49 -110.5t-119 -44.5z" />
    <glyph glyph-name="caron.case" horiz-adv-x="436" 
d="M218 759l-174 92l37 72l137 -73l138 73l37 -73z" />
    <glyph glyph-name="cedilla.case" horiz-adv-x="267" 
d="M52 -132l58 132h82l-40 -132h-100z" />
    <glyph glyph-name="circumflex.case" horiz-adv-x="435" 
d="M80 760l-37 73l175 91l174 -91l-37 -73l-137 73z" />
    <glyph glyph-name="dieresis.case" horiz-adv-x="468" 
d="M140 774q-27 0 -47.5 20t-20.5 48t20.5 48t47.5 20q28 0 48 -20t20 -48t-20 -48t-48 -20zM370 774q-28 0 -48 20t-20 48t20 48t48 20t48 -20t20 -48t-20 -48t-48 -20z" />
    <glyph glyph-name="dotaccent.case" horiz-adv-x="230" 
d="M115 770q-29 0 -50.5 21t-21.5 51t21.5 51t50.5 21q30 0 51 -21t21 -51t-21 -51t-51 -21z" />
    <glyph glyph-name="grave.case" horiz-adv-x="319" 
d="M169 768l-118 145h130l75 -145h-87z" />
    <glyph glyph-name="hungarumlaut.case" horiz-adv-x="508" 
d="M64 768l74 145h121l-117 -145h-78zM264 768l75 145h120l-117 -145h-78z" />
    <glyph glyph-name="macron.case" horiz-adv-x="410" 
d="M52 799v76h306v-76h-306z" />
    <glyph glyph-name="ogonek.case" horiz-adv-x="288" 
d="M162 -189q-47 0 -79 27.5t-32 70.5q0 27 18 52t46 39h119q-77 -35 -77 -72q0 -17 11.5 -27.5t31.5 -10.5q18 0 36 9v-69q-32 -19 -74 -19z" />
    <glyph glyph-name="ring.case" horiz-adv-x="303" 
d="M153 807q20 0 33.5 13t13.5 34q0 20 -13.5 34t-33.5 14t-34 -14t-14 -34q0 -21 14 -34t34 -13zM153 750q-45 0 -76 30t-31 74t31 74t76 30q44 0 75.5 -30t31.5 -74t-31.5 -74t-75.5 -30z" />
    <glyph glyph-name="tilde.case" horiz-adv-x="474" 
d="M54 777l4 23q8 47 40 75t70 28q31 0 72 -21.5t54 -21.5q35 0 46 43h78l-3 -22q-8 -47 -39 -75t-70 -28q-32 0 -73.5 21.5t-53.5 21.5q-36 0 -46 -44h-79z" />
    <glyph glyph-name="A.ss01" horiz-adv-x="641" 
d="M79 0v710h483v-710h-116v242h-251v-242h-116zM195 596v-242h251v242h-251z" />
    <glyph glyph-name="B.ss01" horiz-adv-x="733" 
d="M78 0v710h409v-210h176v-500h-585zM194 388v-274h353v274h-353zM194 596v-96h176v96h-176z" />
    <glyph glyph-name="C.ss01" horiz-adv-x="591" 
d="M79 0v710h468v-114h-352v-482h352v-114h-468z" />
    <glyph glyph-name="G.ss01" horiz-adv-x="737" 
d="M371 304v112h292v-416h-584v710h526v-114h-410v-482h352v190h-176z" />
    <glyph glyph-name="J.ss01" horiz-adv-x="398" 
d="M20 0v115h183v595h116v-710h-299z" />
    <glyph glyph-name="O.ss01" horiz-adv-x="868" 
d="M195 114h478v482h-478v-482zM79 0v710h710v-710h-710z" />
    <glyph glyph-name="P.ss01" horiz-adv-x="621" 
d="M79 0v710h483v-468h-367v-242h-116zM195 596v-242h251v242h-251z" />
    <glyph glyph-name="Q.ss01" horiz-adv-x="868" 
d="M79 0v710h710v-710h-299v-184h-113v184h-298zM195 114h182v188h113v-188h183v482h-478v-482z" />
    <glyph glyph-name="S.ss01" horiz-adv-x="586" 
d="M74 388v322h438v-114h-321v-96h321v-500h-438v114h322v274h-322z" />
    <glyph glyph-name="U.ss01" horiz-adv-x="728" 
d="M79 -1v711h116v-596h338v596h116v-711h-570z" />
    <glyph glyph-name="Y.ss01" horiz-adv-x="689" 
d="M59 304v406h117v-294h337v294h117v-406h-227v-304h-117v304h-227z" />
    <glyph glyph-name="b.ss01" horiz-adv-x="637" 
d="M70 0v710h110v-210h387v-500h-497zM180 393v-286h277v286h-277z" />
    <glyph glyph-name="c.ss01" horiz-adv-x="468" 
d="M70 0v500h343v-107h-233v-286h233v-107h-343z" />
    <glyph glyph-name="d.ss01" horiz-adv-x="637" 
d="M70 0v500h387v210h110v-710h-497zM180 393v-286h277v286h-277z" />
    <glyph glyph-name="f.ss01" horiz-adv-x="359" 
d="M20 402v98h78v210h240v-98h-130v-112h130v-98h-130v-402h-110v402h-78z" />
    <glyph glyph-name="h.ss01" horiz-adv-x="594" 
d="M414 0v393h-234v-393h-110v710h110v-210h344v-500h-110z" />
    <glyph glyph-name="i.ss01" horiz-adv-x="250" 
d="M70 0v500h110v-500h-110zM70 597v113h110v-113h-110z" />
    <glyph glyph-name="j.ss01" horiz-adv-x="250" 
d="M-35 -184v104h105v580h110v-684h-215zM70 597v113h110v-113h-110z" />
    <glyph glyph-name="k.ss01" horiz-adv-x="582" 
d="M412 0v209h-232v-209h-110v710h110v-394h144v184h110v-184h88v-316h-110z" />
    <glyph glyph-name="m.ss01" horiz-adv-x="893" 
d="M392 0v393h-212v-393h-110v500h753v-500h-109v393h-212v-393h-110z" />
    <glyph glyph-name="n.ss01" horiz-adv-x="594" 
d="M414 0v393h-234v-393h-110v500h454v-500h-110z" />
    <glyph glyph-name="o.ss01" horiz-adv-x="640" 
d="M70 0v500h500v-500h-500zM180 393v-286h280v286h-280z" />
    <glyph glyph-name="p.ss01" horiz-adv-x="637" 
d="M70 -184v684h497v-500h-387v-184h-110zM180 393v-286h277v286h-277z" />
    <glyph glyph-name="q.ss01" horiz-adv-x="637" 
d="M70 0v500h497v-684h-110v184h-387zM180 393v-286h277v286h-277z" />
    <glyph glyph-name="r.ss01" horiz-adv-x="367" 
d="M70 0v500h275v-107h-165v-393h-110z" />
    <glyph glyph-name="s.ss01" horiz-adv-x="527" 
d="M67 196v304h393v-107h-284v-89h282v-304h-391v107h282v89h-282z" />
    <glyph glyph-name="t.ss01" horiz-adv-x="385" 
d="M8 402v98h86v123h110v-123h140v-98h-140v-301h140v-101h-250v402h-86z" />
    <glyph glyph-name="u.ss01" horiz-adv-x="593" 
d="M70 0v500h110v-393h233v393h110v-500h-453z" />
    <glyph glyph-name="y.ss01" horiz-adv-x="591" 
d="M48 196v304h109v-196h254v196h110v-684h-110v380h-363z" />
    <glyph glyph-name="A.ss02" horiz-adv-x="719" 
d="M10 0l343 710h287v-710h-116v158h-317l-74 -158h-123zM415 596l-156 -332h265v332h-109z" />
    <glyph glyph-name="E.ss02" horiz-adv-x="503" 
d="M246 0q-86 0 -147 61t-61 147q0 89 65 151q-65 60 -65 148q0 84 60 143.5t143 59.5h218v-114h-216q-37 0 -63 -26.5t-25 -63.5q-1 -37 25.5 -63.5t63.5 -26.5h155v-112h-150q-39 0 -67 -28t-28 -67t28 -67t67 -28h210v-114h-213z" />
    <glyph glyph-name="K.ss02" horiz-adv-x="667" 
d="M79 0v710h116v-356l299 356h140l-301 -356h140l189 -354h-132l-128 240h-207v-240h-116z" />
    <glyph glyph-name="N.ss02" horiz-adv-x="759" 
d="M564 0v145l-369 321v-466h-116v718l485 -423v415h116v-710h-116z" />
    <glyph glyph-name="Q.ss02" 
d="M344 -184v180q-132 20 -219 120.5t-87 238.5q0 153 106 258t257 105q152 0 257.5 -105t105.5 -258q0 -138 -87 -238.5t-220 -120.5v-180h-113zM457 413v-305q84 19 136.5 87t52.5 160q0 107 -70 180t-175 73q-89 0 -154.5 -54.5t-84.5 -140.5h295zM344 299h-182
q14 -72 63 -123t119 -68v191z" />
    <glyph glyph-name="W.ss02" horiz-adv-x="933" 
d="M331 -8l-329 718h123l211 -468l75 166l-138 302h112l81 -180l82 180h112l-139 -302l76 -166l211 468h123l-329 -718l-136 295z" />
    <glyph glyph-name="X.ss02" horiz-adv-x="667" 
d="M515 0l-219 313l-157 -313h-125l208 419l-202 291h138l211 -303l151 303h126l-203 -409l210 -301h-138z" />
    <glyph glyph-name="Y.ss02" horiz-adv-x="722" 
d="M59 305v405h117v-294h226l183 294h136l-260 -411v-299h-117v305h-285z" />
    <glyph glyph-name="a.ss02" horiz-adv-x="544" 
d="M219 -8q-93 0 -143.5 49t-50.5 120q0 73 55.5 117.5t147.5 44.5q76 0 137 -28v107h-279v98h388v-500h-109v45q-58 -53 -146 -53zM233 92q90 0 132 59v49q-53 31 -122 31q-49 0 -78 -18.5t-29 -51.5q0 -34 27.5 -51.5t69.5 -17.5z" />
    <glyph glyph-name="g.ss02" horiz-adv-x="603" 
d="M104 -184v106h318v142q-58 -44 -133 -44q-110 0 -179.5 69t-69.5 175t69.5 175t179.5 69q77 0 133 -45v37h110v-684h-428zM290 125q41 0 76.5 18t55.5 49v144q-20 31 -55.5 49t-76.5 18q-58 0 -97.5 -39t-39.5 -100t39.5 -100t97.5 -39z" />
    <glyph glyph-name="k.ss02" horiz-adv-x="555" 
d="M420 0l-160 168h-80v-168h-110v710h110v-210h254v-107h-254v-118h131l244 -275h-135z" />
    <glyph glyph-name="m.ss02" horiz-adv-x="883" 
d="M713 0v291q0 45 -26.5 78.5t-76.5 33.5q-79 0 -109 -89q1 -9 1 -29v-285h-110v283q0 45 -27 78.5t-77 33.5h-108v-395h-110v500h239q101 0 153 -73q59 81 168 81q91 0 142 -58.5t51 -156.5v-293h-110z" />
    <glyph glyph-name="w.ss02" horiz-adv-x="859" 
d="M238 0l-185 282v218h109v-187l136 -206h76v393h109v-393h77l136 206v187h110v-218l-186 -282h-382z" />
    <glyph glyph-name="b.ss03" horiz-adv-x="523" 
d="M70 0v500h200q94 0 138 -38.5t44 -103.5q0 -64 -38 -92q70 -33 70 -118q0 -64 -47 -106t-142 -42h-225zM299 215h-119v-119h119q75 2 75 59q0 60 -75 60zM276 404h-96v-109h96q66 2 66 54q0 55 -66 55z" />
    <glyph glyph-name="d.ss03" horiz-adv-x="547" 
d="M69 0v500h189q115 0 183.5 -72t68.5 -178t-68.5 -178t-183.5 -72h-189zM254 395h-75v-290h75q67 0 106.5 41t39.5 104t-39.5 104t-106.5 41z" />
    <glyph glyph-name="f.ss03" horiz-adv-x="439" 
d="M69 0v500h334v-98h-224v-118h199v-98h-199v-186h-110z" />
    <glyph glyph-name="g.ss03" horiz-adv-x="560" 
d="M294 -8q-108 0 -182.5 75.5t-74.5 182.5t75 182.5t184 75.5q66 0 119 -26t84 -61l-81 -66q-49 51 -122 51q-65 0 -106.5 -44.5t-41.5 -111.5q0 -66 41.5 -111t104.5 -45q60 0 106 27v86h-117l42 98h185v-235q-80 -78 -216 -78z" />
    <glyph glyph-name="h.ss03" horiz-adv-x="591" 
d="M410 0v207h-230v-207h-111v500h111v-196h230v196h111v-500h-111z" />
    <glyph glyph-name="i.ss03" horiz-adv-x="249" 
d="M69 0v500h110v-500h-110z" />
    <glyph glyph-name="j.ss03" horiz-adv-x="468" 
d="M219 -8q-89 0 -139 50t-50 148h109q0 -97 80 -97t80 97v310h109v-310q0 -98 -50 -148t-139 -50z" />
    <glyph glyph-name="k.ss03" horiz-adv-x="528" 
d="M69 0v500h110v-249l198 249h125l-203 -252l229 -248h-134l-215 234v-234h-110z" />
    <glyph glyph-name="l.ss03" horiz-adv-x="442" 
d="M69 0v500h110v-402h224v-98h-334z" />
    <glyph glyph-name="p.ss03" horiz-adv-x="483" 
d="M69 0v500h196q94 0 141 -50t47 -117q0 -69 -46.5 -118.5t-141.5 -49.5h-86v-165h-110zM257 404h-78v-143h78q85 0 85 72q0 34 -22 52.5t-63 18.5z" />
    <glyph glyph-name="q.ss03" horiz-adv-x="597" 
d="M514 -9l-63 51q-66 -50 -154 -50q-110 0 -185 75.5t-75 182.5t75 182.5t185 75.5q109 0 184 -75.5t75 -182.5q0 -76 -42 -142l57 -46zM297 94q36 0 70 16l-66 54l58 69l70 -57q16 35 16 74q0 67 -41.5 111.5t-106.5 44.5t-107 -44.5t-42 -111.5t42 -111.5t107 -44.5z" />
    <glyph glyph-name="t.ss03" horiz-adv-x="440" 
d="M15 402v98h410v-98h-149v-402h-112v402h-149z" />
    <glyph glyph-name="y.ss03" horiz-adv-x="491" 
d="M190 0v198l-189 302h124l121 -206l120 206h124l-189 -302v-198h-111z" />
    <glyph glyph-name="A.ss04" horiz-adv-x="714" 
d="M10 0l347 718l347 -718h-125l-222 474l-223 -474h-124zM357 -8q-34 0 -58 23.5t-24 57.5t24 58t58 24q33 0 57 -24t24 -58t-24 -57.5t-57 -23.5z" />
    <glyph glyph-name="E.ss04" horiz-adv-x="544" 
d="M79 0v710h421v-114h-305v-482h305v-114h-421zM348 274q-34 0 -58 23.5t-24 57.5t24 57.5t58 23.5t57.5 -23.5t23.5 -57.5t-23.5 -57.5t-57.5 -23.5z" />
    <glyph glyph-name="F.ss04" horiz-adv-x="514" 
d="M79 0v710h412v-114h-296v-596h-116zM344 279q-34 0 -58 23.5t-24 57.5t24 57.5t58 23.5t57.5 -23.5t23.5 -57.5t-23.5 -57.5t-57.5 -23.5z" />
    <glyph glyph-name="G.ss04" horiz-adv-x="730" 
d="M401 -8q-151 0 -257 105t-106 258t106 258t257 105q161 0 259 -103l-75 -82q-33 35 -82 55t-102 20q-105 0 -175 -73t-70 -180t70 -180t175 -73q84 0 145 38v276h116v-333q-105 -91 -261 -91zM401 274q-33 0 -57 23.5t-24 57.5t24 57.5t57 23.5q34 0 58 -23.5t24 -57.5
t-24 -57.5t-58 -23.5z" />
    <glyph glyph-name="H.ss04" horiz-adv-x="743" 
d="M79 0v710h116v-710h-116zM371 279q-34 0 -57.5 23.5t-23.5 57.5t23.5 57.5t57.5 23.5t58 -23.5t24 -57.5t-24 -57.5t-58 -23.5zM547 0v710h117v-710h-117z" />
    <glyph glyph-name="K.ss04" horiz-adv-x="662" 
d="M512 0l-317 336v-336h-116v710h116v-357h134l333 -353h-150zM500 555q-34 0 -58 24t-24 58t24 57.5t58 23.5q33 0 57 -23.5t24 -57.5t-24 -58t-57 -24z" />
    <glyph glyph-name="O.ss04" 
d="M401 274q-34 0 -57.5 23.5t-23.5 57.5t23.5 57.5t57.5 23.5t57.5 -23.5t23.5 -57.5t-23.5 -57.5t-57.5 -23.5zM401 102q105 0 175 73t70 180t-70 180t-175 73t-175 -73t-70 -180t70 -180t175 -73zM401 -8q-151 0 -257 105t-106 258t106 258t257 105q152 0 257.5 -105
t105.5 -258t-105.5 -258t-257.5 -105z" />
    <glyph glyph-name="Q.ss04" 
d="M752 -8l-111 90q-102 -89 -240 -89q-151 0 -257 105t-106 258t106 258t257 105q152 0 257.5 -105t105.5 -258q0 -105 -54 -192l111 -90zM401 103q105 0 175 73t70 180t-70 180t-175 73t-175 -73t-70 -180t70 -180t175 -73zM401 275q-34 0 -57.5 23.5t-23.5 57.5
t23.5 57.5t57.5 23.5t57.5 -23.5t23.5 -57.5t-23.5 -57.5t-57.5 -23.5z" />
    <glyph glyph-name="Y.ss04" horiz-adv-x="641" 
d="M262 299l-261 411h136l183 -293l183 293h137l-261 -411h-117zM320 -8q-33 0 -57.5 24t-24.5 57q0 34 24.5 58t57.5 24q34 0 57.5 -24t23.5 -58t-23.5 -57.5t-57.5 -23.5z" />
    <glyph glyph-name="A.ss05" horiz-adv-x="714" 
d="M357 0v115h168l-168 359l-223 -474h-124l347 718l347 -718h-347z" />
    <glyph glyph-name="E.ss05" horiz-adv-x="533" 
d="M14 0l236 355l-236 355h480v-114h-274l162 -241l-162 -241h274v-114h-480z" />
    <glyph glyph-name="F.ss05" horiz-adv-x="522" 
d="M97 0v416h140l-196 294h468v-114h-262l197 -292h-231v-304h-116z" />
    <glyph glyph-name="R.ss05" horiz-adv-x="613" 
d="M79 0v709h18v1h508l-219 -371l218 -339h-131l-216 337l153 259h-215v-596h-116z" />
    <glyph glyph-name="S.ss05" horiz-adv-x="544" 
d="M163 0l180 304h-337l238 406h129l-173 -294h338l-246 -416h-129z" />
    <glyph glyph-name="T.ss05" horiz-adv-x="603" 
d="M283 0v359l-284 351h584v-114h-348l164 -203v-393h-116z" />
    <glyph glyph-name="X.ss05" horiz-adv-x="757" 
d="M14 0l278 348l-267 362h706l-266 -361l278 -349h-143l-222 278l-221 -278h-143zM248 596l130 -176l130 176h-260z" />
    <glyph glyph-name="h.ss05" horiz-adv-x="593" 
d="M70 0v710h110v-527l233 317h110v-500h-110v317l-233 -317h-110z" />
    <glyph glyph-name="m.ss05" horiz-adv-x="893" 
d="M70 0v500h110v-310l212 310h110v-309l211 309h110v-500h-110v310l-211 -309v-1h-110v310l-212 -310h-110z" />
    <glyph glyph-name="n.ss05" horiz-adv-x="593" 
d="M70 0v500h110v-317l233 317h110v-500h-110v317l-233 -317h-110z" />
    <glyph glyph-name="r.ss05" horiz-adv-x="314" 
d="M176 337v-337h-109v398l192 110l50 -93z" />
    <glyph glyph-name="s.ss05" horiz-adv-x="515" 
d="M157 0l155 201h-317l233 299h131l-156 -200h317l-232 -300h-131z" />
    <glyph glyph-name="b.ss06" horiz-adv-x="641" 
d="M70 0v710h110v-317l107 107h284v-500h-501zM462 393h-282v-286h282v286z" />
    <glyph glyph-name="d.ss06" horiz-adv-x="641" 
d="M70 0v500h391v210h110v-710h-110v393h-281v-286h281l-107 -107h-284z" />
    <glyph glyph-name="f.ss06" horiz-adv-x="359" 
d="M0 402l98 98v210h240v-98h-130v-112h130v-98h-130v-402h-110v402h-98z" />
    <glyph glyph-name="h.ss06" horiz-adv-x="593" 
d="M180 393v-393h-110v710h110v-317l107 107h236v-500h-110v393h-233z" />
    <glyph glyph-name="j.ss06" horiz-adv-x="250" 
d="M-34 -184l104 104v580h110v-684h-214zM70 597v113h110v-113h-110z" />
    <glyph glyph-name="l.ss06" horiz-adv-x="250" 
d="M70 0v608l110 110v-718h-110z" />
    <glyph glyph-name="m.ss06" horiz-adv-x="893" 
d="M181 393l107 107h214v-500h-110v393h-211zM713 0v393h-211l107 107h214v-500h-110zM70 0v500h110v-500h-110z" />
    <glyph glyph-name="n.ss06" horiz-adv-x="593" 
d="M180 393v-393h-110v500h110v-107l107 107h236v-500h-110v393h-233z" />
    <glyph glyph-name="p.ss06" horiz-adv-x="641" 
d="M70 -184v684h110v-107l107 107h284v-500h-391v-184h-110zM461 393h-281v-286h281v286z" />
    <glyph glyph-name="q.ss06" horiz-adv-x="641" 
d="M461 -184v577h-281v-286h281l-107 -107h-284v500h501v-684h-110z" />
    <glyph glyph-name="r.ss06" horiz-adv-x="367" 
d="M180 393v-393h-110v500h110v-107l107 107h58v-107h-165z" />
    <glyph glyph-name="t.ss06" horiz-adv-x="403" 
d="M112 0v402h-134l246 248l-1 -150h139v-98h-139l-1 -301h140v-101h-250z" />
    <glyph glyph-name="u.ss06" horiz-adv-x="593" 
d="M70 0v500h110v-393h233l-107 -107h-236zM413 0v500h110v-500h-110z" />
    <glyph glyph-name="B.ss07" horiz-adv-x="562" 
d="M79 0v108h214q58 0 88.5 28t30.5 73q0 46 -30.5 74.5t-88.5 28.5h-214v99h178q51 0 79 27t28 69q0 41 -28 68.5t-79 27.5h-178v107h193q94 0 151.5 -56.5t57.5 -137.5q0 -91 -66 -138q52 -22 83 -66.5t31 -107.5q0 -92 -66 -148t-170 -56h-214z" />
    <glyph glyph-name="D.ss07" horiz-adv-x="656" 
d="M79 0v108h168q113 0 183 70t70 177t-70 177t-183 70h-168v108h168q159 0 265 -102t106 -253t-106 -253t-265 -102h-168z" />
    <glyph glyph-name="E.ss07" horiz-adv-x="543" 
d="M79 0v114h420v-114h-420zM79 304v112h360v-112h-360zM79 596v114h420v-114h-420z" />
    <glyph glyph-name="F.ss07" horiz-adv-x="514" 
d="M79 304v112h347v-112h-347zM79 596v114h412v-114h-412z" />
    <glyph glyph-name="H.ss07" horiz-adv-x="684" 
d="M489 0v304h-410v112h410v294h116v-710h-116z" />
    <glyph glyph-name="K.ss07" horiz-adv-x="554" 
d="M404 0l-325 344l307 366h138l-301 -359l331 -351h-150z" />
    <glyph glyph-name="P.ss07" horiz-adv-x="501" 
d="M79 258v108h149q63 0 99 32t36 86t-36 86t-99 32h-149v107l154 1q110 1 179 -62t69 -164q0 -99 -69 -162.5t-179 -63.5h-154z" />
    <glyph glyph-name="R.ss07" horiz-adv-x="564" 
d="M418 0l-214 302h-125v101h161q59 0 89 26.5t30 72.5q0 47 -30 74t-89 27h-161v107h172q99 0 162.5 -57.5t63.5 -146.5q0 -69 -39 -120.5t-107 -72.5l226 -313h-139z" />
    <glyph glyph-name="T.ss07" horiz-adv-x="523" 
d="M20 596v114h483v-114h-483z" />
    <glyph glyph-name="Y.ss07" horiz-adv-x="641" 
d="M262 299l-261 411h136l183 -293l183 293h137l-261 -411h-117z" />
    <glyph glyph-name="A.ss08" horiz-adv-x="714" 
d="M115 -646v646h-37v-195q0 -11 -5 -15.5t-9.5 0t-4.5 15.5v195h-49l347 718l347 -718h-125l-74 158h-297l-74 -158v-646q0 -11 -4.5 -15.5t-9.5 0t-5 15.5zM357 474l-99 -210h197z" />
    <glyph glyph-name="C.ss08" horiz-adv-x="681" 
d="M401 -8q-3 0 -7 0.5t-6 0.5v-296q0 -11 -5 -15.5t-9.5 0t-4.5 15.5v296q-18 2 -27 4v-53q0 -11 -5 -15.5t-9.5 0t-4.5 15.5v56q-124 26 -204.5 124.5t-80.5 230.5q0 153 106 258t257 105q153 0 251 -103l-75 -82q-70 75 -176 75h-13v-506h13q106 0 176 75l75 -82
q-86 -90 -214 -101v-147q0 -11 -5 -15.5t-9.5 0t-4.5 15.5v146q-6 -1 -18 -1zM156 355q0 -85 46 -151t121 -90v482q-75 -25 -121 -90.5t-46 -150.5zM342 108q9 -2 27 -4v502q-9 -1 -27 -5v-493z" />
    <glyph glyph-name="D.ss08" horiz-adv-x="714" 
d="M79 -195v905h225q159 0 265.5 -102t106.5 -253t-106.5 -253t-265.5 -102h-167v-646q0 -11 -4.5 -15.5t-9.5 0t-5 15.5v646h-20v-195q0 -11 -5 -15.5t-9.5 0t-4.5 15.5zM195 108h109q113 0 183.5 70t70.5 177t-70.5 177t-183.5 70h-109v-494z" />
    <glyph glyph-name="E.ss08" horiz-adv-x="544" 
d="M441 -112v112h-19v-1012q0 -11 -5 -15.5t-9.5 0t-4.5 15.5v1012h-324v710h421v-114h-305v-180h245v-112h-245v-190h305v-426q0 -11 -5 -15.5t-9.5 0t-4.5 15.5v312h-21v-112q0 -11 -5 -15.5t-9.5 0t-4.5 15.5z" />
    <glyph glyph-name="G.ss08" horiz-adv-x="730" 
d="M388 264v40h-37l51 112h260v-333q-93 -80 -225 -89v-551q0 -11 -4.5 -15.5t-9.5 0t-5 15.5v550q-3 0 -9 -0.5t-8 -0.5q-151 0 -257 105t-106 258t106 258t257 105q161 0 259 -103l-75 -82q-33 35 -82 55t-102 20q-105 0 -175 -73t-70 -180t70 -180t175 -73h17v202h-11
v-40q0 -11 -4.5 -15.5t-9.5 0t-5 15.5zM449 240v64h-12v-200q63 6 109 36v164h-78v-64q0 -11 -5 -15.5t-9.5 0t-4.5 15.5z" />
    <glyph glyph-name="H.ss08" horiz-adv-x="742" 
d="M304 260v44h-109v-548q0 -11 -4.5 -15.5t-9.5 0t-5 15.5v244h-23v-80q0 -11 -4.5 -15.5t-9.5 0t-5 15.5v80h-55v710h116v-294h352v294h116v-710h-116v304h-174v-1084q0 -11 -4.5 -15.5t-9.5 0t-5 15.5v1084h-31v-44q0 -11 -4.5 -15.5t-9.5 0t-5 15.5z" />
    <glyph glyph-name="M.ss08" horiz-adv-x="856" 
d="M448 -627v832l-11 -12v-239q0 -11 -4.5 -15.5t-9.5 0t-5 15.5v241l-15 16v-13q0 -11 -4.5 -15.5t-9.5 0t-5 15.5v33l-189 205v-436h-116v718l349 -372l349 372v-718h-116v436l-194 -210v-853q0 -11 -4.5 -15.5t-9.5 0t-5 15.5z" />
    <glyph glyph-name="N.ss08" horiz-adv-x="759" 
d="M661 -119v129l-30 28v-560q0 -11 -4.5 -15.5t-9.5 0t-5 15.5v578l-417 397v-453h-116v718l485 -461v453h116v-829q0 -11 -5 -15.5t-9.5 0t-4.5 15.5z" />
    <glyph glyph-name="O.ss08" 
d="M401 -8q-77 0 -148 30v-354q0 -11 -4.5 -15.5t-9.5 0t-5 15.5v363q-89 46 -142.5 132t-53.5 192q0 153 106 258t257 105q152 0 257.5 -105t105.5 -258q0 -96 -44 -176t-119 -129v-82q0 -11 -4.5 -15.5t-9.5 0t-5 15.5v71q-17 -10 -29 -15v-1016q0 -11 -4.5 -15.5t-9.5 0
t-5 15.5v1008q-61 -24 -133 -24zM401 102q105 0 175 73t70 180t-70 180t-175 73t-175 -73t-70 -180t70 -180t175 -73z" />
    <glyph glyph-name="Q.ss08" 
d="M696 -95v132l-54 44q-102 -89 -241 -89q-151 0 -257 105t-106 258t106 258t257 105q152 0 257.5 -105t105.5 -258q0 -103 -53 -191l110 -90l-65 -77v-390q0 -11 -5 -15.5t-9.5 0t-4.5 15.5v397l-22 18v-117q0 -11 -4.5 -15.5t-9.5 0t-5 15.5zM401 102q87 0 152 52
l-101 83l69 82l99 -81q26 57 26 117q0 107 -70 180t-175 73t-175 -73t-70 -180t70 -180t175 -73z" />
    <glyph glyph-name="R.ss08" horiz-adv-x="622" 
d="M122 -36v36h-24v-213q0 -11 -5 -15.5t-9.5 0t-4.5 15.5v923h230q99 0 162.5 -57.5t63.5 -146.5q0 -69 -39 -120.5t-107 -72.5l226 -313h-139l-214 302h-67v-302h-54v-36q0 -11 -4.5 -15.5t-9.5 0t-5 15.5zM195 403h103q59 0 89 26.5t30 72.5q0 47 -30 74t-89 27h-103
v-200z" />
    <glyph glyph-name="S.ss08" horiz-adv-x="518" 
d="M259 -8q-79 0 -137 30v-596q0 -11 -5 -15.5t-9.5 0t-4.5 15.5v606q-53 32 -83 81l83 70v209q-55 56 -55 138q0 83 63 135.5t148 52.5q124 0 199 -90l-80 -83q-28 34 -55.5 48.5t-64.5 14.5q-38 0 -66 -21t-28 -56q0 -34 24.5 -60t78.5 -49l55 -25q163 -71 163 -203
q0 -99 -72 -155v-75q0 -11 -4.5 -15.5t-9.5 0t-5 15.5v62l-24 -12v-227q0 -11 -5 -15.5t-9.5 0t-4.5 15.5v219q-44 -14 -92 -14zM208 323q-52 23 -86 51v-205q60 -67 136 -67q52 0 80.5 22t28.5 60q0 39 -24.5 65t-78.5 50z" />
    <glyph glyph-name="U.ss08" horiz-adv-x="711" 
d="M356 -8q-35 0 -65 6v-194q0 -11 -4.5 -15.5t-9.5 0t-5 15.5v198l-24 7q0 -10 -5 -14.5t-9.5 0t-4.5 15.5v6q-74 32 -116.5 99.5t-42.5 160.5v434h116v-437q0 -81 46.5 -126t123.5 -45t123 45t46 126v437h116v-434q0 -130 -80 -208v-94q0 -11 -4.5 -15.5t-9.5 0t-5 15.5
v78q-75 -60 -186 -60z" />
    <glyph glyph-name="a.ss08" horiz-adv-x="611" 
d="M431 -74v110q-55 -44 -134 -44q-111 0 -184 74t-73 184t73 184t184 74q78 0 134 -45v37h110v-500h-51v-414q0 -11 -5 -15.5t-9.5 0t-4.5 15.5v414h-21v-74q0 -11 -5 -15.5t-9.5 0t-4.5 15.5zM298 97q41 0 77 18.5t56 49.5v170q-20 31 -56 49.5t-77 18.5q-63 0 -104 -43.5
t-41 -109.5t41 -109.5t104 -43.5z" />
    <glyph glyph-name="b.ss08" horiz-adv-x="611" 
d="M291 -72v65q-66 6 -111 43v-448q0 -11 -5 -15.5t-9.5 0t-4.5 15.5v412h-15v-112q0 -11 -5 -15.5t-9.5 0t-4.5 15.5v112h-57v710h110v-247q55 45 134 45q111 0 184 -74t73 -184t-73 -184t-184 -74h-4v-64q0 -11 -5 -15.5t-9.5 0t-4.5 15.5zM313 403q-42 0 -77.5 -18.5
t-55.5 -49.5v-170q20 -31 55.5 -49.5t77.5 -18.5q63 0 104 43.5t41 109.5t-41 109.5t-104 43.5z" />
    <glyph glyph-name="c.ss08" horiz-adv-x="524" 
d="M298 -8h-3v-304q0 -11 -4.5 -15.5t-9.5 0t-5 15.5v305q-103 7 -169.5 80t-66.5 177q0 110 73.5 184t184.5 74q115 0 191 -83l-75 -77q-46 53 -116 53q-63 0 -104 -42.5t-41 -108.5t41 -108.5t104 -42.5q70 0 116 53l75 -77q-56 -61 -134 -77v-107q0 -11 -4.5 -15.5
t-9.5 0t-5 15.5v104q-4 -1 -10 -1v-16q0 -11 -5 -15.5t-9.5 0t-4.5 15.5v14h-9z" />
    <glyph glyph-name="e.ss08" horiz-adv-x="574" 
d="M298 -8q-16 0 -46 4v-103q0 -11 -5 -15.5t-9.5 0t-4.5 15.5v107q-16 3 -25 7v-51q0 -11 -5 -15.5t-9.5 0t-4.5 15.5v58q-68 30 -108.5 93.5t-40.5 142.5q0 110 73.5 184t182.5 74q105 0 169.5 -69t69.5 -189v-30h-171v-107q38 15 64 45l74 -79q-53 -61 -138 -80v-790
q0 -11 -5 -15.5t-9.5 0t-4.5 15.5v787q-20 -4 -47 -4zM309 185v35h-155q8 -53 48 -86t96 -33q24 0 47 6v113h-17v-35q0 -11 -5 -15.5t-9.5 0t-4.5 15.5zM288 407q-45 0 -81.5 -27.5t-49.5 -74.5h152v101q-7 1 -21 1zM414 305q-15 80 -86 97v-97h86z" />
    <glyph glyph-name="f.ss08" horiz-adv-x="359" 
d="M319 555v57h-21v-112h40v-98h-40v-937q0 -11 -5 -15.5t-9.5 0t-4.5 15.5v937h-71v-402h-110v402h-78v98h79q-34 36 -34 86q0 54 39 89t102 35h132v-155q0 -11 -5 -15.5t-9.5 0t-4.5 15.5zM170 558q0 -25 15.5 -40.5t37.5 -17.5h56v112h-43q-31 0 -48.5 -14t-17.5 -40z
" />
    <glyph glyph-name="k.ss08" horiz-adv-x="535" 
d="M161 -124v124h-21v-324q0 -11 -5 -15.5t-9.5 0t-4.5 15.5v324h-51v710h110v-436l200 226h130l-208 -237l233 -263h-135l-220 249v-373q0 -11 -5 -15.5t-9.5 0t-4.5 15.5z" />
    <glyph glyph-name="g.ss08" horiz-adv-x="603" 
d="M289 -194q-122 0 -215 60l58 96q69 -51 157 -51q19 0 39 3v109q-20 -3 -39 -3q-110 0 -179.5 69t-69.5 175t69.5 175t179.5 69q77 0 133 -45v37h110v-399q20 -50 20 -99q0 -85 -58 -132.5t-147 -59.5v-110q0 -11 -4.5 -15.5t-9.5 0t-5 15.5v108q-26 -2 -39 -2zM290 125
q22 0 38 4v270q-16 4 -38 4q-10 0 -14 -1v-24q0 -11 -5 -15.5t-9.5 0t-4.5 15.5v21q-47 -11 -75.5 -47t-28.5 -88q0 -61 39.5 -100t97.5 -39zM422 336q-26 40 -75 57v-259q48 17 75 58v144zM426 67q-34 -28 -79 -40v-110q90 20 90 99q0 29 -11 51z" />
    <glyph glyph-name="i.ss08" horiz-adv-x="250" 
d="M147 -246v246h-31v-446q0 -11 -5 -15.5t-9.5 0t-4.5 15.5v446h-27v500h77v97h-11v-22q0 -11 -4.5 -15.5t-9.5 0t-5 15.5v22h-15v-48q0 -11 -5 -15.5t-9.5 0t-4.5 15.5v48h-13q-18 21 -18 48q0 30 21.5 51.5t51.5 21.5t51.5 -21.5t21.5 -51.5q0 -27 -18 -48h-14v-97h14
v-500h-14v-246q0 -11 -5 -15.5t-9.5 0t-4.5 15.5z" />
    <glyph glyph-name="n.ss08" horiz-adv-x="583" 
d="M504 -74v74h-91v291q0 44 -31 78t-83 34q-89 0 -119 -88v-729q0 -11 -5 -15.5t-9.5 0t-4.5 15.5v414h-21v-74q0 -11 -5 -15.5t-9.5 0t-4.5 15.5v74h-51v500h110v-47q51 55 140 55q93 0 148 -59t55 -156v-367q0 -11 -4.5 -15.5t-9.5 0t-5 15.5z" />
    <glyph glyph-name="o.ss08" horiz-adv-x="598" 
d="M299 -8q-111 0 -185 74t-74 184t74 184t185 74t185 -74t74 -184q0 -85 -46.5 -151t-123.5 -93v-669q0 -11 -5 -15.5t-9.5 0t-4.5 15.5v664q-18 -4 -27 -5v-442q0 -11 -5 -15.5t-9.5 0t-4.5 15.5v439q-4 0 -12 -0.5t-12 -0.5zM299 97q8 0 24 2v302q-16 2 -24 2
q-64 0 -105 -43.5t-41 -109.5t41 -109.5t105 -43.5zM445 250q0 53 -28 93t-75 54v-294q47 14 75 53.5t28 93.5z" />
    <glyph glyph-name="s.ss08" horiz-adv-x="416" 
d="M157 -214v211l-18 3v-404q0 -11 -4.5 -15.5t-9.5 0t-5 15.5v410q-64 24 -101 88l84 60q23 -40 54 -55v118q-112 47 -112 150q0 61 45.5 101t115.5 40q104 0 156 -87l-81 -56q-25 45 -73 45q-23 0 -39 -11t-16 -29q0 -19 14.5 -33t49.5 -28l36 -13q66 -26 98.5 -62.5
t32.5 -92.5q0 -64 -47.5 -105.5t-124.5 -43.5v-606q0 -11 -5 -15.5t-9.5 0t-4.5 15.5v606q-7 0 -17 2v-208q0 -11 -5 -15.5t-9.5 0t-4.5 15.5zM202 199l-26 10v-116q14 -3 29 -3q28 0 46 13t18 33q0 21 -16 35.5t-51 27.5z" />
    <glyph glyph-name="t.ss08" horiz-adv-x="385" 
d="M272 335v67h-68v-227q0 -40 15 -57t56 -17h69v-101h-97q-29 0 -51 6v-318q0 -11 -5 -15.5t-9.5 0t-4.5 15.5v324l-18 9v-207q0 -11 -4.5 -15.5t-9.5 0t-5 15.5v221q-46 40 -46 117v250h-73l-24 98h97v96l110 54v-150h152l-24 -98h-41v-67q0 -11 -4.5 -15.5t-9.5 0
t-5 15.5z" />
    <glyph glyph-name="w.ss08" horiz-adv-x="723" 
d="M236 -86v86h-24v-666q0 -11 -5 -15.5t-9.5 0t-4.5 15.5v666h-22l-158 500h115l99 -327l135 335l134 -335l99 327h115l-158 -500h-86l-44 110v-366q0 -11 -5 -15.5t-9.5 0t-4.5 15.5v413l-41 103l-105 -260h-2v-86q0 -11 -4.5 -15.5t-9.5 0t-5 15.5z" />
    <glyph glyph-name="z.ss08" horiz-adv-x="507" 
d="M124 -203v203h-20v-473q0 -11 -5 -15.5t-9.5 0t-4.5 15.5v473h-66l272 402h-240v98h430l-272 -402h258v-98h-56v-41q0 -11 -4.5 -15.5t-9.5 0t-5 15.5v41h-249v-203q0 -11 -4.5 -15.5t-9.5 0t-5 15.5z" />
    <glyph glyph-name="A.ss09" horiz-adv-x="714" 
d="M10 0l347 718l347 -718h-21l-106 219h-440l-106 -219h-21zM357 675l-166 -344h332z" />
    <glyph glyph-name="D.ss09" horiz-adv-x="714" 
d="M98 108h206q113 0 183.5 70t70.5 177t-70.5 177t-183.5 70h-206v-494zM79 0v710h225q159 0 265.5 -102t106.5 -253t-106.5 -253t-265.5 -102h-225z" />
    <glyph glyph-name="F.ss09" horiz-adv-x="514" 
d="M79 0v710h412v-114h-393v-180h328v-112h-328v-304h-19z" />
    <glyph glyph-name="H.ss09" horiz-adv-x="712" 
d="M79 0v710h19v-294h516v294h19v-710h-19v304h-516v-304h-19z" />
    <glyph glyph-name="K.ss09" horiz-adv-x="642" 
d="M479 0l-379 343l482 367h30l-410 -312l440 -398h-163zM79 0v710h19v-710h-19z" />
    <glyph glyph-name="M.ss09" horiz-adv-x="856" 
d="M79 0v718l349 -372l349 372v-718h-116v436l-233 -252v136l-330 352v-672h-19z" />
    <glyph glyph-name="N.ss09" horiz-adv-x="759" 
d="M680 -8l-582 676v-668h-19v718l485 -563v555h116v-718z" />
    <glyph glyph-name="Q.ss09" 
d="M401 -8q-151 0 -257 105t-106 258t106 258t257 105q152 0 257.5 -105t105.5 -258q0 -151 -103 -256l115 -94l-12 -15l-117 96q-104 -94 -246 -94zM401 102q90 0 157 56l-101 84l12 14l103 -85q74 74 74 184q0 107 -70 180t-175 73t-175 -73t-70 -180t70 -180t175 -73z
" />
    <glyph glyph-name="R.ss09" horiz-adv-x="622" 
d="M466 0l-368 403v-403h-19v710h230q99 0 162.5 -57.5t63.5 -146.5q0 -81 -54 -137t-143 -66l277 -303h-149zM98 603v-200h200q59 0 89 26.5t30 72.5q0 47 -30 74t-89 27h-200z" />
    <glyph glyph-name="T.ss09" horiz-adv-x="563" 
d="M272 0v691h-272v19h563v-19h-272v-691h-19z" />
    <glyph glyph-name="V.ss09" horiz-adv-x="628" 
d="M314 -8l-312 718h21l291 -670l291 670h21z" />
    <glyph glyph-name="W.ss09" horiz-adv-x="892" 
d="M255 -8l-244 718h21l183 -539l231 547l231 -547l183 539h21l-244 -718l-191 460z" />
    <glyph glyph-name="X.ss09" horiz-adv-x="672" 
d="M14 0l278 332l-264 378h134l203 -291l244 291h25l-258 -307l282 -403h-133l-222 316l-264 -316h-25z" />
    <glyph glyph-name="Y.ss09" horiz-adv-x="641" 
d="M319 0v269l-318 441h136l250 -336l231 336h22l-302 -441v-269h-19z" />
    <glyph glyph-name="Z.ss09" horiz-adv-x="613" 
d="M17 0l457 596h-415v114h528l-457 -596h450v-114h-563z" />
    <glyph glyph-name="H.ss10" horiz-adv-x="717" 
d="M17 0l96 159l-96 196l96 196l-96 159h119l96 -159l-66 -135h349l66 135l-96 159h119l96 -159l-96 -196l95 -196l-96 -159h-118l96 159l-71 145h-350l71 -145l-96 -159h-118z" />
    <glyph glyph-name="I.ss10" horiz-adv-x="249" 
d="M17 0l96 159l-96 196l96 196l-96 159h119l96 -159l-96 -196l95 -196l-96 -159h-118z" />
    <glyph glyph-name="i.ss10" horiz-adv-x="237" 
d="M8 0h120l101 159l-100 196l74 145h-120l-74 -145l100 -196zM88 597q-18 21 -18 48q0 30 21.5 51.5t51.5 21.5t51.5 -21.5t21.5 -51.5q0 -27 -18 -48h-110z" />
    <glyph glyph-name="l.ss10" horiz-adv-x="237" 
d="M128 0h-120l101 159l-100 196l100 196l-101 159h120l101 -159l-100 -196l100 -196z" />
    <glyph glyph-name="A.ss11" horiz-adv-x="714" 
d="M0 158v106h137l220 454l219 -454h136v-106h-85l77 -158h-125l-74 158h-297l-74 -158h-124l76 158h-86zM357 474l-99 -210h197z" />
    <glyph glyph-name="C.ss11" horiz-adv-x="720" 
d="M401 -8q-151 0 -257 105t-106 258t106 258t257 105q153 0 251 -103v-234h-116v187q-60 40 -135 40q-105 0 -175 -73t-70 -180t70 -180t175 -73q106 0 176 75l75 -82q-98 -103 -251 -103z" />
    <glyph glyph-name="F.ss11" horiz-adv-x="589" 
d="M79 0v710h470v-234h-116v120h-238v-180h231v-112h-231v-304h-116z" />
    <glyph glyph-name="G.ss11" horiz-adv-x="730" 
d="M401 -8q-151 0 -257 105t-106 258t106 258t257 105q161 0 259 -103l-75 -82q-33 35 -82 55t-102 20q-105 0 -175 -73t-70 -180t70 -180t175 -73q84 0 145 38v164h-76v-61h-116v61h-3l3 6v167h116v-61h192v-333q-105 -91 -261 -91z" />
    <glyph glyph-name="I.ss11" horiz-adv-x="504" 
d="M44 595v115h416v-115h-150v-480h150v-115h-416v115h150v480h-150z" />
    <glyph glyph-name="J.ss11" horiz-adv-x="530" 
d="M133 595v115h319v-503q0 -103 -63 -159t-155 -56t-155 56.5t-63 160.5h117q0 -51 28.5 -78.5t72.5 -28.5q44 0 73 27.5t29 79.5v386h-203z" />
    <glyph glyph-name="K.ss11" horiz-adv-x="835" 
d="M252 0v87q-101 10 -166.5 82t-65.5 175t65.5 175t166.5 81v110h116v-108h320v108h116v-213h-436v-277q44 35 55 96h114l298 -316h-150l-189 200q-46 -71 -128 -100v-100h-116zM133 344q0 -59 32.5 -100t86.5 -51v301q-54 -9 -86.5 -50.5t-32.5 -99.5z" />
    <glyph glyph-name="L.ss11" horiz-adv-x="592" 
d="M79 0v710h116v-595h241v119h116v-234h-473z" />
    <glyph glyph-name="Q.ss11" horiz-adv-x="720" 
d="M319 -8q-153 0 -251 103v520q98 103 251 103q151 0 257 -105t106 -258q0 -105 -54 -192l110 -89l-67 -83l-112 90q-102 -89 -240 -89zM564 355q0 107 -70 180t-175 73q-97 0 -165 -63l383 -309q27 56 27 119zM184 385v-243q58 -40 135 -40q86 0 151 51z" />
    <glyph glyph-name="T.ss11" horiz-adv-x="679" 
d="M281 0v596h-125v-120h-116v234h599v-234h-116v120h-126v-596h-116z" />
    <glyph glyph-name="W.ss11" horiz-adv-x="893" 
d="M255 -8l-244 718h119l155 -466l104 185l-159 281h114l102 -181l103 181h114l-160 -281l105 -185l155 466h119l-244 -718l-192 337z" />
    <glyph glyph-name="X.ss11" horiz-adv-x="672" 
d="M14 0l202 298q-77 31 -121 99t-44 163v150h116v-153q0 -81 46.5 -126t123.5 -45t123 45t46 126v153h116v-150q0 -95 -44 -163t-121 -99l201 -298h-133l-188 276l-188 -276h-135z" />
    <glyph glyph-name="Y.ss11" horiz-adv-x="641" 
d="M262 0v194q-103 18 -165 91.5t-62 187.5v237h116v-240q0 -81 46.5 -126t123.5 -45h7q74 2 118 47t44 124v240h116v-237q0 -114 -62 -188t-165 -92v-193h-117z" />
    <glyph glyph-name="Z.ss11" horiz-adv-x="632" 
d="M62 476v234h528l-183 -294h60v-112h-130l-118 -190h248v120h116v-234h-563l189 304h-68v112h138l112 180h-213v-120h-116z" />
    <glyph glyph-name="c.ss11" horiz-adv-x="534" 
d="M298 -8q-111 0 -184.5 74t-73.5 184t73.5 184t184.5 74q115 0 191 -83v-138h-109v90q-35 24 -82 24q-63 0 -104 -42.5t-41 -108.5t41 -108.5t104 -42.5q70 0 116 53l75 -77q-76 -83 -191 -83z" />
    <glyph glyph-name="f.ss11" horiz-adv-x="463" 
d="M432 0h-412v98h137v304h-97v98h97v58q0 71 40.5 111.5t112.5 40.5h132v-101h-104q-41 0 -56 -17t-15 -57v-35h115v-98h-115v-304h165v-98z" />
    <glyph glyph-name="g.ss11" horiz-adv-x="603" 
d="M40 -184v98h342q23 0 39.5 16.5t16.5 39.5t-16.5 40t-39.5 17h-342v98h39q-39 61 -39 139q0 107 69.5 175.5t180.5 68.5q35 0 69 -8h211v-98h-69q39 -61 39 -138q0 -97 -59 -164q32 -22 51.5 -56t19.5 -74q0 -64 -45.5 -109t-109.5 -45h-357zM290 125h5q56 2 94 41t38 98
q0 61 -39.5 100t-97.5 39t-97.5 -39t-39.5 -100t39.5 -100t97.5 -39z" />
    <glyph glyph-name="i.ss11" horiz-adv-x="414" 
d="M60 402v98h207v-402h137v-98h-384v98h137v304h-97zM157 597q-18 21 -18 48q0 30 21.5 51.5t51.5 21.5t51.5 -21.5t21.5 -51.5q0 -27 -18 -48h-110z" />
    <glyph glyph-name="j.ss11" horiz-adv-x="317" 
d="M32 402v98h215v-518q0 -88 -44.5 -127t-135.5 -39h-35v104h30q39 0 57 15.5t18 52.5v414h-105zM137 597q-18 21 -18 48q0 30 21.5 51.5t51.5 21.5t51.5 -21.5t21.5 -51.5q0 -27 -18 -48h-110z" />
    <glyph glyph-name="k.ss11" horiz-adv-x="618" 
d="M153 0v76q-58 17 -95.5 67t-37.5 113q0 62 37 111.5t96 67.5v275h110v-276q53 -17 89 -59l111 125h130l-195 -222h-116q-7 20 -19 34v-113q22 25 22 57h106l227 -256h-135l-126 143q-38 -51 -94 -67v-76h-110zM130 256q0 -33 23 -58v115q-23 -26 -23 -57z" />
    <glyph glyph-name="l.ss11" horiz-adv-x="414" 
d="M60 612v98h207v-612h137v-98h-384v98h137v514h-97z" />
    <glyph glyph-name="r.ss11" horiz-adv-x="476" 
d="M60 402v98h207v-49q47 56 129 56q20 0 36 -3v-115q-21 7 -55 7q-79 0 -110 -60v-238h165v-98h-412v98h137v304h-97z" />
    <glyph glyph-name="w.ss11" horiz-adv-x="723" 
d="M466 0l-105 185l-104 -185h-86l-158 500h115l108 -357l74 133l-126 224h104l73 -132l74 132h104l-126 -224l74 -133l108 357h115l-158 -500h-86z" />
    <glyph glyph-name="x.ss11" horiz-adv-x="543" 
d="M13 0l148 198q-114 49 -114 195v107h110v-105q0 -44 31 -78t83 -34t83 34t31 78v105h110v-107q0 -146 -114 -195l149 -198h-128l-131 178l-130 -178h-128z" />
    <glyph glyph-name="y.ss11" horiz-adv-x="509" 
d="M10 -184v104h87q55 0 68 31l32 75l-197 474h118l137 -346l137 346h117l-246 -589q-40 -95 -171 -95h-82z" />
    <glyph glyph-name="z.ss11" horiz-adv-x="517" 
d="M24 0l272 402h-131v-50h-109v148h430l-272 -402h149v50h109v-148h-448z" />
    <glyph glyph-name="A_C" horiz-adv-x="1091" 
d="M811 -8q-96 0 -176.5 44.5t-129.5 121.5h-297l-74 -158h-124l347 718l113 -235q39 105 132 170t209 65q153 0 251 -103l-75 -82q-70 75 -176 75q-105 0 -175 -73t-70 -180t70 -180t175 -73q106 0 176 75l75 -82q-98 -103 -251 -103zM258 264h197l-98 210z" />
    <glyph glyph-name="A_G" horiz-adv-x="1140" 
d="M811 -8q-96 0 -176.5 44.5t-129.5 121.5h-297l-74 -158h-124l347 718l113 -235q39 105 132 170t209 65q161 0 259 -103l-75 -82q-33 35 -82 55t-102 20q-105 0 -175 -73t-70 -180t70 -180t175 -73q84 0 145 38v164h-195l51 112h260v-333q-105 -91 -261 -91zM258 264h197
l-98 210z" />
    <glyph glyph-name="A_H" horiz-adv-x="1077" 
d="M10 0l347 718l146 -302h379v294h116v-710h-116v304h-325l147 -304h-125l-74 158h-297l-74 -158h-124zM357 474l-99 -210h197z" />
    <glyph glyph-name="A_O" horiz-adv-x="1212" 
d="M811 -8q-96 0 -176.5 44.5t-129.5 121.5h-297l-74 -158h-124l347 718l113 -235q39 105 132 170t209 65q152 0 257.5 -105t105.5 -258t-105.5 -258t-257.5 -105zM811 102q105 0 175 73t70 180t-70 180t-175 73t-175 -73t-70 -180t70 -180t175 -73zM258 264h197l-98 210z
" />
    <glyph glyph-name="A_Q" horiz-adv-x="1212" 
d="M1162 -8l-110 89q-102 -89 -241 -89q-96 0 -176.5 44.5t-129.5 121.5h-297l-74 -158h-124l347 718l113 -235q39 105 132 170t209 65q152 0 257.5 -105t105.5 -258q0 -103 -53 -191l110 -90zM811 102q87 0 152 52l-101 83l69 82l99 -81q26 57 26 117q0 107 -70 180
t-175 73t-175 -73t-70 -180t70 -180t175 -73zM258 264h197l-98 210z" />
    <glyph glyph-name="A_V" horiz-adv-x="914" 
d="M10 0l347 718l225 -465l203 457h127l-329 -718l-78 166h-297l-74 -158h-124zM258 264h197l-98 210z" />
    <glyph glyph-name="A_W" horiz-adv-x="1221" 
d="M965 -8l-191 460l-191 -460l-78 166h-297l-74 -158h-124l347 718l223 -461l194 461l176 -417l140 409h120zM258 264h197l-98 210z" />
    <glyph glyph-name="D_A" horiz-adv-x="1122" 
d="M79 0v710h225q121 0 214.5 -62t133.5 -164l113 234l347 -718h-125l-74 158h-297q-50 -73 -131.5 -115.5t-180.5 -42.5h-225zM195 108h109q113 0 183.5 70t70.5 177t-70.5 177t-183.5 70h-109v-494zM765 474l-99 -210h197z" />
    <glyph glyph-name="D_C" horiz-adv-x="1201" 
d="M921 -8q-95 0 -175.5 44t-129.5 120q-50 -73 -132 -114.5t-180 -41.5h-225v710h225q98 0 180 -41.5t132 -114.5q49 76 129.5 120t175.5 44q153 0 251 -103l-75 -82q-70 75 -176 75q-105 0 -175 -73t-70 -180t70 -180t175 -73q106 0 176 75l75 -82q-98 -103 -251 -103z
M195 108h109q113 0 183.5 70t70.5 177t-70.5 177t-183.5 70h-109v-494z" />
    <glyph glyph-name="D_G" horiz-adv-x="1250" 
d="M921 -8q-95 0 -175.5 44t-129.5 120q-50 -73 -132 -114.5t-180 -41.5h-225v710h225q98 0 180 -41.5t132 -114.5q49 76 129.5 120t175.5 44q161 0 259 -103l-75 -82q-33 35 -82 55t-102 20q-105 0 -175 -73t-70 -180t70 -180t175 -73q84 0 145 38v164h-195l51 112h260
v-333q-105 -91 -261 -91zM195 108h109q113 0 183.5 70t70.5 177t-70.5 177t-183.5 70h-109v-494z" />
    <glyph glyph-name="D_H" horiz-adv-x="1219" 
d="M79 0v710h225q141 0 243 -82.5t124 -211.5h353v294h116v-710h-116v304h-352q-18 -133 -121 -218.5t-247 -85.5h-225zM195 108h109q113 0 183.5 70t70.5 177t-70.5 177t-183.5 70h-109v-494z" />
    <glyph glyph-name="D_K" horiz-adv-x="1143" 
d="M79 0v710h225q159 0 265.5 -102t106.5 -253v-2l299 357h138l-301 -359l331 -351h-150l-318 336q-7 -144 -112.5 -240t-258.5 -96h-225zM195 108h109q113 0 183.5 70t70.5 177t-70.5 177t-183.5 70h-109v-494z" />
    <glyph glyph-name="D_M" horiz-adv-x="1243" 
d="M79 0v710h225q171 0 286 -123l225 -241l349 372v-718h-116v436l-233 -252l-140 151q-8 -144 -113 -239.5t-258 -95.5h-225zM195 108h109q113 0 183.5 70t70.5 177t-70.5 177t-183.5 70h-109v-494z" />
    <glyph glyph-name="D_N" horiz-adv-x="1134" 
d="M1055 -8l-379 360q-2 -150 -108 -251t-264 -101h-225v710h225q159 0 270 -106l365 -347v453h116v-718zM195 108h109q113 0 183.5 70t70.5 177t-70.5 177t-183.5 70h-109v-494z" />
    <glyph glyph-name="D_O" horiz-adv-x="1322" 
d="M921 -8q-95 0 -175.5 44t-129.5 120q-50 -73 -132 -114.5t-180 -41.5h-225v710h225q98 0 180 -41.5t132 -114.5q49 76 129.5 120t175.5 44q152 0 257.5 -105t105.5 -258t-105.5 -258t-257.5 -105zM195 108h109q113 0 183.5 70t70.5 177t-70.5 177t-183.5 70h-109v-494z
M921 102q105 0 175 73t70 180t-70 180t-175 73t-175 -73t-70 -180t70 -180t175 -73z" />
    <glyph glyph-name="D_Q" horiz-adv-x="1322" 
d="M921 -8q-95 0 -175.5 44t-129.5 120q-50 -73 -132 -114.5t-180 -41.5h-225v710h225q98 0 180 -41.5t132 -114.5q49 76 129.5 120t175.5 44q152 0 257.5 -105t105.5 -258q0 -105 -53 -191l110 -90l-69 -82l-110 90q-101 -90 -241 -90zM921 102q87 0 152 52l-101 83l69 82
l99 -81q26 54 26 117q0 107 -70 180t-175 73t-175 -73t-70 -180t70 -180t175 -73zM195 108h109q113 0 183.5 70t70.5 177t-70.5 177t-183.5 70h-109v-494z" />
    <glyph glyph-name="D_V" horiz-adv-x="1084" 
d="M753 -8l-104 227q-41 -100 -133.5 -159.5t-211.5 -59.5h-225v710h225q122 0 212.5 -60.5t134.5 -161.5l102 -232l202 454h127zM195 108h109q113 0 183.5 70t70.5 177t-70.5 177t-183.5 70h-109v-494z" />
    <glyph glyph-name="D_W" horiz-adv-x="1338" 
d="M700 -8l-66 194q-47 -85 -134 -135.5t-196 -50.5h-225v710h225q130 0 223.5 -67.5t132.5 -181.5l55 -160l176 417l176 -417l140 409h120l-245 -718l-191 460zM195 108h109q113 0 183.5 70t70.5 177t-70.5 177t-183.5 70h-109v-494z" />
    <glyph glyph-name="E_A" horiz-adv-x="1080" 
d="M79 0v710h421v-114h-305v-180h245v-112h-245v-190h236l292 604l347 -718h-125l-74 158h-297l-74 -158h-421zM723 474l-99 -210h197z" />
    <glyph glyph-name="E_E" horiz-adv-x="965" 
d="M79 0v710h421h421v-114h-305v-180h245v-112h-245v-190h305v-114h-842zM500 114v482h-305v-180h245v-112h-245v-190h305z" />
    <glyph glyph-name="G_H" horiz-adv-x="1209" 
d="M401 -8q-151 0 -257 105t-106 258t106 258t257 105q161 0 259 -103l-75 -82q-33 35 -82 55t-102 20q-105 0 -175 -73t-70 -180t70 -180t175 -73q84 0 145 38v164h-195l51 112h612v294h116v-710h-116v304h-352v-221q-105 -91 -261 -91z" />
    <glyph glyph-name="G_K" horiz-adv-x="1129" 
d="M401 -8q-151 0 -257 105t-106 258t106 258t257 105q161 0 259 -103l-75 -82q-33 35 -82 55t-102 20q-105 0 -175 -73t-70 -180t70 -180t175 -73q84 0 145 38v164h-195l51 112h260v-63l299 357h138l-301 -359l331 -351h-150l-317 335v-252q-105 -91 -261 -91z" />
    <glyph glyph-name="H_A" horiz-adv-x="1077" 
d="M195 304v-304h-116v710h116v-294h379l146 302l347 -718h-125l-74 158h-297l-74 -158h-124l147 304h-325zM720 474l-99 -210h197z" />
    <glyph glyph-name="H_B" horiz-adv-x="1088" 
d="M547 0v304h-352v-304h-116v710h116v-294h352v294h251q94 0 151.5 -56.5t57.5 -137.5q0 -91 -66 -138q52 -22 83 -66.5t31 -107.5q0 -92 -66 -148t-170 -56h-272zM663 108h156q58 0 88.5 28t30.5 73q0 46 -30.5 74.5t-88.5 28.5h-156v-204zM663 411h120q51 0 79 27t28 69
q0 41 -28 68.5t-79 27.5h-120v-192z" />
    <glyph glyph-name="H_C" horiz-adv-x="1185" 
d="M905 -8q-138 0 -239.5 88.5t-120.5 223.5h-350v-304h-116v710h116v-294h351q22 131 123 216.5t236 85.5q153 0 251 -103l-75 -82q-70 75 -176 75q-105 0 -175 -73t-70 -180t70 -180t175 -73q106 0 176 75l75 -82q-98 -103 -251 -103z" />
    <glyph glyph-name="H_D" horiz-adv-x="1182" 
d="M79 0v710h116v-294h352v294h225q159 0 265.5 -102t106.5 -253t-106.5 -253t-265.5 -102h-225v304h-352v-304h-116zM663 108h109q113 0 183.5 70t70.5 177t-70.5 177t-183.5 70h-109v-494z" />
    <glyph glyph-name="H_E" horiz-adv-x="1012" 
d="M547 0v304h-352v-304h-116v710h116v-294h352v294h421v-114h-305v-180h245v-112h-245v-190h305v-114h-421z" />
    <glyph glyph-name="H_F" horiz-adv-x="982" 
d="M79 0v710h116v-294h352v294h412v-114h-296v-180h231v-112h-231v-304h-116v304h-352v-304h-116z" />
    <glyph glyph-name="H_G" horiz-adv-x="1234" 
d="M905 -8q-138 0 -239.5 88.5t-120.5 223.5h-350v-304h-116v710h116v-294h351q22 131 123 216.5t236 85.5q161 0 259 -103l-75 -82q-33 35 -82 55t-102 20q-105 0 -175 -73t-70 -180t70 -180t175 -73q84 0 145 38v164h-195l51 112h260v-333q-105 -91 -261 -91z" />
    <glyph glyph-name="H_K" horiz-adv-x="1130" 
d="M547 0v304h-352v-304h-116v710h116v-294h352v294h116v-357l299 357h138l-301 -359l331 -351h-150l-317 335v-335h-116z" />
    <glyph glyph-name="H_M" horiz-adv-x="1324" 
d="M547 0v304h-352v-304h-116v710h116v-294h352v302l349 -372l349 372v-718h-116v436l-233 -252l-233 252v-436h-116z" />
    <glyph glyph-name="H_N" horiz-adv-x="1227" 
d="M1148 -8l-485 461v-453h-116v304h-352v-304h-116v710h116v-294h352v302l485 -461v453h116v-718z" />
    <glyph glyph-name="H_O" horiz-adv-x="1306" 
d="M905 -8q-138 0 -239.5 88.5t-120.5 223.5h-350v-304h-116v710h116v-294h351q22 131 123 216.5t236 85.5q152 0 257.5 -105t105.5 -258t-105.5 -258t-257.5 -105zM905 102q105 0 175 73t70 180t-70 180t-175 73t-175 -73t-70 -180t70 -180t175 -73z" />
    <glyph glyph-name="H_P" horiz-adv-x="1027" 
d="M547 0v304h-352v-304h-116v710h116v-294h352v294h212q110 0 179 -63t69 -163q0 -99 -69 -162.5t-179 -63.5h-96v-258h-116zM663 366h91q63 0 99 32t36 86t-36 86t-99 32h-91v-236z" />
    <glyph glyph-name="H_Q" horiz-adv-x="1306" 
d="M1256 -8l-110 89q-102 -89 -241 -89q-138 0 -239.5 88.5t-120.5 223.5h-350v-304h-116v710h116v-294h351q22 131 123 216.5t236 85.5q152 0 257.5 -105t105.5 -258q0 -103 -53 -191l110 -90zM905 102q87 0 152 52l-101 83l69 82l99 -81q26 57 26 117q0 107 -70 180
t-175 73t-175 -73t-70 -180t70 -180t175 -73z" />
    <glyph glyph-name="H_R" horiz-adv-x="1090" 
d="M944 0l-214 302h-67v-302h-116v304h-352v-304h-116v710h116v-294h352v294h230q99 0 162.5 -57.5t63.5 -146.5q0 -69 -39 -120.5t-107 -72.5l226 -313h-139zM663 403h103q59 0 89 26.5t30 72.5q0 47 -30 74t-89 27h-103v-200z" />
    <glyph glyph-name="H_T" horiz-adv-x="867" 
d="M79 0v710h116v-294h352v180h-183v114h483v-114h-184v-596h-116v304h-352v-304h-116z" />
    <glyph glyph-name="H_U" horiz-adv-x="1188" 
d="M833 -8q-127 0 -206.5 77t-79.5 207v28h-352v-304h-116v710h116v-294h352v294h116v-437q0 -81 46.5 -126t123.5 -45t123 45t46 126v437h116v-434q0 -130 -79 -207t-206 -77z" />
    <glyph glyph-name="H_V" horiz-adv-x="1021" 
d="M690 -8l-143 312h-352v-304h-116v710h116v-294h300l-134 294h128l201 -454l202 454h127z" />
    <glyph glyph-name="H_W" horiz-adv-x="1330" 
d="M692 -8l-106 312h-391v-304h-116v710h116v-294h353l-100 294h119l140 -409l176 417l176 -417l140 409h120l-245 -718l-191 460z" />
    <glyph glyph-name="H_Y" horiz-adv-x="926" 
d="M547 0v304h-352v-304h-116v710h116v-294h280l-189 294h136l183 -288l183 288h137l-262 -406v-304h-116z" />
    <glyph glyph-name="L_A" horiz-adv-x="1074" 
d="M79 0v710h116v-595h230l292 603l347 -718h-125l-74 158h-297l-74 -158h-415zM717 474l-99 -210h197z" />
    <glyph glyph-name="M_B" horiz-adv-x="1202" 
d="M79 0v718l349 -372l341 364h143q94 0 151.5 -56.5t57.5 -137.5q0 -91 -66 -138q52 -22 83 -66.5t31 -107.5q0 -92 -66 -148t-170 -56h-272v436l-233 -252l-233 252v-436h-116zM777 108h156q58 0 88.5 28t30.5 73q0 46 -30.5 74.5t-88.5 28.5h-156v-204zM777 411h120
q51 0 79 27t28 69q0 41 -28 68.5t-79 27.5h-120v-192z" />
    <glyph glyph-name="M_C" horiz-adv-x="1216" 
d="M936 -8q-147 0 -252 100.5t-111 248.5l-145 -157l-233 252v-436h-116v718l349 -372l245 261q49 52 117.5 81.5t145.5 29.5q153 0 251 -103l-75 -82q-70 75 -176 75q-105 0 -175 -73t-70 -180t70 -180t175 -73q106 0 176 75l75 -82q-98 -103 -251 -103z" />
    <glyph glyph-name="M_D" horiz-adv-x="1296" 
d="M79 0v718l349 -372l341 364h117q159 0 265.5 -102t106.5 -253t-106.5 -253t-265.5 -102h-225v436l-233 -252l-233 252v-436h-116zM777 108h109q113 0 183.5 70t70.5 177t-70.5 177t-183.5 70h-109v-494z" />
    <glyph glyph-name="M_E" horiz-adv-x="1126" 
d="M79 0v718l349 -372l341 364h313v-114h-305v-180h245v-112h-245v-190h305v-114h-421v436l-233 -252l-233 252v-436h-116z" />
    <glyph glyph-name="M_F" horiz-adv-x="1096" 
d="M79 0v718l349 -372l341 364h304v-114h-296v-180h231v-112h-231v-304h-116v436l-233 -252l-233 252v-436h-116z" />
    <glyph glyph-name="M_G" horiz-adv-x="1265" 
d="M936 -8q-147 0 -252 100.5t-111 248.5l-145 -157l-233 252v-436h-116v718l349 -372l245 261q47 49 117.5 80t145.5 31q161 0 259 -103l-75 -82q-33 35 -82 55t-102 20q-105 0 -175 -73t-70 -180t70 -180t175 -73q84 0 145 38v164h-195l51 112h260v-333q-105 -91 -261 -91
z" />
    <glyph glyph-name="M_K" horiz-adv-x="1244" 
d="M79 0v718l349 -372l349 372v-365l299 357h138l-301 -359l331 -351h-150l-317 335v-335h-116v436l-233 -252l-233 252v-436h-116z" />
    <glyph glyph-name="M_M" horiz-adv-x="1438" 
d="M79 0v718l349 -372l291 310l291 -310l349 372v-718h-116v436l-233 -252l-233 252v-436h-116v436l-233 -252l-233 252v-436h-116z" />
    <glyph glyph-name="M_N" horiz-adv-x="1341" 
d="M1262 -8l-485 461v-453h-116v436l-233 -252l-233 252v-436h-116v718l349 -372l294 314l424 -403v453h116v-718z" />
    <glyph glyph-name="M_O" horiz-adv-x="1337" 
d="M936 -8q-147 0 -252 100.5t-111 248.5l-145 -157l-233 252v-436h-116v718l349 -372l245 261q105 111 263 111q152 0 257.5 -105t105.5 -258t-105.5 -258t-257.5 -105zM936 102q105 0 175 73t70 180t-70 180t-175 73t-175 -73t-70 -180t70 -180t175 -73z" />
    <glyph glyph-name="M_P" horiz-adv-x="1141" 
d="M79 0v718l349 -372l340 364h105q110 0 179 -63t69 -163q0 -99 -69 -162.5t-179 -63.5h-96v-258h-116v436l-233 -252l-233 252v-436h-116zM777 366h91q63 0 99 32t36 86t-36 86t-99 32h-91v-236z" />
    <glyph glyph-name="M_Q" horiz-adv-x="1336" 
d="M1286 -8l-110 89q-102 -89 -241 -89q-147 0 -252 100t-111 248l-144 -156l-233 252v-436h-116v718l349 -372l245 261q104 111 262 111q152 0 257.5 -105t105.5 -258q0 -103 -53 -191l110 -90zM935 102q87 0 152 52l-101 83l69 82l99 -81q26 57 26 117q0 107 -70 180
t-175 73t-175 -73t-70 -180t70 -180t175 -73z" />
    <glyph glyph-name="M_R" horiz-adv-x="1204" 
d="M1058 0l-214 302h-67v-302h-116v436l-233 -252l-233 252v-436h-116v718l349 -372l341 364h122q99 0 162.5 -57.5t63.5 -146.5q0 -69 -39 -120.5t-107 -72.5l226 -313h-139zM777 403h103q59 0 89 26.5t30 72.5q0 47 -30 74t-89 27h-103v-200z" />
    <glyph glyph-name="M_U" horiz-adv-x="1302" 
d="M947 -8q-127 0 -206.5 77t-79.5 207v160l-233 -252l-233 252v-436h-116v718l349 -372l349 372v-445q0 -81 46.5 -126t123.5 -45t123 45t46 126v437h116v-434q0 -130 -79 -207t-206 -77z" />
    <glyph glyph-name="N_B" horiz-adv-x="1105" 
d="M79 0v718l485 -461v453h251q94 0 151.5 -56.5t57.5 -137.5q0 -91 -66 -138q52 -22 83 -66.5t31 -107.5q0 -92 -66 -148t-170 -56h-164l-477 453v-453h-116zM680 108h156q58 0 88.5 28t30.5 73q0 46 -30.5 74.5t-88.5 28.5h-156v-204zM680 411h120q51 0 79 27t28 69
q0 41 -28 68.5t-79 27.5h-120v-192z" />
    <glyph glyph-name="N_C" horiz-adv-x="1107" 
d="M827 -8q-146 0 -249 97l-383 364v-453h-116v718l385 -366v3q0 153 106 258t257 105q153 0 251 -103l-75 -82q-70 75 -176 75q-105 0 -175 -73t-70 -180t70 -180t175 -73q106 0 176 75l75 -82q-98 -103 -251 -103z" />
    <glyph glyph-name="N_D" horiz-adv-x="1199" 
d="M79 0v718l485 -461v453h225q159 0 265.5 -102t106.5 -253t-106.5 -253t-265.5 -102h-117l-477 453v-453h-116zM680 108h109q113 0 183.5 70t70.5 177t-70.5 177t-183.5 70h-109v-494z" />
    <glyph glyph-name="N_E" horiz-adv-x="1029" 
d="M79 0v718l485 -461v453h421v-114h-305v-180h245v-112h-245v-190h305v-114h-313l-477 453v-453h-116z" />
    <glyph glyph-name="N_F" horiz-adv-x="999" 
d="M680 -8l-485 461v-453h-116v718l485 -461v453h412v-114h-296v-180h231v-112h-231v-312z" />
    <glyph glyph-name="N_G" horiz-adv-x="1156" 
d="M827 -8q-147 0 -255 103l-377 358v-453h-116v718l385 -366v3q0 153 106 258t257 105q161 0 259 -103l-75 -82q-33 35 -82 55t-102 20q-105 0 -175 -73t-70 -180t70 -180t175 -73q84 0 145 38v164h-195l51 112h260v-333q-105 -91 -261 -91z" />
    <glyph glyph-name="N_K" horiz-adv-x="1147" 
d="M680 -8l-485 461v-453h-116v718l485 -461v453h116v-357l299 357h138l-301 -359l331 -351h-150l-317 335v-343z" />
    <glyph glyph-name="N_M" horiz-adv-x="1341" 
d="M680 -8l-485 461v-453h-116v718l485 -461v461l349 -372l349 372v-718h-116v436l-233 -252l-233 252v-444z" />
    <glyph glyph-name="N_N" horiz-adv-x="1244" 
d="M680 -8l-485 461v-453h-116v718l485 -461v461l485 -461v453h116v-718l-485 461v-461z" />
    <glyph glyph-name="N_O" horiz-adv-x="1228" 
d="M827 -8q-150 0 -255 103l-377 358v-453h-116v718l385 -366v3q0 153 106 258t257 105q152 0 257.5 -105t105.5 -258t-105.5 -258t-257.5 -105zM827 102q105 0 175 73t70 180t-70 180t-175 73t-175 -73t-70 -180t70 -180t175 -73z" />
    <glyph glyph-name="N_P" horiz-adv-x="1044" 
d="M680 -8l-485 461v-453h-116v718l485 -461v453h212q110 0 179 -63t69 -163q0 -99 -69 -162.5t-179 -63.5h-96v-266zM680 366h91q63 0 99 32t36 86t-36 86t-99 32h-91v-236z" />
    <glyph glyph-name="N_Q" horiz-adv-x="1228" 
d="M1178 -8l-110 89q-102 -89 -241 -89q-147 0 -255 103l-377 358v-453h-116v718l385 -366v3q0 153 106 258t257 105q152 0 257.5 -105t105.5 -258q0 -103 -53 -191l110 -90zM827 102q87 0 152 52l-101 83l69 82l99 -81q26 57 26 117q0 107 -70 180t-175 73t-175 -73
t-70 -180t70 -180t175 -73z" />
    <glyph glyph-name="N_R" horiz-adv-x="1107" 
d="M961 0l-214 302h-67v-310l-485 461v-453h-116v718l485 -461v453h230q99 0 162.5 -57.5t63.5 -146.5q0 -69 -39 -120.5t-107 -72.5l226 -313h-139zM680 403h103q59 0 89 26.5t30 72.5q0 47 -30 74t-89 27h-103v-200z" />
    <glyph glyph-name="N_T" horiz-adv-x="884" 
d="M680 -8l-485 461v-453h-116v718l485 -461v339h-183v114h483v-114h-184v-604z" />
    <glyph glyph-name="N_U" horiz-adv-x="1160" 
d="M805 -8q-127 0 -210 80l-400 381v-453h-116v718l440 -418v410h116v-437q0 -81 46.5 -126t123.5 -45t123 45t46 126v437h116v-434q0 -130 -79 -207t-206 -77z" />
    <glyph glyph-name="O_A" horiz-adv-x="1213" 
d="M401 -8q-151 0 -257 105t-106 258t106 258t257 105q117 0 209.5 -65.5t131.5 -171.5l114 237l347 -718h-125l-74 158h-297q-49 -77 -129.5 -121.5t-176.5 -44.5zM401 102q105 0 175 73t70 180t-70 180t-175 73t-175 -73t-70 -180t70 -180t175 -73zM757 264h197l-98 210z
" />
    <glyph glyph-name="O_C" horiz-adv-x="1289" 
d="M401 -8q-151 0 -257 105t-106 258t106 258t257 105q95 0 175 -43.5t129 -118.5q49 75 129.5 118.5t174.5 43.5q153 0 251 -103l-75 -82q-70 75 -176 75q-105 0 -175 -73t-70 -180t70 -180t175 -73q106 0 176 75l75 -82q-98 -103 -251 -103q-94 0 -174.5 43.5
t-129.5 118.5q-49 -75 -129 -118.5t-175 -43.5zM401 102q105 0 175 73t70 180t-70 180t-175 73t-175 -73t-70 -180t70 -180t175 -73z" />
    <glyph glyph-name="O_G" horiz-adv-x="1338" 
d="M401 -8q-151 0 -257 105t-106 258t106 258t257 105q95 0 175 -43.5t129 -118.5q49 75 129.5 118.5t174.5 43.5q161 0 259 -103l-75 -82q-33 35 -82 55t-102 20q-105 0 -175 -73t-70 -180t70 -180t175 -73q84 0 145 38v164h-195l51 112h260v-333q-105 -91 -261 -91
q-94 0 -174.5 43.5t-129.5 118.5q-49 -75 -129 -118.5t-175 -43.5zM401 102q105 0 175 73t70 180t-70 180t-175 73t-175 -73t-70 -180t70 -180t175 -73z" />
    <glyph glyph-name="O_H" horiz-adv-x="1306" 
d="M401 -8q-151 0 -257 105t-106 258t106 258t257 105q135 0 236 -85.5t122 -216.5h352v294h116v-710h-116v304h-351q-18 -135 -119.5 -223.5t-239.5 -88.5zM401 102q105 0 175 73t70 180t-70 180t-175 73t-175 -73t-70 -180t70 -180t175 -73z" />
    <glyph glyph-name="O_K" horiz-adv-x="1231" 
d="M401 -8q-151 0 -257 105t-106 258t106 258t257 105q152 0 257.5 -105t105.5 -258v-2l299 357h138l-301 -359l331 -351h-150l-318 336q-7 -147 -111 -245.5t-251 -98.5zM401 102q105 0 175 73t70 180t-70 180t-175 73t-175 -73t-70 -180t70 -180t175 -73z" />
    <glyph glyph-name="O_M" horiz-adv-x="1337" 
d="M401 -8q-151 0 -257 105t-106 258t106 258t257 105q161 0 275 -122l233 -250l349 372v-718h-116v436l-233 -252l-145 157q-5 -148 -110 -248.5t-253 -100.5zM401 102q105 0 175 73t70 180t-70 180t-175 73t-175 -73t-70 -180t70 -180t175 -73z" />
    <glyph glyph-name="O_N" horiz-adv-x="1228" 
d="M401 -8q-151 0 -257 105t-106 258t106 258t257 105q148 0 257 -104l375 -357v453h116v-718l-385 366v-3q0 -153 -105.5 -258t-257.5 -105zM401 102q105 0 175 73t70 180t-70 180t-175 73t-175 -73t-70 -180t70 -180t175 -73z" />
    <glyph glyph-name="O_O" horiz-adv-x="1410" 
d="M401 -8q-151 0 -257 105t-106 258t106 258t257 105q95 0 175 -43.5t129 -118.5q49 75 129.5 118.5t174.5 43.5q152 0 257.5 -105t105.5 -258t-105.5 -258t-257.5 -105q-94 0 -174.5 43.5t-129.5 118.5q-49 -75 -129 -118.5t-175 -43.5zM401 102q105 0 175 73t70 180
t-70 180t-175 73t-175 -73t-70 -180t70 -180t175 -73zM1009 102q105 0 175 73t70 180t-70 180t-175 73t-175 -73t-70 -180t70 -180t175 -73z" />
    <glyph glyph-name="O_Q" horiz-adv-x="1410" 
d="M401 -8q-151 0 -257 105t-106 258t106 258t257 105q95 0 175 -43.5t129 -118.5q49 75 129.5 118.5t174.5 43.5q152 0 257.5 -105t105.5 -258q0 -105 -53 -191l110 -90l-69 -82l-110 90q-101 -90 -241 -90q-94 0 -174.5 43.5t-129.5 118.5q-49 -75 -129 -118.5t-175 -43.5
zM401 102q105 0 175 73t70 180t-70 180t-175 73t-175 -73t-70 -180t70 -180t175 -73zM1009 102q87 0 152 52l-101 83l69 82l99 -81q26 54 26 117q0 107 -70 180t-175 73t-175 -73t-70 -180t70 -180t175 -73z" />
    <glyph glyph-name="O_V" horiz-adv-x="1174" 
d="M401 -8q-151 0 -257 105t-106 258t106 258t257 105q113 0 203 -60t133 -160l106 -242l202 454h127l-329 -718l-104 227q-40 -102 -132 -164.5t-206 -62.5zM401 102q105 0 175 73t70 180t-70 180t-175 73t-175 -73t-70 -180t70 -180t175 -73z" />
    <glyph glyph-name="O_W" horiz-adv-x="1427" 
d="M401 -8q-151 0 -257 105t-106 258t106 258t257 105q121 0 214 -67.5t131 -179.5l58 -170l176 417l176 -417l140 409h120l-245 -718l-191 460l-191 -460l-66 194q-46 -89 -131.5 -141.5t-190.5 -52.5zM401 102q105 0 175 73t70 180t-70 180t-175 73t-175 -73t-70 -180
t70 -180t175 -73z" />
    <glyph glyph-name="T_H" horiz-adv-x="866" 
d="M203 0v596h-183v114h483v-114h-184v-180h352v294h116v-710h-116v304h-352v-304h-116z" />
    <glyph glyph-name="T_T" horiz-adv-x="949" 
d="M629 0v596h-310v-596h-116v596h-183v114h909v-114h-184v-596h-116z" />
    <glyph glyph-name="T_U" horiz-adv-x="844" 
d="M20 596v114h483v-114h-184v-323q0 -81 46.5 -126t123.5 -45t123 45t46 126v437h116v-434q0 -130 -79 -207t-206 -77t-206.5 77t-79.5 207v320h-183z" />
    <glyph glyph-name="T_Z" horiz-adv-x="1057" 
d="M461 0l371 596h-513v-596h-116v596h-183v114h1011l-371 -596h364v-114h-563z" />
    <glyph glyph-name="U_F" horiz-adv-x="960" 
d="M356 -8q-127 0 -206.5 77t-79.5 207v434h116v-437q0 -81 46.5 -126t123.5 -45t123 45t46 126v437h412v-114h-296v-180h231v-112h-231v-28q0 -130 -79 -207t-206 -77z" />
    <glyph glyph-name="U_H" horiz-adv-x="1188" 
d="M356 -8q-127 0 -206.5 77t-79.5 207v434h116v-437q0 -81 46.5 -126t123.5 -45t123 45t46 126v437h116v-294h352v294h116v-710h-116v304h-352v-28q0 -130 -79 -207t-206 -77z" />
    <glyph glyph-name="U_K" horiz-adv-x="1108" 
d="M356 -8q-127 0 -206.5 77t-79.5 207v434h116v-437q0 -81 46.5 -126t123.5 -45t123 45t46 126v437h116v-357l299 357h138l-301 -359l331 -351h-150l-317 335v-59q0 -130 -79 -207t-206 -77z" />
    <glyph glyph-name="U_M" horiz-adv-x="1302" 
d="M356 -8q-127 0 -206.5 77t-79.5 207v434h116v-437q0 -81 46.5 -126t123.5 -45t123 45t46 126v445l349 -372l349 372v-718h-116v436l-233 -252l-233 252v-160q0 -130 -79 -207t-206 -77z" />
    <glyph glyph-name="U_N" horiz-adv-x="1205" 
d="M356 -8q-127 0 -206.5 77t-79.5 207v434h116v-437q0 -81 46.5 -126t123.5 -45t123 45t46 126v445l485 -461v453h116v-718l-485 461v-177q0 -130 -79 -207t-206 -77z" />
    <glyph glyph-name="U_P" horiz-adv-x="1005" 
d="M356 -8q-127 0 -206.5 77t-79.5 207v434h116v-437q0 -81 46.5 -126t123.5 -45t123 45t46 126v437h212q110 0 179 -63t69 -163q0 -99 -69 -162.5t-179 -63.5h-97q-6 -123 -84 -194.5t-200 -71.5zM641 366h91q63 0 99 32t36 86t-36 86t-99 32h-91v-236z" />
    <glyph glyph-name="U_R" horiz-adv-x="1068" 
d="M356 -8q-127 0 -206.5 77t-79.5 207v434h116v-437q0 -81 46.5 -126t123.5 -45t123 45t46 126v437h230q99 0 162.5 -57.5t63.5 -146.5q0 -69 -39 -120.5t-107 -72.5l226 -313h-139l-214 302h-67v-26q0 -130 -79 -207t-206 -77zM641 403h103q59 0 89 26.5t30 72.5
q0 47 -30 74t-89 27h-103v-200z" />
    <glyph glyph-name="U_T" horiz-adv-x="845" 
d="M356 -8q-127 0 -206.5 77t-79.5 207v434h116v-437q0 -81 46.5 -126t123.5 -45t123 45t46 126v323h-183v114h483v-114h-184v-320q0 -130 -79 -207t-206 -77z" />
    <glyph glyph-name="V_A" horiz-adv-x="914" 
d="M331 -8l-329 718h128l201 -454l226 462l347 -718h-125l-74 158h-297zM458 264h197l-98 210z" />
    </font>
</defs>
</svg>
